<svg width="29" height="26" viewBox="0 0 29 26" fill="none" xmlns="http://www.w3.org/2000/svg">
<path opacity="0.5" d="M28.8349 2.05045C29.1389 1.58936 29.0115 0.969134 28.5504 0.66513C28.0894 0.361126 27.4691 0.488467 27.1651 0.949553L28.8349 2.05045ZM12.8356 24.5L12.2188 25.2871L13.0731 25.9565L13.6705 25.0504L12.8356 24.5ZM1.61678 14.4387C1.18206 14.098 0.553508 14.1743 0.212868 14.609C-0.127773 15.0437 -0.0515053 15.6723 0.383216 16.0129L1.61678 14.4387ZM27.1651 0.949553L12.0007 23.9496L13.6705 25.0504L28.8349 2.05045L27.1651 0.949553ZM13.4524 23.7129L1.61678 14.4387L0.383216 16.0129L12.2188 25.2871L13.4524 23.7129Z" fill="#5960C7"/>
</svg>
