<svg width="32" height="32" viewBox="0 0 32 32" fill="none" xmlns="http://www.w3.org/2000/svg">
<path d="M31.8655 26.3486C31.4831 24.482 30.6629 22.7328 29.4724 21.2452C28.2818 19.7576 26.755 18.574 25.0175 17.7918C24.7935 17.6894 24.5695 17.5998 24.3455 17.5102C24.9242 16.9959 25.4036 16.3798 25.7599 15.6926C25.8111 15.5966 25.8495 15.507 25.8943 15.411L25.9903 15.2062C26.1511 14.8335 26.2734 14.4453 26.3551 14.0478C26.4275 13.7275 26.4766 13.4023 26.5023 13.075C26.5982 11.8034 26.3035 10.5328 25.6575 9.43336C25.5999 9.33096 25.5359 9.23498 25.4719 9.13258L25.3695 8.97898C25.1932 8.72208 24.9986 8.47823 24.7871 8.24937L24.7487 8.21098C24.6463 8.10218 24.5375 7.99978 24.4287 7.89738C23.7471 7.26985 22.94 6.79429 22.0607 6.50219C21.7184 6.39925 21.37 6.31802 21.0175 6.25898L20.5823 6.17578H19.4623L19.0271 6.25898C18.6746 6.31802 18.3262 6.39925 17.9839 6.50219C17.1047 6.79429 16.2975 7.26985 15.6159 7.89738L15.2959 8.21098V8.24937C15.0807 8.47495 14.8858 8.7191 14.7135 8.97898L14.6047 9.13258C14.5407 9.23498 14.4767 9.33096 14.4191 9.43336C13.7731 10.5328 13.4784 11.8034 13.5743 13.075C13.6 13.4023 13.6492 13.7275 13.7215 14.0478C13.8033 14.4453 13.9255 14.8335 14.0863 15.2062L14.1823 15.411C14.2271 15.507 14.2655 15.5966 14.3167 15.6926C14.6731 16.3798 15.1525 16.9959 15.7311 17.5102C15.5071 17.5998 15.2831 17.6894 15.0911 17.7918C13.3444 18.5689 11.8074 19.75 10.6068 21.2377C9.40613 22.7254 8.57624 24.4772 8.18552 26.3486C8.08139 26.7522 8.05946 27.1727 8.12103 27.585C8.1826 27.9972 8.3264 28.393 8.54392 28.7486C8.79155 29.1288 9.12497 29.4456 9.51736 29.6735C9.90974 29.9013 10.3502 30.0339 10.8031 30.0606H29.3055C29.7585 30.0339 30.1989 29.9013 30.5913 29.6735C30.9837 29.4456 31.3171 29.1288 31.5647 28.7486C31.7726 28.3889 31.9063 27.9912 31.958 27.579C32.0096 27.1668 31.9782 26.7484 31.8655 26.3486V26.3486ZM15.9935 12.659C15.9952 11.589 16.4201 10.5631 17.1756 9.80523C17.931 9.04742 18.9555 8.61925 20.0255 8.61418C21.0949 8.61926 22.1188 9.04763 22.8732 9.80562C23.6276 10.5636 24.0511 11.5896 24.0511 12.659C24.0528 13.7289 23.6299 14.7558 22.8751 15.5142C22.1203 16.2725 21.0955 16.7004 20.0255 16.7038C18.9594 16.6937 17.9405 16.263 17.1902 15.5056C16.4399 14.7481 16.0191 13.7251 16.0191 12.659H15.9935ZM29.3567 27.379C29.289 27.456 29.2052 27.5172 29.1111 27.5581C29.0171 27.599 28.9152 27.6187 28.8127 27.6158H11.2383C11.1348 27.6192 11.0318 27.5998 10.9367 27.5589C10.8415 27.5179 10.7566 27.4565 10.6879 27.379C10.63 27.3036 10.5896 27.2162 10.5697 27.1232C10.5497 27.0302 10.5508 26.9339 10.5727 26.8414C11.0478 24.6845 12.2385 22.7518 13.9512 21.3575C15.6639 19.9631 17.7979 19.1891 20.0063 19.1614V19.1614C22.2147 19.1891 24.3487 19.9631 26.0615 21.3575C27.7742 22.7518 28.9649 24.6845 29.4399 26.8414C29.4701 26.9298 29.4806 27.0237 29.4707 27.1166C29.4607 27.2094 29.4306 27.299 29.3823 27.379H29.3567Z" fill="white" fill-opacity="0.5"/>
<path d="M16.6978 2.94402C16.3074 2.82473 15.9098 2.73066 15.5074 2.66242L15.0274 2.56641H13.8306H13.7474L13.1906 2.6752C12.7551 2.74288 12.3267 2.84999 11.9106 2.9952C10.5882 3.43007 9.42302 4.24455 8.56035 5.33711C7.69768 6.42967 7.17565 7.752 7.05937 9.13922C6.89538 10.3603 7.05298 11.6031 7.51656 12.7446C7.98014 13.8862 8.73363 14.887 9.70257 15.648L9.52976 15.712C9.21616 15.84 8.88976 15.9552 8.60816 16.1024C6.60751 17.002 4.84932 18.3642 3.47843 20.0767C2.10755 21.7892 1.16327 23.803 0.723395 25.952C0.610165 26.3986 0.586356 26.8632 0.653356 27.319C0.720357 27.7748 0.876835 28.2129 1.11379 28.608C1.38627 29.026 1.7527 29.3745 2.18386 29.6256C2.61503 29.8768 3.09897 30.0236 3.59699 30.0544H5.38257C5.68293 30.0602 5.97575 29.9601 6.20976 29.7717C6.44377 29.5833 6.60405 29.3187 6.66257 29.024C6.69345 28.8461 6.68496 28.6637 6.63769 28.4894C6.59042 28.3152 6.50552 28.1534 6.38898 28.0155C6.27244 27.8776 6.12709 27.7669 5.96316 27.6913C5.79923 27.6156 5.62073 27.5768 5.44019 27.5776H4.10257C3.95384 27.5828 3.80587 27.5544 3.66961 27.4945C3.53334 27.4347 3.41227 27.345 3.31539 27.232C3.22979 27.1232 3.1698 26.9965 3.13988 26.8613C3.10996 26.7262 3.11088 26.586 3.14258 26.4512C3.60824 24.3277 4.66078 22.3777 6.18035 20.823C7.69992 19.2684 9.62547 18.1716 11.7378 17.6576C12.0112 17.5921 12.2541 17.4352 12.4263 17.213C12.5985 16.9907 12.6898 16.7163 12.685 16.4352C12.685 16.064 12.685 15.6928 12.685 15.328C12.6825 15.1057 12.6222 14.8879 12.51 14.696C12.3978 14.5041 12.2375 14.3447 12.045 14.2336C11.2141 13.7836 10.5331 13.1002 10.0861 12.2677C9.63916 11.4352 9.44574 10.49 9.52976 9.54883C9.61827 8.47877 10.0548 7.46712 10.7725 6.66852C11.4902 5.86991 12.4496 5.32827 13.5042 5.12641C14.3611 4.96864 15.2446 5.04154 16.0642 5.33762C16.3085 5.41967 16.5725 5.42236 16.8185 5.34535C17.0645 5.26834 17.2799 5.11557 17.4338 4.90883V4.90883C17.5501 4.75917 17.6294 4.58414 17.6653 4.39801C17.7012 4.21187 17.6926 4.0199 17.6402 3.83773C17.5877 3.65556 17.493 3.48835 17.3637 3.34973C17.2345 3.2111 17.0742 3.10496 16.8962 3.04L16.6978 2.94402Z" fill="white" fill-opacity="0.5"/>
</svg>
