<svg width="32" height="32" viewBox="0 0 32 32" fill="none" xmlns="http://www.w3.org/2000/svg">
<g opacity="0.5">
<path d="M28.0509 25.7537H17.4589C17.1618 25.7537 16.8769 25.6357 16.6669 25.4256C16.4569 25.2156 16.3389 24.9307 16.3389 24.6337C16.3389 24.3366 16.4569 24.0518 16.6669 23.8417C16.8769 23.6317 17.1618 23.5137 17.4589 23.5137H28.0509C28.3479 23.5137 28.6328 23.6317 28.8428 23.8417C29.0529 24.0518 29.1709 24.3366 29.1709 24.6337C29.1692 24.9302 29.0506 25.2141 28.841 25.4238C28.6313 25.6335 28.3474 25.752 28.0509 25.7537V25.7537Z" fill="#4B5768"/>
<path d="M11.6994 25.7537H4.3202C4.02367 25.752 3.73977 25.6335 3.53009 25.4238C3.32041 25.2141 3.20188 24.9302 3.2002 24.6337C3.2002 24.3366 3.31819 24.0518 3.52823 23.8417C3.73827 23.6317 4.02315 23.5137 4.3202 23.5137H11.6994C11.9964 23.5137 12.2813 23.6317 12.4913 23.8417C12.7014 24.0518 12.8194 24.3366 12.8194 24.6337C12.8177 24.9302 12.6992 25.2141 12.4895 25.4238C12.2798 25.6335 11.9959 25.752 11.6994 25.7537Z" fill="#4B5768"/>
<path d="M28.0509 17.0432H24.2557C23.9587 17.0432 23.6738 16.9252 23.4638 16.7152C23.2537 16.5051 23.1357 16.2203 23.1357 15.9232C23.1357 15.6262 23.2537 15.3413 23.4638 15.1313C23.6738 14.9212 23.9587 14.8032 24.2557 14.8032H28.0509C28.348 14.8032 28.6329 14.9212 28.8429 15.1313C29.0529 15.3413 29.1709 15.6262 29.1709 15.9232C29.1709 16.2203 29.0529 16.5051 28.8429 16.7152C28.6329 16.9252 28.348 17.0432 28.0509 17.0432Z" fill="#4B5768"/>
<path d="M18.4962 17.0432H4.3202C4.02315 17.0432 3.73827 16.9252 3.52823 16.7152C3.31819 16.5051 3.2002 16.2203 3.2002 15.9232C3.2002 15.6262 3.31819 15.3413 3.52823 15.1313C3.73827 14.9212 4.02315 14.8032 4.3202 14.8032H18.4962C18.7932 14.8032 19.0781 14.9212 19.2882 15.1313C19.4982 15.3413 19.6162 15.6262 19.6162 15.9232C19.6162 16.2203 19.4982 16.5051 19.2882 16.7152C19.0781 16.9252 18.7932 17.0432 18.4962 17.0432V17.0432Z" fill="#4B5768"/>
<path d="M28.0517 8.32008H14.3749C14.0778 8.32008 13.793 8.20207 13.5829 7.99203C13.3729 7.78199 13.2549 7.49712 13.2549 7.20008C13.2549 6.90304 13.3729 6.61817 13.5829 6.40813C13.793 6.19808 14.0778 6.08008 14.3749 6.08008H28.0517C28.3482 6.08176 28.6321 6.20028 28.8418 6.40996C29.0515 6.61964 29.17 6.90355 29.1717 7.20008C29.1717 7.49712 29.0537 7.78199 28.8436 7.99203C28.6336 8.20207 28.3487 8.32008 28.0517 8.32008Z" fill="#4B5768"/>
<path d="M8.60819 8.32008H4.3202C4.02315 8.32008 3.73827 8.20207 3.52823 7.99203C3.31819 7.78199 3.2002 7.49712 3.2002 7.20008C3.20188 6.90355 3.32041 6.61964 3.53009 6.40996C3.73977 6.20028 4.02367 6.08176 4.3202 6.08008H8.60819C8.90524 6.08008 9.19011 6.19808 9.40015 6.40813C9.61019 6.61817 9.72819 6.90304 9.72819 7.20008C9.72819 7.49712 9.61019 7.78199 9.40015 7.99203C9.19011 8.20207 8.90524 8.32008 8.60819 8.32008V8.32008Z" fill="#4B5768"/>
<path d="M11.4883 11.2002C10.4279 11.1985 9.4115 10.7765 8.66172 10.0268C7.91194 9.27698 7.48997 8.26054 7.48828 7.2002C7.49166 6.14037 7.91417 5.12492 8.66358 4.37551C9.413 3.62609 10.4285 3.20357 11.4883 3.2002C12.5492 3.20188 13.5663 3.62365 14.3171 4.37324C15.0679 5.12284 15.4913 6.13926 15.4947 7.2002C15.493 8.26165 15.0701 9.27902 14.319 10.029C13.5678 10.7789 12.5497 11.2002 11.4883 11.2002ZM11.4883 5.4402C11.022 5.44188 10.5753 5.62784 10.2456 5.95754C9.91594 6.28724 9.72997 6.73393 9.72828 7.2002C9.72828 7.66698 9.91371 8.11462 10.2438 8.44469C10.5738 8.77475 11.0215 8.9602 11.4883 8.9602C11.9557 8.9602 12.404 8.77496 12.7351 8.44508C13.0661 8.1152 13.253 7.66756 13.2547 7.2002C13.253 6.73283 13.0661 6.28515 12.7351 5.95527C12.404 5.62539 11.9557 5.44019 11.4883 5.4402V5.4402Z" fill="#4B5768"/>
<path d="M21.376 19.9233C20.3151 19.9233 19.2977 19.5019 18.5475 18.7517C17.7974 18.0016 17.376 16.9842 17.376 15.9233C17.376 14.8625 17.7974 13.845 18.5475 13.0949C19.2977 12.3448 20.3151 11.9233 21.376 11.9233C22.4368 11.9233 23.4543 12.3448 24.2044 13.0949C24.9545 13.845 25.376 14.8625 25.376 15.9233C25.376 16.9842 24.9545 18.0016 24.2044 18.7517C23.4543 19.5019 22.4368 19.9233 21.376 19.9233V19.9233ZM21.376 14.1633C20.9092 14.1633 20.4615 14.3487 20.1315 14.6788C19.8014 15.0089 19.616 15.4566 19.616 15.9233C19.616 16.3901 19.8014 16.8378 20.1315 17.1678C20.4615 17.4979 20.9092 17.6833 21.376 17.6833C21.8428 17.6833 22.2904 17.4979 22.6205 17.1678C22.9506 16.8378 23.136 16.3901 23.136 15.9233C23.136 15.4566 22.9506 15.0089 22.6205 14.6788C22.2904 14.3487 21.8428 14.1633 21.376 14.1633Z" fill="#4B5768"/>
<path d="M14.5791 28.6334C13.5188 28.6317 12.5023 28.2097 11.7525 27.4599C11.0028 26.7101 10.5808 25.6937 10.5791 24.6334C10.5791 23.5719 11.0003 22.5538 11.7503 21.8027C12.5002 21.0515 13.5176 20.6286 14.5791 20.627C15.64 20.6303 16.6564 21.0537 17.406 21.8045C18.1556 22.5553 18.5774 23.5724 18.5791 24.6334C18.5757 25.6932 18.1532 26.7086 17.4038 27.458C16.6544 28.2075 15.6389 28.63 14.5791 28.6334V28.6334ZM14.5791 22.8734C14.1117 22.8751 13.6641 23.0619 13.3342 23.393C13.0043 23.724 12.8191 24.1724 12.8191 24.6398C12.8191 25.1065 13.0045 25.5542 13.3346 25.8843C13.6647 26.2143 14.1123 26.3998 14.5791 26.3998C15.0454 26.3981 15.492 26.2121 15.8217 25.8824C16.1514 25.5527 16.3374 25.106 16.3391 24.6398C16.3399 24.4078 16.2951 24.1779 16.2071 23.9633C16.1191 23.7486 15.9897 23.5534 15.8263 23.3888C15.6628 23.2242 15.4686 23.0934 15.2546 23.0039C15.0406 22.9143 14.8111 22.8678 14.5791 22.867V22.8734Z" fill="#4B5768"/>
</g>
</svg>
