<svg width="30" height="30" viewBox="0 0 30 30" fill="none" xmlns="http://www.w3.org/2000/svg">
<path d="M15 30C23.2843 30 30 23.2843 30 15C30 6.71573 23.2843 0 15 0C6.71573 0 0 6.71573 0 15C0 23.2843 6.71573 30 15 30Z" fill="#039BE5"/>
<path d="M6.86432 14.6748L21.3268 9.09852C21.9981 8.85602 22.5843 9.26227 22.3668 10.2773L22.3681 10.276L19.9056 21.8773C19.7231 22.6998 19.2343 22.8998 18.5506 22.5123L14.8006 19.7485L12.9918 21.491C12.7918 21.691 12.6231 21.8598 12.2356 21.8598L12.5018 18.0435L19.4518 11.7648C19.7543 11.4985 19.3843 11.3485 18.9856 11.6135L10.3968 17.021L6.69432 15.866C5.89057 15.611 5.87307 15.0623 6.86432 14.6748Z" fill="white"/>
</svg>
