<svg width="32" height="32" viewBox="0 0 32 32" fill="none" xmlns="http://www.w3.org/2000/svg">
<path d="M16 31.5C24.5604 31.5 31.5 24.5604 31.5 16C31.5 7.43959 24.5604 0.5 16 0.5C7.43959 0.5 0.5 7.43959 0.5 16C0.5 24.5604 7.43959 31.5 16 31.5Z" fill="#4D76A1" stroke="white"/>
<path fill-rule="evenodd" clip-rule="evenodd" d="M15.4336 22.579H16.6109C16.6109 22.579 16.9666 22.5399 17.1481 22.3442C17.3152 22.1645 17.3099 21.8271 17.3099 21.8271C17.3099 21.8271 17.2869 20.2473 18.0201 20.0147C18.7428 19.7855 19.6709 21.5415 20.6547 22.2167C21.3985 22.7276 21.9638 22.6156 21.9638 22.6156L24.5941 22.579C24.5941 22.579 25.9701 22.4942 25.3177 21.4123C25.2642 21.3238 24.9377 20.612 23.362 19.1494C21.7127 17.6186 21.9336 17.8662 23.9203 15.2183C25.1302 13.6056 25.6139 12.6211 25.4629 12.1994C25.3187 11.7978 24.4289 11.904 24.4289 11.904L21.4673 11.9224C21.4673 11.9224 21.2477 11.8925 21.0849 11.9898C20.9258 12.0853 20.8234 12.3077 20.8234 12.3077C20.8234 12.3077 20.3547 13.5556 19.7295 14.6169C18.4107 16.8563 17.8834 16.9745 17.6679 16.8354C17.1666 16.5114 17.2917 15.5335 17.2917 14.8388C17.2917 12.6687 17.6209 11.7639 16.6508 11.5296C16.3288 11.4518 16.0919 11.4005 15.2686 11.3922C14.2119 11.3812 13.3175 11.3954 12.8111 11.6435C12.4742 11.8085 12.2143 12.1762 12.3726 12.1973C12.5683 12.2235 13.0116 12.3168 13.2466 12.6369C13.5501 13.0497 13.5394 13.9771 13.5394 13.9771C13.5394 13.9771 13.7138 16.5317 13.1322 16.8491C12.733 17.0667 12.1854 16.6223 11.0097 14.5907C10.4072 13.55 9.95241 12.3997 9.95241 12.3997C9.95241 12.3997 9.86471 12.1847 9.70829 12.0698C9.51844 11.9305 9.25319 11.8861 9.25319 11.8861L6.43892 11.9045C6.43892 11.9045 6.01644 11.9163 5.86136 12.1C5.72338 12.2634 5.85039 12.6013 5.85039 12.6013C5.85039 12.6013 8.05368 17.7561 10.5484 20.3538C12.8359 22.7354 15.4336 22.579 15.4336 22.579Z" fill="white"/>
</svg>
