<svg width="10" height="6" viewBox="0 0 10 6" fill="none" xmlns="http://www.w3.org/2000/svg">
<path d="M9.60142 1.53033C9.89431 1.23744 9.89431 0.762563 9.60142 0.46967C9.30853 0.176777 8.83365 0.176777 8.54076 0.46967L9.60142 1.53033ZM5.03555 5.03555L4.50522 5.56588C4.79811 5.85877 5.27298 5.85877 5.56588 5.56588L5.03555 5.03555ZM1.53033 0.46967C1.23744 0.176777 0.762563 0.176777 0.46967 0.46967C0.176777 0.762563 0.176777 1.23744 0.46967 1.53033L1.53033 0.46967ZM8.54076 0.46967L4.50522 4.50522L5.56588 5.56588L9.60142 1.53033L8.54076 0.46967ZM5.56588 4.50522L1.53033 0.46967L0.46967 1.53033L4.50522 5.56588L5.56588 4.50522Z" fill="#6F6F6F"/>
</svg>
