<svg width="21" height="17" viewBox="0 0 21 17" fill="none" xmlns="http://www.w3.org/2000/svg">
<path fill-rule="evenodd" clip-rule="evenodd" d="M15.8159 3.46257C15.8566 3.5255 15.9277 3.57045 16.0191 3.57045C18.4575 3.57045 20.4489 5.33249 20.4489 7.49009V12.8302C20.4489 14.9878 18.4575 16.7498 16.0191 16.7498H4.55867C2.11011 16.7498 0.128906 14.9878 0.128906 12.8302V7.49009C0.128906 5.33249 2.11011 3.57045 4.55867 3.57045C4.63995 3.57045 4.72123 3.53449 4.75171 3.46257L4.81267 3.35469C4.84769 3.28938 4.88364 3.2223 4.92014 3.15421C5.18005 2.66925 5.46761 2.13272 5.64579 1.8174C6.11315 1.0083 6.90563 0.558795 7.89115 0.549805H12.6765C13.662 0.558795 14.4647 1.0083 14.932 1.8174C15.0921 2.10059 15.3359 2.55676 15.5708 2.99643C15.6193 3.08714 15.6674 3.17715 15.7143 3.26479L15.8159 3.46257ZM15.0741 6.91455C15.0741 7.36405 15.4805 7.72365 15.9885 7.72365C16.4965 7.72365 16.913 7.36405 16.913 6.91455C16.913 6.46505 16.4965 6.09646 15.9885 6.09646C15.4805 6.09646 15.0741 6.46505 15.0741 6.91455ZM8.53127 8.30819C9.00879 7.88566 9.62855 7.66091 10.2889 7.66091C10.9494 7.66091 11.5691 7.88566 12.0365 8.2992C12.5038 8.71274 12.7578 9.26113 12.7578 9.84548C12.7477 11.0501 11.6504 12.0301 10.2889 12.0301C9.62855 12.0301 9.00879 11.8053 8.54143 11.3918C8.07407 10.9782 7.82007 10.4298 7.82007 9.84548V9.83649C7.80991 9.27012 8.06391 8.72173 8.53127 8.30819ZM13.1032 12.3447C12.3818 12.983 11.3861 13.3786 10.2888 13.3786C9.22204 13.3786 8.22636 13.01 7.46436 12.3447C6.71252 11.6705 6.29596 10.7894 6.29596 9.84549C6.2858 8.91053 6.70236 8.02951 7.4542 7.35526C8.2162 6.68101 9.22204 6.31242 10.2888 6.31242C11.3556 6.31242 12.3615 6.68101 13.1133 7.34627C13.8652 8.02052 14.2817 8.91053 14.2817 9.84549C14.2716 10.8254 13.8245 11.7064 13.1032 12.3447Z" fill="#989898"/>
</svg>
