<svg width="20" height="20" viewBox="0 0 20 20" fill="none" xmlns="http://www.w3.org/2000/svg">
<path d="M10.1903 1H10.2704C10.5215 1.05555 10.7456 1.19665 10.9043 1.39911C11.063 1.60157 11.1464 1.85288 11.1403 2.11005V10.77C11.1981 10.725 11.2517 10.6748 11.3004 10.6201L13.2104 8.72003C13.3509 8.57689 13.5272 8.47412 13.721 8.42242C13.9148 8.37073 14.1189 8.37199 14.3121 8.42615C14.5052 8.4803 14.6802 8.58536 14.8189 8.73029C14.9575 8.87521 15.0548 9.05467 15.1003 9.25C15.1494 9.44847 15.1436 9.65658 15.0838 9.85205C15.0239 10.0475 14.9121 10.2231 14.7603 10.36L11.7603 13.36L10.8503 14.27C10.7453 14.3875 10.6166 14.4816 10.4727 14.546C10.3288 14.6103 10.173 14.6436 10.0153 14.6436C9.85772 14.6436 9.70187 14.6103 9.55798 14.546C9.41409 14.4816 9.28541 14.3875 9.18036 14.27L5.25033 10.35C5.09841 10.2093 4.98886 10.029 4.93408 9.82928C4.8793 9.6296 4.88147 9.41855 4.94034 9.22003C4.98657 9.02344 5.08851 8.84434 5.23395 8.70422C5.37939 8.5641 5.56216 8.46893 5.76034 8.43005C5.95485 8.38036 6.15924 8.38482 6.35138 8.44299C6.54352 8.50116 6.71606 8.61078 6.85034 8.76001L8.72034 10.63C8.76251 10.6757 8.79942 10.7261 8.83035 10.78H8.89035V10.59C8.89035 7.88003 8.89035 5.16 8.89035 2.44C8.84426 2.13062 8.91215 1.81506 9.08139 1.552C9.25063 1.28894 9.50968 1.09631 9.81033 1.01001L10.1903 1Z" fill="#989898"/>
<path d="M1 17.6999L1.06 17.55C1.1328 17.3386 1.26669 17.1535 1.4447 17.0182C1.62271 16.883 1.83683 16.8035 2.06 16.79H17.79C18.0622 16.7723 18.3316 16.8537 18.5485 17.0191C18.7653 17.1845 18.9151 17.4228 18.97 17.6899C19.0016 17.8452 19.0001 18.0054 18.9658 18.16C18.9314 18.3147 18.865 18.4604 18.7707 18.5877C18.6764 18.715 18.5564 18.821 18.4184 18.8989C18.2805 18.9768 18.1277 19.0249 17.97 19.04H2.42001C2.11191 19.0856 1.79772 19.0174 1.53632 18.848C1.27492 18.6787 1.08423 18.4198 1 18.12V17.6999Z" fill="#989898"/>
</svg>
