<svg width="24" height="24" viewBox="0 0 24 24" fill="none" xmlns="http://www.w3.org/2000/svg">
<path d="M20.9991 10.0457V20.3159C20.9991 21.5221 20.0985 22.4998 18.9876 22.4998H3.5115C2.4006 22.4998 1.5 21.5221 1.5 20.3159V4.81178C1.5 3.60563 2.4006 2.62793 3.5115 2.62793H13.9528" stroke="#5960C7" stroke-miterlimit="10" stroke-linecap="round"/>
<path d="M21.8333 4.5408L13.4576 13.1538C13.0311 13.5937 11.7549 13.98 10.5407 14.4252C10.0262 14.6139 9.53041 14.1336 9.70291 13.6134C10.1049 12.4006 10.4559 11.0982 10.8822 10.6582L19.2579 2.04525C19.947 1.3341 21.0822 1.31625 21.7934 2.0055C22.5045 2.6946 22.5224 3.82965 21.8333 4.5408Z" stroke="#5960C7" stroke-miterlimit="10" stroke-linecap="round"/>
<path d="M17.8301 3.51855L20.4054 6.0141" stroke="#5960C7" stroke-miterlimit="10" stroke-linecap="round"/>
</svg>
