<svg width="18" height="18" viewBox="0 0 18 18" fill="none" xmlns="http://www.w3.org/2000/svg">
<path d="M12.8633 18C12.4141 17.9956 11.9722 17.8812 11.5738 17.6663L9.31735 16.4283C9.21869 16.378 9.11015 16.3518 9.00016 16.3518C8.89018 16.3518 8.78167 16.378 8.68301 16.4283L6.42653 17.6663C5.97167 17.9141 5.45891 18.0253 4.94623 17.9872C4.43355 17.9492 3.94138 17.7634 3.52531 17.451C3.10672 17.1407 2.78123 16.7145 2.58624 16.2213C2.39124 15.728 2.33468 15.1878 2.42306 14.6628L2.85978 12.0467C2.87526 11.9356 2.86546 11.8222 2.83116 11.7157C2.79686 11.6092 2.73901 11.5124 2.66221 11.4331L0.832073 9.58138C0.463164 9.2118 0.202169 8.74222 0.0789608 8.22629C-0.0442474 7.71035 -0.0247079 7.16893 0.135352 6.66396C0.289411 6.15503 0.580702 5.70224 0.97494 5.35894C1.36918 5.01563 1.84997 4.79612 2.36067 4.72617L4.88753 4.33856C4.9958 4.32385 5.0989 4.28179 5.18776 4.21608C5.27662 4.15037 5.3485 4.06306 5.39705 3.96179L6.53049 1.58258C6.75666 1.10613 7.10768 0.705098 7.54344 0.425273C7.97921 0.145448 8.48221 -0.00186543 8.99499 7.86826e-05C9.50954 -0.00389218 10.0147 0.142509 10.4525 0.422448C10.8903 0.702387 11.2429 1.10448 11.4698 1.58258L12.6033 3.96179C12.6511 4.06364 12.7228 4.15145 12.8118 4.21727C12.9008 4.28308 13.0043 4.32478 13.1128 4.33856L15.6397 4.72617C16.1491 4.79984 16.6281 5.0207 17.0217 5.36347C17.4153 5.70624 17.7076 6.157 17.865 6.66396C18.0226 7.1692 18.0409 7.70995 17.9178 8.22537C17.7947 8.74079 17.5351 9.21037 17.1683 9.58138L15.3381 11.4331C15.2576 11.5096 15.1973 11.6061 15.1628 11.7135C15.1282 11.8208 15.1205 11.9355 15.1405 12.0467L15.5669 14.6628C15.6633 15.1817 15.6169 15.7182 15.433 16.2112C15.2492 16.7042 14.9352 17.1337 14.527 17.451C14.0432 17.8131 13.4603 18.0055 12.8633 18ZM8.99499 2.15319C8.86886 2.1496 8.74446 2.18437 8.63725 2.25326C8.53004 2.32215 8.44472 2.42212 8.39185 2.54073L7.25841 4.90917C7.06173 5.32578 6.76923 5.68601 6.4066 5.95819C6.04397 6.23037 5.62231 6.4062 5.17869 6.47018L2.65183 6.84695C2.52552 6.86661 2.40701 6.92235 2.30964 7.00794C2.21228 7.09352 2.13993 7.20557 2.10071 7.33142C2.06376 7.45518 2.0607 7.58714 2.09191 7.71259C2.12313 7.83804 2.18736 7.95203 2.27746 8.04191L4.10763 9.89362C4.42701 10.2155 4.66586 10.6131 4.80356 11.052C4.94125 11.491 4.97365 11.958 4.89793 12.4127L4.46118 15.018C4.43786 15.1476 4.45096 15.2814 4.49888 15.4035C4.5468 15.5257 4.62755 15.6309 4.73155 15.707C4.83707 15.777 4.95977 15.8143 5.0851 15.8143C5.21044 15.8143 5.33314 15.777 5.43865 15.707L7.70554 14.469C8.10253 14.2566 8.54292 14.1457 8.98979 14.1457C9.43666 14.1457 9.87701 14.2566 10.274 14.469L12.5305 15.707C12.636 15.777 12.7587 15.8143 12.8841 15.8143C13.0094 15.8143 13.1321 15.777 13.2376 15.707C13.3416 15.6309 13.4224 15.5257 13.4703 15.4035C13.5182 15.2814 13.5313 15.1476 13.508 15.018L13.0816 12.4127C13.0041 11.9579 13.0356 11.4904 13.1734 11.0511C13.3112 10.6119 13.5511 10.2145 13.8719 9.89362L15.7021 8.04191C15.7936 7.95307 15.858 7.83853 15.8876 7.71232C15.9171 7.58612 15.9105 7.45377 15.8685 7.33142C15.8334 7.20511 15.7636 7.09204 15.6676 7.00603C15.5716 6.92003 15.4535 6.86478 15.3277 6.84695L12.8009 6.47018C12.3578 6.40441 11.9369 6.22787 11.5746 5.95589C11.2122 5.68391 10.9193 5.32465 10.7211 4.90917L9.5981 2.54073C9.54523 2.42212 9.4599 2.32215 9.3527 2.25326C9.24549 2.18437 9.12112 2.1496 8.99499 2.15319Z" fill="currentColor"/>
</svg>
