<svg width="631" height="520" viewBox="0 0 631 520" fill="none" xmlns="http://www.w3.org/2000/svg">
<g opacity="0.3">
<path d="M196.077 236.376C195.266 236.377 194.463 236.214 193.718 235.895C192.973 235.577 192.3 235.11 191.741 234.523C191.198 233.955 190.772 233.285 190.487 232.553C190.203 231.82 190.066 231.038 190.084 230.253C190.102 229.467 190.274 228.693 190.592 227.974C190.909 227.255 191.366 226.606 191.934 226.063L192.097 225.908C193.252 224.82 194.793 224.234 196.381 224.28C197.969 224.327 199.473 225.001 200.563 226.156C201.653 227.31 202.239 228.849 202.193 230.436C202.146 232.022 201.471 233.525 200.316 234.614L200.2 234.724C199.089 235.784 197.613 236.375 196.077 236.376Z" fill="#197ECA"/>
<path d="M391.712 110.743C390.402 110.745 389.105 110.481 387.901 109.967C386.697 109.452 385.611 108.698 384.708 107.75C383.83 106.832 383.142 105.751 382.682 104.567C382.223 103.384 382.002 102.121 382.031 100.852C382.06 99.5831 382.338 98.3323 382.851 97.171C383.364 96.0096 384.101 94.9606 385.02 94.0837L385.282 93.8342C387.149 92.0754 389.638 91.1295 392.203 91.2043C394.768 91.2792 397.198 92.3687 398.959 94.2334C400.719 96.0982 401.666 98.5852 401.591 101.147C401.516 103.71 400.426 106.137 398.559 107.896L398.372 108.074C396.578 109.786 394.193 110.742 391.712 110.743Z" fill="#197ECA"/>
<path opacity="0.12" d="M9.68344 353.633C8.37376 353.635 7.07734 353.371 5.87322 352.856C4.6691 352.342 3.58246 351.587 2.67967 350.639C1.80192 349.722 1.11375 348.64 0.654394 347.457C0.195043 346.273 -0.0264647 345.011 0.00251742 343.742C0.0314995 342.473 0.310423 341.222 0.823326 340.061C1.33623 338.899 2.07304 337.85 2.99178 336.973L3.25398 336.724C5.12063 334.965 7.61017 334.019 10.175 334.094C12.7398 334.169 15.1699 335.258 16.9306 337.123C18.6911 338.988 19.6381 341.475 19.5632 344.037C19.4882 346.599 18.3976 349.027 16.5311 350.786L16.3438 350.964C14.55 352.676 12.1646 353.632 9.68344 353.633Z" fill="#197ECA"/>
<path opacity="0.3" d="M406.62 285.698C405.31 285.7 404.014 285.436 402.81 284.922C401.606 284.407 400.519 283.653 399.616 282.705C398.738 281.787 398.05 280.706 397.591 279.522C397.132 278.339 396.91 277.076 396.939 275.807C396.968 274.538 397.247 273.287 397.76 272.126C398.273 270.965 399.01 269.916 399.928 269.039L400.191 268.789C402.057 267.03 404.547 266.085 407.112 266.159C409.676 266.234 412.106 267.324 413.867 269.188C415.628 271.053 416.575 273.54 416.5 276.103C416.425 278.665 415.334 281.092 413.468 282.851L413.28 283.029C411.486 284.742 409.101 285.697 406.62 285.698Z" fill="#197ECA"/>
<path d="M62.7854 134.009C61.3509 134.011 59.9311 133.722 58.6123 133.158C57.2935 132.595 56.1033 131.768 55.1146 130.73C54.1532 129.725 53.3995 128.541 52.8964 127.244C52.3933 125.948 52.1507 124.566 52.1824 123.176C52.2142 121.786 52.5197 120.416 53.0814 119.144C53.6432 117.872 54.4502 116.723 55.4564 115.763L55.7436 115.489C57.788 113.563 60.5146 112.527 63.3237 112.609C66.1328 112.691 68.7943 113.884 70.7227 115.927C72.6509 117.969 73.6881 120.693 73.606 123.499C73.524 126.305 72.3294 128.964 70.2852 130.891L70.08 131.085C68.1154 132.961 65.5028 134.008 62.7854 134.009Z" fill="#197ECA"/>
<path d="M206.193 85.6165C203.636 85.621 201.105 85.1053 198.754 84.1006C196.403 83.0958 194.281 81.6231 192.519 79.7724C190.805 77.9806 189.461 75.8693 188.564 73.5586C187.668 71.248 187.235 68.7833 187.292 66.3056C187.348 63.828 187.893 61.386 188.894 59.1187C189.896 56.8513 191.334 54.8031 193.128 53.0912L193.64 52.604C197.284 49.1702 202.145 47.3234 207.152 47.4695C212.16 47.6156 216.904 49.7429 220.342 53.3834C223.779 57.0242 225.628 61.8798 225.482 66.8823C225.335 71.8848 223.206 76.6245 219.562 80.0587L219.196 80.4056C215.694 83.7489 211.037 85.6153 206.193 85.6165Z" fill="#197ECA"/>
<path d="M425.112 47.4612C421.932 47.4668 418.783 46.8253 415.859 45.5755C412.935 44.3257 410.296 42.4937 408.103 40.1918C405.972 37.9628 404.3 35.3366 403.185 32.4624C402.069 29.5882 401.531 26.5223 401.602 23.4404C401.672 20.3585 402.349 17.3209 403.595 14.5005C404.841 11.6801 406.63 9.13238 408.861 7.00289L409.498 6.39689C414.031 2.12552 420.077 -0.171746 426.306 0.0100206C432.535 0.191787 438.437 2.83791 442.713 7.36635C446.988 11.8952 449.288 17.935 449.106 24.1577C448.924 30.3803 446.275 36.2761 441.742 40.5478L441.288 40.9793C436.931 45.1381 431.138 47.4597 425.112 47.4612Z" fill="#197ECA"/>
<path d="M368.374 227.093C366.44 227.096 364.525 226.706 362.747 225.946C360.969 225.185 359.365 224.071 358.032 222.671C356.736 221.315 355.719 219.717 355.041 217.969C354.363 216.22 354.036 214.355 354.078 212.48C354.121 210.605 354.533 208.758 355.29 207.042C356.048 205.326 357.136 203.776 358.493 202.481L358.88 202.112C361.636 199.514 365.312 198.116 369.1 198.227C372.887 198.337 376.475 199.947 379.075 202.702C381.675 205.457 383.073 209.131 382.963 212.917C382.852 216.702 381.242 220.289 378.485 222.887L378.209 223.15C375.56 225.68 372.038 227.092 368.374 227.093Z" fill="#197ECA"/>
<path d="M598.076 365.731C596.454 365.733 594.849 365.406 593.359 364.769C591.868 364.132 590.522 363.198 589.405 362.025C588.318 360.888 587.466 359.549 586.897 358.084C586.328 356.619 586.054 355.056 586.09 353.485C586.126 351.913 586.471 350.365 587.106 348.927C587.741 347.489 588.654 346.19 589.791 345.105L590.116 344.796C592.427 342.618 595.509 341.447 598.685 341.54C601.86 341.632 604.869 342.981 607.049 345.29C609.228 347.599 610.401 350.678 610.308 353.85C610.215 357.023 608.865 360.028 606.554 362.206L606.322 362.426C604.101 364.546 601.148 365.73 598.076 365.731Z" fill="#197ECA"/>
<path d="M308.322 482.058C307.075 482.06 305.84 481.808 304.694 481.318C303.547 480.828 302.512 480.11 301.652 479.207C300.816 478.333 300.161 477.303 299.723 476.176C299.286 475.049 299.075 473.846 299.102 472.638C299.13 471.429 299.396 470.238 299.884 469.132C300.373 468.026 301.074 467.027 301.949 466.192L302.199 465.954C303.977 464.279 306.348 463.378 308.791 463.449C311.233 463.521 313.548 464.558 315.224 466.334C316.901 468.11 317.803 470.479 317.732 472.919C317.66 475.359 316.622 477.671 314.844 479.346L314.666 479.516C312.957 481.147 310.685 482.057 308.322 482.058Z" fill="#197ECA"/>
<path d="M73.0012 443.926C71.0673 443.929 69.1529 443.539 67.3749 442.779C65.5968 442.018 63.9922 440.904 62.6591 439.504C61.363 438.148 60.3468 436.55 59.6685 434.802C58.9902 433.053 58.6631 431.188 58.7059 429.313C58.7487 427.438 59.1605 425.591 59.9179 423.875C60.6753 422.159 61.7633 420.609 63.12 419.314L63.5071 418.945C66.2636 416.347 69.9397 414.949 73.7271 415.06C77.5145 415.17 81.1028 416.78 83.7028 419.535C86.3025 422.29 87.7008 425.964 87.5902 429.75C87.4796 433.535 85.869 437.122 83.1128 439.72L82.8363 439.983C80.1874 442.513 76.665 443.925 73.0012 443.926Z" fill="#197ECA"/>
<path d="M527.741 186.122C526.307 186.125 524.887 185.836 523.568 185.272C522.25 184.708 521.059 183.882 520.071 182.844C519.109 181.839 518.356 180.654 517.852 179.358C517.349 178.062 517.107 176.679 517.138 175.289C517.17 173.9 517.476 172.53 518.037 171.258C518.599 169.986 519.406 168.837 520.412 167.876L520.7 167.603C522.744 165.677 525.471 164.641 528.28 164.723C531.089 164.805 533.75 165.998 535.679 168.04C537.607 170.083 538.644 172.807 538.562 175.613C538.48 178.419 537.285 181.078 535.241 183.005L535.036 183.199C533.071 185.075 530.459 186.122 527.741 186.122Z" fill="#197ECA"/>
</g>
<path d="M513.375 293.132C512.153 293.131 510.936 292.983 509.751 292.69L509.276 292.574C507.402 292.109 505.639 291.286 504.088 290.154C502.538 289.021 501.231 287.601 500.241 285.973C499.251 284.345 498.598 282.543 498.32 280.668C498.041 278.793 498.143 276.883 498.618 275.047C499.093 273.21 499.933 271.484 501.089 269.966C502.246 268.447 503.696 267.167 505.358 266.198C507.019 265.229 508.859 264.59 510.773 264.317C512.686 264.045 514.636 264.144 516.51 264.61L516.957 264.722C520.742 265.661 523.991 268.035 525.99 271.321C527.989 274.607 528.573 278.536 527.615 282.244C526.813 285.351 524.978 288.107 522.4 290.079C519.821 292.05 516.646 293.124 513.375 293.132Z" fill="#5960C7"/>
<path d="M559.211 288.461C557.067 288.459 554.985 287.736 553.292 286.407C551.599 285.077 550.392 283.216 549.859 281.117C549.544 279.874 549.473 278.581 549.652 277.31C549.831 276.04 550.255 274.817 550.901 273.713C551.547 272.608 552.402 271.643 553.417 270.873C554.432 270.103 555.588 269.542 556.817 269.223L557.082 269.154C559.562 268.502 562.197 268.873 564.407 270.185C566.616 271.497 568.22 273.643 568.865 276.15C569.185 277.392 569.259 278.685 569.085 279.956C568.91 281.227 568.489 282.451 567.846 283.558C567.204 284.664 566.352 285.632 565.339 286.406C564.327 287.179 563.173 287.744 561.945 288.067L561.633 288.152C560.842 288.357 560.028 288.461 559.211 288.461Z" fill="#5960C7"/>
<path d="M474.445 264.168C473.039 264.17 471.65 263.867 470.373 263.279C469.097 262.692 467.963 261.834 467.052 260.765L466.827 260.5C466.003 259.528 465.38 258.403 464.991 257.191C464.603 255.978 464.458 254.701 464.564 253.432C464.67 252.164 465.026 250.928 465.61 249.797C466.195 248.665 466.996 247.66 467.97 246.838C468.944 246.016 470.071 245.393 471.285 245.006C472.5 244.619 473.78 244.474 475.051 244.58C476.321 244.687 477.559 245.042 478.692 245.625C479.826 246.209 480.833 247.01 481.656 247.982L481.828 248.182C482.656 249.151 483.285 250.273 483.678 251.484C484.071 252.695 484.222 253.972 484.121 255.241C484.02 256.51 483.67 257.747 483.09 258.881C482.51 260.015 481.712 261.024 480.741 261.85C478.987 263.349 476.754 264.171 474.445 264.168Z" fill="#5960C7"/>
<path d="M598.467 266.036C595.733 266.036 593.089 265.063 591.008 263.293C588.671 261.312 587.217 258.486 586.968 255.436C586.718 252.386 587.692 249.362 589.676 247.029L589.885 246.779C591.862 244.439 594.688 242.979 597.744 242.719C600.799 242.46 603.832 243.422 606.177 245.394C607.338 246.371 608.295 247.567 608.993 248.913C609.692 250.259 610.117 251.729 610.246 253.24C610.375 254.75 610.204 256.271 609.744 257.715C609.284 259.16 608.543 260.5 607.564 261.659L607.303 261.964C606.217 263.245 604.863 264.273 603.337 264.976C601.811 265.68 600.148 266.042 598.467 266.036Z" fill="#5960C7"/>
<path d="M456.599 227.728C452.836 227.724 449.205 226.319 446.393 223.778C443.58 221.238 441.781 217.738 441.336 213.941L441.271 213.375C441.042 211.335 441.21 209.269 441.766 207.294C442.323 205.32 443.256 203.476 444.513 201.868C445.771 200.261 447.327 198.92 449.094 197.924C450.861 196.928 452.804 196.295 454.812 196.062C458.866 195.591 462.938 196.775 466.132 199.355C469.327 201.935 471.383 205.699 471.847 209.819L471.897 210.238C472.38 214.356 471.233 218.5 468.71 221.76C466.186 225.019 462.492 227.126 458.44 227.617C457.829 227.691 457.214 227.728 456.599 227.728Z" fill="#5960C7"/>
<path d="M616.351 226.794C615.773 226.794 615.195 226.76 614.621 226.69C610.815 226.227 607.345 224.244 604.974 221.177C602.604 218.109 601.527 214.208 601.98 210.332L602.027 209.938C602.463 206.061 604.394 202.518 607.395 200.09C610.396 197.662 614.221 196.547 618.03 196.99C619.916 197.21 621.741 197.805 623.401 198.743C625.061 199.681 626.523 200.942 627.704 202.456C628.885 203.969 629.762 205.704 630.285 207.562C630.807 209.421 630.965 211.365 630.75 213.286L630.689 213.817C630.271 217.392 628.581 220.686 625.939 223.077C623.297 225.468 619.886 226.79 616.351 226.794Z" fill="#5960C7"/>
<path d="M462.204 178.678C460.555 178.677 458.922 178.348 457.401 177.711C454.334 176.432 451.9 173.986 450.633 170.91C449.366 167.834 449.371 164.38 450.645 161.307L450.815 160.902C451.453 159.383 452.383 158.005 453.553 156.846C454.722 155.687 456.108 154.77 457.632 154.148C459.155 153.526 460.785 153.211 462.43 153.22C464.075 153.229 465.702 153.563 467.218 154.203C468.735 154.842 470.11 155.774 471.267 156.946C472.423 158.118 473.338 159.506 473.959 161.033C474.58 162.559 474.895 164.193 474.886 165.841C474.876 167.489 474.543 169.119 473.905 170.638L473.772 170.954C472.82 173.242 471.214 175.197 469.156 176.572C467.097 177.946 464.678 178.679 462.204 178.678Z" fill="#5960C7"/>
<path d="M610.811 175.405C609.067 175.406 607.361 174.866 605.911 173.855C604.46 172.844 603.329 171.407 602.66 169.725L602.572 169.506C602.122 168.391 601.886 167.195 601.879 165.986C601.871 164.776 602.092 163.578 602.529 162.457C602.966 161.337 603.609 160.318 604.423 159.457C605.237 158.596 606.206 157.912 607.274 157.442C608.341 156.972 609.487 156.726 610.646 156.718C611.804 156.711 612.953 156.941 614.026 157.397C615.099 157.853 616.076 158.525 616.901 159.374C617.725 160.224 618.381 161.235 618.831 162.349L618.956 162.661C619.401 163.778 619.63 164.975 619.631 166.185C619.632 167.394 619.405 168.592 618.963 169.71C618.52 170.827 617.871 171.843 617.053 172.699C616.234 173.555 615.262 174.234 614.192 174.698C613.121 175.165 611.972 175.405 610.811 175.405Z" fill="#5960C7"/>
<path d="M580.988 141.769C578.987 141.769 577.027 141.198 575.337 140.122L575.084 139.961C572.701 138.46 571.009 136.071 570.38 133.317C569.751 130.563 570.236 127.671 571.728 125.277C572.467 124.091 573.432 123.063 574.567 122.252C575.701 121.441 576.984 120.862 578.341 120.549C579.698 120.236 581.104 120.194 582.477 120.427C583.85 120.66 585.164 121.162 586.344 121.905L586.659 122.101C589.037 123.61 590.721 126.006 591.34 128.762C591.96 131.518 591.465 134.409 589.963 136.799C589.007 138.322 587.682 139.576 586.113 140.446C584.543 141.315 582.78 141.77 580.988 141.769Z" fill="#5960C7"/>
<path d="M491.488 141.768C489.622 141.77 487.787 141.298 486.152 140.395C484.517 139.493 483.136 138.19 482.136 136.607C480.564 134.118 480.041 131.103 480.68 128.225C481.32 125.348 483.071 122.844 485.548 121.264L485.877 121.055C488.359 119.484 491.362 118.967 494.223 119.62C497.084 120.272 499.571 122.04 501.135 124.535C502.699 127.029 503.213 130.046 502.564 132.922C501.915 135.797 500.155 138.295 497.673 139.868L497.409 140.036C495.64 141.169 493.585 141.77 491.488 141.768Z" fill="#5960C7"/>
<path d="M536.853 136.163H536.096C531.488 136.163 527.069 134.341 523.811 131.1C520.553 127.858 518.722 123.462 518.722 118.877C518.722 114.293 520.553 109.896 523.811 106.655C527.069 103.413 531.488 101.592 536.096 101.592H536.903C539.185 101.598 541.443 102.052 543.548 102.927C545.654 103.802 547.565 105.08 549.174 106.69C550.783 108.3 552.057 110.209 552.924 112.309C553.791 114.409 554.234 116.658 554.227 118.928C554.214 123.503 552.377 127.887 549.121 131.117C545.864 134.348 541.452 136.163 536.853 136.163Z" fill="#5960C7"/>
<path d="M412.178 372.139C412.485 371.08 412.919 370.061 413.469 369.107L413.689 368.724C414.563 367.214 415.718 365.891 417.089 364.83C418.46 363.769 420.02 362.991 421.68 362.541C423.34 362.09 425.067 361.976 426.763 362.204C428.459 362.433 430.091 362.999 431.564 363.872C433.038 364.744 434.325 365.906 435.352 367.289C436.379 368.673 437.126 370.252 437.55 371.936C437.975 373.62 438.068 375.376 437.824 377.104C437.581 378.832 437.006 380.499 436.132 382.008L435.924 382.367C434.16 385.415 431.287 387.639 427.935 388.549C424.584 389.459 421.029 388.981 418.053 387.22C415.559 385.746 413.628 383.463 412.564 380.733C411.501 378.002 411.365 374.979 412.178 372.139Z" fill="#5960C7"/>
<path d="M404.741 413.069C405.28 411.21 406.429 409.585 408.006 408.45C409.584 407.315 411.501 406.734 413.455 406.798C414.612 406.836 415.752 407.099 416.809 407.572C417.866 408.046 418.82 408.72 419.616 409.558C420.413 410.395 421.035 411.378 421.449 412.452C421.863 413.526 422.06 414.668 422.028 415.814L422.022 416.062C421.966 418.376 420.984 420.569 419.292 422.157C417.6 423.745 415.336 424.598 413 424.529C411.842 424.495 410.702 424.235 409.643 423.765C408.584 423.295 407.628 422.623 406.83 421.789C406.031 420.954 405.405 419.972 404.988 418.9C404.57 417.828 404.37 416.686 404.398 415.539L404.402 415.248C404.422 414.51 404.536 413.778 404.741 413.069Z" fill="#5960C7"/>
<path d="M447.06 345.63C447.41 344.41 448.021 343.281 448.851 342.321C449.681 341.361 450.709 340.593 451.864 340.071L452.151 339.942C453.201 339.471 454.332 339.212 455.482 339.179C456.631 339.146 457.775 339.34 458.849 339.75C459.923 340.16 460.905 340.778 461.74 341.569C462.575 342.359 463.246 343.307 463.715 344.358C464.184 345.409 464.442 346.542 464.473 347.693C464.505 348.843 464.309 349.989 463.899 351.065C463.488 352.141 462.87 353.125 462.079 353.962C461.289 354.799 460.342 355.472 459.292 355.942L459.075 356.041C458.028 356.517 456.897 356.781 455.748 356.818C454.599 356.856 453.453 356.667 452.378 356.261C451.302 355.855 450.317 355.241 449.479 354.454C448.64 353.667 447.965 352.722 447.492 351.673C446.632 349.776 446.479 347.632 447.06 345.63Z" fill="#5960C7"/>
<path d="M414.353 452.741C415.039 450.37 416.545 448.32 418.603 446.959C420.906 445.428 423.722 444.876 426.43 445.423C429.139 445.971 431.518 447.574 433.044 449.88L433.208 450.124C434.742 452.425 435.3 455.243 434.76 457.958C434.219 460.673 432.624 463.063 430.326 464.603C429.187 465.365 427.91 465.896 426.568 466.164C425.225 466.432 423.843 466.433 422.501 466.166C421.158 465.899 419.882 465.37 418.744 464.609C417.607 463.848 416.63 462.869 415.87 461.729L415.671 461.426C414.832 460.163 414.28 458.731 414.052 457.231C413.824 455.731 413.927 454.198 414.353 452.741Z" fill="#5960C7"/>
<path d="M483.141 339.284C484.088 336.021 486.217 333.224 489.125 331.421C492.034 329.618 495.521 328.935 498.927 329.5L499.433 329.586C501.26 329.898 503.011 330.562 504.584 331.54C506.157 332.517 507.522 333.789 508.602 335.283C509.681 336.776 510.454 338.463 510.875 340.245C511.296 342.027 511.358 343.871 511.057 345.671C510.45 349.306 508.401 352.541 505.363 354.665C502.324 356.79 498.544 357.629 494.854 357L494.478 356.938C490.785 356.324 487.478 354.291 485.283 351.285C483.088 348.279 482.187 344.547 482.776 340.909C482.865 340.36 482.987 339.818 483.141 339.284Z" fill="#5960C7"/>
<path d="M443.91 478.09C444.054 477.589 444.229 477.096 444.434 476.616C445.789 473.43 448.379 470.917 451.634 469.63C454.889 468.342 458.542 468.386 461.791 469.751L462.121 469.89C465.375 471.24 467.964 473.803 469.318 477.015C470.672 480.227 470.68 483.824 469.341 487.016C468.678 488.597 467.704 490.031 466.475 491.236C465.245 492.441 463.784 493.393 462.176 494.038C460.567 494.684 458.842 495.009 457.099 494.997C455.356 494.984 453.63 494.634 452.018 493.966L451.572 493.78C448.577 492.521 446.143 490.229 444.731 487.338C443.319 484.447 443.027 481.157 443.91 478.09Z" fill="#5960C7"/>
<path d="M524.283 356.441C524.697 355.01 525.392 353.677 526.326 352.516C528.204 350.177 530.935 348.678 533.921 348.351C536.907 348.023 539.902 348.892 542.248 350.768L542.557 351.017C543.714 351.951 544.677 353.104 545.389 354.409C546.101 355.714 546.549 357.146 546.707 358.623C546.865 360.1 546.729 361.594 546.309 363.018C545.889 364.442 545.191 365.77 544.257 366.925C543.322 368.08 542.169 369.039 540.862 369.749C539.556 370.459 538.122 370.904 536.642 371.06C535.163 371.216 533.667 371.08 532.239 370.658C530.812 370.237 529.482 369.54 528.324 368.605L528.084 368.411C526.337 367.012 525.044 365.129 524.368 362.998C523.691 360.868 523.662 358.586 524.283 356.441Z" fill="#5960C7"/>
<path d="M489.874 486.165C490.311 484.652 491.206 483.308 492.447 482.303C493.687 481.298 495.218 480.677 496.844 480.519L497.057 480.497C498.136 480.386 499.233 480.482 500.283 480.778C501.334 481.075 502.319 481.567 503.181 482.227C504.043 482.886 504.766 483.7 505.309 484.622C505.851 485.544 506.202 486.555 506.342 487.599C506.482 488.643 506.408 489.699 506.125 490.706C505.841 491.712 505.353 492.651 504.689 493.468C504.024 494.285 503.197 494.963 502.253 495.466C501.309 495.968 500.268 496.283 499.189 496.395L498.887 496.425C497.806 496.53 496.71 496.429 495.661 496.127C494.612 495.825 493.63 495.328 492.771 494.664C491.913 494 491.194 493.182 490.657 492.258C490.12 491.333 489.774 490.32 489.64 489.275C489.503 488.229 489.583 487.172 489.874 486.165Z" fill="#5960C7"/>
<path d="M526.526 468.727C527.027 466.991 528.014 465.434 529.37 464.238L529.574 464.059C531.473 462.368 533.97 461.5 536.516 461.644C539.062 461.788 541.449 462.934 543.152 464.828C543.995 465.767 544.645 466.861 545.065 468.049C545.484 469.236 545.664 470.494 545.596 471.75C545.527 473.006 545.211 474.235 544.665 475.368C544.119 476.501 543.354 477.515 542.413 478.352L542.165 478.576C540.26 480.26 537.759 481.12 535.213 480.967C532.667 480.814 530.284 479.659 528.587 477.758C527.506 476.547 526.75 475.083 526.389 473.504C526.029 471.925 526.076 470.281 526.526 468.727Z" fill="#5960C7"/>
<path d="M548.959 391.093C549.425 389.475 550.295 388.001 551.488 386.809C552.68 385.617 554.157 384.745 555.78 384.275C558.334 383.536 561.08 383.837 563.416 385.113C565.751 386.39 567.484 388.536 568.234 391.081L568.332 391.418C569.073 393.965 568.769 396.699 567.486 399.017C566.203 401.336 564.046 403.05 561.49 403.781C558.934 404.513 556.188 404.202 553.857 402.918C551.525 401.635 549.799 399.482 549.058 396.935L548.978 396.664C548.439 394.845 548.433 392.912 548.959 391.093Z" fill="#5960C7"/>
<path d="M542.451 431.849L542.641 431.193C543.796 427.196 546.483 423.819 550.112 421.805C553.74 419.791 558.013 419.305 561.989 420.455C565.966 421.604 569.321 424.293 571.316 427.932C573.311 431.571 573.783 435.861 572.628 439.858L572.426 440.558C571.848 442.535 570.889 444.38 569.602 445.987C568.316 447.594 566.727 448.932 564.928 449.924C563.128 450.916 561.153 451.542 559.114 451.768C557.075 451.994 555.014 451.814 553.046 451.24C549.081 450.081 545.739 447.389 543.752 443.755C541.766 440.12 541.298 435.838 542.451 431.849Z" fill="#5960C7"/>
<path d="M247.575 289.111H247.389C244.33 289.111 241.396 287.885 239.234 285.702C237.071 283.519 235.856 280.559 235.856 277.472C235.856 274.385 237.071 271.424 239.234 269.242C241.396 267.059 244.33 265.833 247.389 265.833H247.575C250.633 265.833 253.567 267.059 255.73 269.242C257.892 271.424 259.107 274.385 259.107 277.472C259.107 280.559 257.892 283.519 255.73 285.702C253.567 287.885 250.633 289.111 247.575 289.111Z" fill="#5960C7"/>
<path d="M213.767 421.333C213.14 421.331 212.514 421.289 211.893 421.207L211.451 421.146C207.844 420.661 204.58 418.791 202.378 415.946C200.177 413.101 199.217 409.514 199.709 405.975C200.203 402.435 202.109 399.233 205.009 397.073C207.908 394.912 211.564 393.97 215.171 394.454L215.614 394.51C219.221 394.994 222.484 396.863 224.687 399.707C226.89 402.551 227.851 406.138 227.359 409.677C226.912 412.904 225.288 415.862 222.79 418.005C220.291 420.148 217.086 421.33 213.767 421.333Z" fill="#5960C7"/>
<path d="M258.352 425.057C254.293 425.052 250.372 423.569 247.301 420.877C244.229 418.185 242.213 414.463 241.619 410.389C241.293 408.156 241.404 405.88 241.944 403.691C242.485 401.501 243.446 399.441 244.772 397.629C246.097 395.816 247.762 394.287 249.67 393.127C251.578 391.967 253.693 391.2 255.894 390.87L256.385 390.798C260.824 390.117 265.348 391.253 268.962 393.956C272.576 396.659 274.985 400.707 275.659 405.211C276.329 409.716 275.21 414.306 272.546 417.974C269.883 421.641 265.893 424.085 261.455 424.769L260.87 424.857C260.037 424.987 259.195 425.054 258.352 425.057Z" fill="#5960C7"/>
<path d="M302.702 403.641C301.077 403.641 299.488 403.157 298.135 402.249C296.781 401.341 295.724 400.05 295.095 398.538C294.247 396.502 294.235 394.21 295.061 392.165C295.888 390.121 297.485 388.491 299.501 387.635L299.716 387.544C300.714 387.116 301.784 386.891 302.868 386.881C303.951 386.871 305.026 387.076 306.03 387.486C307.035 387.895 307.95 388.5 308.723 389.266C309.496 390.032 310.112 390.945 310.535 391.952C311.39 393.984 311.411 396.276 310.592 398.324C309.773 400.371 308.182 402.006 306.169 402.87L305.903 402.985C304.89 403.418 303.801 403.641 302.702 403.641Z" fill="#5960C7"/>
<path d="M170.939 410.159C168.405 410.158 165.91 409.532 163.672 408.336L163.17 408.057C161.364 407.084 159.767 405.761 158.469 404.165C157.171 402.569 156.198 400.731 155.605 398.756C155.013 396.78 154.813 394.707 155.017 392.653C155.221 390.6 155.824 388.608 156.793 386.79C157.759 384.971 159.072 383.361 160.656 382.054C162.24 380.746 164.064 379.766 166.025 379.17C167.985 378.574 170.043 378.372 172.08 378.578C174.118 378.784 176.095 379.392 177.899 380.369L178.26 380.561C181.914 382.506 184.65 385.833 185.869 389.811C187.087 393.789 186.688 398.092 184.758 401.773C183.433 404.309 181.445 406.43 179.009 407.909C176.573 409.387 173.782 410.165 170.939 410.159Z" fill="#5960C7"/>
<path d="M339.405 384.589C338.08 384.59 336.761 384.405 335.486 384.041C331.881 383.011 328.826 380.6 326.982 377.33C325.137 374.059 324.653 370.194 325.632 366.568C326.495 362.913 328.759 359.745 331.935 357.75C335.111 355.755 338.943 355.093 342.603 355.907C344.432 356.314 346.163 357.078 347.697 358.155C349.231 359.233 350.538 360.602 351.544 362.186C352.55 363.77 353.234 365.536 353.558 367.385C353.882 369.234 353.839 371.129 353.432 372.961C353.34 373.385 353.229 373.809 353.114 374.224C352.264 377.209 350.466 379.836 347.992 381.706C345.519 383.576 342.504 384.589 339.405 384.589Z" fill="#5960C7"/>
<path d="M135.551 378.5C133.733 378.503 131.934 378.134 130.274 377.417C128.614 376.7 127.131 375.652 125.923 374.341L125.603 373.992C124.484 372.768 123.627 371.343 123.08 369.799C122.532 368.255 122.306 366.623 122.413 364.994C122.52 363.366 122.959 361.774 123.705 360.309C124.45 358.845 125.488 357.536 126.758 356.458C129.322 354.281 132.678 353.175 136.088 353.384C139.497 353.593 142.681 355.1 144.939 357.572L145.168 357.82C146.293 359.039 147.158 360.459 147.714 362C148.27 363.54 148.506 365.172 148.408 366.8C148.31 368.429 147.88 370.023 147.143 371.491C146.406 372.96 145.376 374.274 144.112 375.359C141.757 377.386 138.709 378.504 135.551 378.5Z" fill="#5960C7"/>
<path d="M112.216 336.599C110.35 336.599 108.527 336.039 106.987 334.993C105.447 333.947 104.262 332.464 103.588 330.738L103.463 330.418C102.589 328.145 102.661 325.622 103.663 323.401C104.665 321.181 106.514 319.446 108.805 318.578C111.096 317.712 113.641 317.783 115.879 318.776C118.117 319.77 119.866 321.604 120.742 323.876L120.831 324.107C121.719 326.376 121.661 328.902 120.671 331.128C119.681 333.355 117.84 335.1 115.552 335.98C114.488 336.39 113.357 336.599 112.216 336.599Z" fill="#5960C7"/>
<path d="M339.559 337.53C336.229 337.53 333.035 336.227 330.68 333.907C328.326 331.587 327.003 328.44 327.003 325.16V324.76C327.003 321.48 328.326 318.333 330.68 316.013C333.035 313.693 336.229 312.39 339.559 312.39C342.889 312.39 346.082 313.693 348.437 316.013C350.792 318.333 352.115 321.48 352.115 324.76V325.16C352.115 328.44 350.792 331.587 348.437 333.907C346.082 336.227 342.889 337.53 339.559 337.53Z" fill="#5960C7"/>
<path d="M102.254 297.617C98.6712 297.612 95.2213 296.256 92.5908 293.819C89.9603 291.381 88.3419 288.041 88.0576 284.463L88.0162 283.956C87.7295 280.178 88.9521 276.441 91.4151 273.566C93.878 270.691 97.3797 268.914 101.15 268.626C104.921 268.337 108.653 269.562 111.523 272.029C114.393 274.497 116.167 278.006 116.455 281.785L116.488 282.195C116.787 285.972 115.578 289.714 113.124 292.597C110.67 295.481 107.174 297.27 103.404 297.571C103.018 297.603 102.636 297.617 102.254 297.617Z" fill="#5960C7"/>
<path d="M337.887 294.035C336.012 294.038 334.155 293.67 332.423 292.951C330.691 292.232 329.118 291.176 327.794 289.846C325.079 287.292 323.469 283.776 323.307 280.048C323.145 276.32 324.445 272.677 326.929 269.898C328.179 268.499 329.69 267.361 331.379 266.548C333.067 265.735 334.899 265.264 336.769 265.16C338.639 265.056 340.511 265.323 342.279 265.944C344.046 266.566 345.674 267.53 347.07 268.782C347.461 269.137 347.843 269.506 348.206 269.888C349.498 271.246 350.511 272.847 351.186 274.597C351.861 276.347 352.185 278.213 352.141 280.089C352.096 281.965 351.682 283.814 350.924 285.53C350.166 287.246 349.079 288.795 347.723 290.09C345.075 292.626 341.551 294.039 337.887 294.035Z" fill="#5960C7"/>
<path d="M292.885 295.629H292.295C287.44 295.629 282.783 293.716 279.35 290.311C275.917 286.906 273.989 282.287 273.989 277.472C273.989 272.656 275.917 268.038 279.35 264.633C282.783 261.227 287.44 259.314 292.295 259.314H292.885C297.74 259.314 302.396 261.227 305.829 264.633C309.263 268.038 311.191 272.656 311.191 277.472C311.191 282.287 309.263 286.906 305.829 290.311C302.396 293.716 297.74 295.629 292.885 295.629Z" fill="#5960C7"/>
<path d="M104.221 259.315C103.043 259.312 101.868 259.212 100.706 259.015C98.0037 258.552 95.418 257.555 93.0966 256.082C90.7753 254.609 88.7638 252.688 87.177 250.429C85.5902 248.17 84.4591 245.618 83.8486 242.917C83.238 240.216 83.1598 237.421 83.6184 234.689L83.7396 234.009C84.2032 231.278 85.1943 228.667 86.6566 226.324C88.1188 223.981 90.0235 221.952 92.2618 220.352C94.5 218.753 97.0281 217.615 99.7016 217.003C102.375 216.392 105.141 216.318 107.843 216.787C113.297 217.735 118.155 220.832 121.349 225.399C124.543 229.966 125.812 235.628 124.877 241.14L124.776 241.773C123.947 246.677 121.429 251.128 117.668 254.338C113.907 257.548 109.144 259.31 104.221 259.315Z" fill="#5960C7"/>
<path d="M118.118 204.378C116.539 204.377 114.985 203.99 113.591 203.253C111.319 202.057 109.619 200.013 108.864 197.572C108.109 195.13 108.36 192.49 109.563 190.233L109.723 189.922C110.933 187.668 112.994 185.984 115.454 185.241C117.913 184.497 120.569 184.755 122.837 185.957C125.105 187.16 126.8 189.208 127.548 191.652C128.296 194.096 128.037 196.736 126.827 198.99L126.692 199.241C125.869 200.792 124.635 202.089 123.124 202.994C121.613 203.9 119.883 204.378 118.118 204.378Z" fill="#5960C7"/>
<path d="M145.791 173.223C143.861 173.226 141.95 172.836 140.175 172.075C138.401 171.314 136.799 170.199 135.468 168.798C134.174 167.442 133.16 165.843 132.483 164.094C131.806 162.344 131.48 160.478 131.522 158.602C131.565 156.726 131.976 154.877 132.732 153.161C133.488 151.444 134.574 149.893 135.928 148.597L136.315 148.228C139.066 145.628 142.736 144.23 146.516 144.341C150.296 144.451 153.878 146.062 156.473 148.818C159.068 151.575 160.464 155.251 160.354 159.039C160.243 162.826 158.636 166.415 155.885 169.015L155.608 169.278C152.965 171.809 149.449 173.222 145.791 173.223Z" fill="#5960C7"/>
<path d="M183.586 147.578C181.014 147.579 178.501 146.799 176.373 145.339C174.245 143.879 172.601 141.808 171.653 139.392C171.033 137.81 170.727 136.119 170.753 134.418C170.778 132.716 171.136 131.036 171.805 129.474C172.474 127.912 173.44 126.498 174.65 125.313C175.86 124.128 177.288 123.195 178.855 122.568L179.31 122.389C182.481 121.142 186.012 121.219 189.127 122.602C192.241 123.985 194.685 126.561 195.919 129.764C197.153 132.967 197.077 136.533 195.708 139.68C194.339 142.826 191.789 145.294 188.618 146.541L188.308 146.667C186.805 147.268 185.202 147.578 183.586 147.578Z" fill="#5960C7"/>
<path d="M273.743 142.922C272.726 142.923 271.713 142.805 270.723 142.571L270.317 142.471C268.618 142.072 267.014 141.338 265.595 140.311C264.177 139.284 262.971 137.984 262.049 136.485C261.126 134.986 260.504 133.318 260.218 131.576C259.931 129.833 259.987 128.051 260.381 126.33C261.177 122.855 263.302 119.843 266.29 117.956C269.278 116.069 272.883 115.461 276.313 116.267L276.741 116.367C278.439 116.767 280.043 117.503 281.461 118.531C282.879 119.559 284.083 120.86 285.004 122.36C285.926 123.859 286.546 125.528 286.831 127.271C287.116 129.014 287.059 130.797 286.664 132.517C285.985 135.474 284.339 138.112 281.993 140.001C279.647 141.891 276.74 142.92 273.743 142.922Z" fill="#5960C7"/>
<path d="M228.136 142.922C223.639 142.926 219.316 141.2 216.075 138.109C212.834 135.018 210.928 130.802 210.757 126.347C210.581 121.78 212.241 117.332 215.373 113.979C218.505 110.627 222.852 108.645 227.458 108.47H228.074H228.696C233.202 108.467 237.532 110.2 240.774 113.301C244.017 116.403 245.917 120.632 246.076 125.096C246.238 129.663 244.563 134.107 241.421 137.45C238.278 140.793 233.925 142.761 229.319 142.922H228.809C228.584 142.922 228.36 142.922 228.136 142.922Z" fill="#5960C7"/>
<path d="M314.83 162.286C311.875 162.288 308.993 161.364 306.587 159.645L306.38 159.497C303.301 157.298 301.22 153.963 300.594 150.227C299.969 146.49 300.85 142.658 303.044 139.572C305.24 136.488 308.568 134.403 312.297 133.776C316.027 133.149 319.852 134.032 322.932 136.231L323.097 136.346C324.625 137.432 325.924 138.809 326.92 140.399C327.916 141.988 328.59 143.758 328.903 145.609C329.216 147.459 329.162 149.353 328.745 151.182C328.327 153.012 327.554 154.741 326.469 156.271C325.15 158.132 323.405 159.649 321.38 160.696C319.355 161.742 317.109 162.288 314.83 162.286Z" fill="#5960C7"/>
</svg>
