<svg width="21" height="20" viewBox="0 0 21 20" fill="none" xmlns="http://www.w3.org/2000/svg">
<path d="M19.8897 7.74017C19.8897 7.62017 19.8397 7.49017 19.8197 7.37017C19.7673 7.08697 19.7006 6.80664 19.6197 6.53021C19.1987 5.20057 18.3605 4.04194 17.2293 3.22601C16.0982 2.41007 14.7343 1.98023 13.3397 2.00018H11.0397C9.56974 2.00018 8.10973 2.00018 6.64973 2.00018C6.14236 1.99343 5.63587 2.04377 5.13975 2.1502C3.67234 2.45096 2.3563 3.25534 1.41944 4.42413C0.482591 5.59291 -0.0160934 7.05247 0.00974497 8.55016C0.00974497 10.7602 0.00974497 14.3902 0.00974497 16.8702C0.0103024 17.2048 0.0948018 17.5339 0.255534 17.8274C0.416265 18.121 0.648105 18.3695 0.929758 18.5502C1.24845 18.7559 1.62043 18.8637 1.99974 18.8602C2.28921 18.8593 2.57531 18.798 2.83973 18.6802L3.76975 18.2402L6.55973 16.9502C6.64765 16.9102 6.74317 16.8898 6.83973 16.8902H13.2197C13.4597 16.8902 13.6997 16.8902 13.9397 16.8902C15.3179 16.7914 16.6277 16.2519 17.6757 15.3516C18.7237 14.4512 19.4543 13.2377 19.7597 11.8902L19.8797 11.2602C20.0396 10.0925 20.043 8.90872 19.8897 7.74017ZM18.0397 10.1002C18.0397 10.3102 18.0397 10.5102 18.0397 10.7102C18.0273 11.0496 17.9701 11.3858 17.8697 11.7102C17.6026 12.6362 17.0478 13.4531 16.2855 14.0428C15.5233 14.6325 14.5931 14.9642 13.6297 14.9902C12.1497 14.9902 13.9698 14.9902 12.4898 14.9902H6.55973C6.39116 14.9884 6.22415 15.0225 6.06974 15.0902L3.28974 16.4402L2.75974 16.6802C2.67277 16.7292 2.5746 16.7551 2.47474 16.7551C2.37488 16.7551 2.27671 16.7292 2.18974 16.6802C2.10297 16.6266 2.0316 16.5515 1.98252 16.4621C1.93345 16.3727 1.90836 16.2721 1.90974 16.1702V8.62017C1.89587 7.60126 2.22293 6.60694 2.83897 5.79522C3.455 4.9835 4.32466 4.40098 5.30973 4.14019C5.72707 4.02853 6.15775 3.97466 6.58973 3.98016H13.5198C14.2753 3.9617 15.0232 4.13557 15.6931 4.48541C16.363 4.83525 16.9331 5.34958 17.3497 5.98016C17.9842 7.25437 18.2244 8.68876 18.0397 10.1002Z" fill="currentColor"/>
<path d="M5.79017 8.32988C5.60519 8.32611 5.42135 8.35955 5.24955 8.42827C5.07776 8.49698 4.92153 8.59953 4.79017 8.72984C4.65712 8.85965 4.5521 9.01536 4.48158 9.18736C4.41106 9.35935 4.37654 9.54398 4.38017 9.72984C4.3764 9.91483 4.40987 10.0987 4.47859 10.2705C4.5473 10.4423 4.64986 10.5985 4.78016 10.7298C4.91103 10.8615 5.06694 10.9656 5.23869 11.0361C5.41044 11.1065 5.59455 11.1418 5.78016 11.1399C5.96578 11.1418 6.14992 11.1065 6.32167 11.0361C6.49342 10.9656 6.6493 10.8615 6.78016 10.7298C6.91047 10.5985 7.01305 10.4423 7.08177 10.2705C7.15048 10.0987 7.18396 9.91483 7.18019 9.72984C7.18424 9.54572 7.15113 9.36272 7.08284 9.19169C7.01454 9.02066 6.91245 8.86517 6.7827 8.73448C6.65294 8.60379 6.49818 8.50059 6.32765 8.43107C6.15711 8.36156 5.97431 8.32714 5.79017 8.32988Z" fill="currentColor"/>
<path d="M13.4804 8.73997C13.3501 8.87133 13.2475 9.02753 13.1788 9.19932C13.1101 9.37111 13.0766 9.55498 13.0804 9.73997C13.083 10.1025 13.2281 10.4495 13.4845 10.7059C13.7409 10.9622 14.0878 11.1073 14.4504 11.11C14.6353 11.1137 14.8192 11.0803 14.991 11.0116C15.1628 10.9429 15.319 10.8403 15.4504 10.71C15.582 10.5791 15.6861 10.4232 15.7565 10.2514C15.827 10.0797 15.8623 9.89562 15.8604 9.71C15.8647 9.52494 15.8315 9.34092 15.7627 9.16905C15.694 8.99717 15.5911 8.84102 15.4604 8.71C15.1914 8.45619 14.834 8.31731 14.4643 8.32292C14.0945 8.32852 13.7415 8.47813 13.4804 8.73997Z" fill="currentColor"/>
<path d="M10.11 8.32997C9.92489 8.32562 9.74087 8.35881 9.569 8.42756C9.39713 8.49631 9.24097 8.59916 9.10995 8.72993C8.97492 8.85825 8.86858 9.01369 8.79791 9.18605C8.72725 9.3584 8.69386 9.54375 8.69995 9.72993C8.69382 9.91522 8.72619 10.0998 8.79504 10.2719C8.8639 10.4441 8.96772 10.6 9.09995 10.7299C9.23081 10.8616 9.38672 10.9657 9.55847 11.0361C9.73022 11.1066 9.91433 11.1419 10.0999 11.14C10.4741 11.1394 10.8331 10.9922 11.0999 10.7299C11.2303 10.5986 11.3328 10.4424 11.4015 10.2706C11.4702 10.0988 11.5037 9.91492 11.4999 9.72993C11.5026 9.54619 11.4686 9.36378 11.3998 9.19337C11.331 9.02297 11.2289 8.86803 11.0994 8.73762C10.9699 8.60722 10.8157 8.50397 10.6458 8.43397C10.4759 8.36397 10.2937 8.32862 10.11 8.32997Z" fill="currentColor"/>
</svg>
