<svg width="20" height="17" viewBox="0 0 20 17" fill="none" xmlns="http://www.w3.org/2000/svg">
<path d="M19.8798 5.74017C19.8798 5.62017 19.8798 5.49017 19.8098 5.37017C19.7608 5.08712 19.6974 4.80679 19.6198 4.53021C19.1987 3.20057 18.3606 2.04194 17.2294 1.22601C16.0983 0.410074 14.7344 -0.0197728 13.3398 0.000175973H11.0298C9.56981 0.000175973 8.10983 0.000175973 6.63983 0.000175973C6.13579 -0.00615709 5.63263 0.0441829 5.13983 0.1502C3.67147 0.450708 2.35422 1.2547 1.4157 2.42327C0.477191 3.59185 -0.0236315 5.05156 -0.00018945 6.55016C-0.00018945 8.76016 -0.00018945 12.3902 -0.00018945 14.8802C0.000952678 15.2122 0.084747 15.5387 0.243615 15.8303C0.402484 16.1218 0.631431 16.3692 0.909814 16.5502C1.22992 16.7527 1.60099 16.8602 1.97982 16.8602C2.26955 16.8617 2.55616 16.8003 2.81982 16.6802L3.75982 16.2402L6.54983 14.9502C6.63743 14.9093 6.73316 14.8888 6.82983 14.8902H13.1998C13.4398 14.8902 13.6898 14.8902 13.9298 14.8902C15.3067 14.7908 16.615 14.251 17.6613 13.3506C18.7076 12.4501 19.4364 11.2369 19.7398 9.89019C19.7932 9.67686 19.8332 9.46685 19.8598 9.26019C20.023 8.09296 20.0297 6.90917 19.8798 5.74017ZM6.74981 8.68017C6.61895 8.81182 6.46303 8.9159 6.29128 8.98632C6.11953 9.05674 5.93543 9.0921 5.74981 9.0902C5.5642 9.0921 5.38009 9.05674 5.20834 8.98632C5.03659 8.9159 4.88067 8.81182 4.74981 8.68017C4.61816 8.54931 4.51408 8.39342 4.44366 8.22167C4.37324 8.04992 4.33791 7.86578 4.33981 7.68017C4.33847 7.49463 4.37404 7.3107 4.44442 7.13903C4.51481 6.96736 4.61862 6.81137 4.74981 6.68017C4.88117 6.54986 5.0374 6.44731 5.20919 6.37859C5.38098 6.30988 5.56482 6.27644 5.74981 6.28021C5.93056 6.27889 6.10978 6.31333 6.27715 6.38158C6.44453 6.44984 6.59675 6.55056 6.72503 6.67791C6.85331 6.80526 6.95512 6.95672 7.02459 7.12359C7.09406 7.29046 7.12982 7.46944 7.12982 7.6502C7.14279 7.83898 7.11563 8.02833 7.05013 8.20586C6.98464 8.3834 6.88229 8.54505 6.74981 8.68017ZM11.0698 8.68017C10.939 8.81182 10.783 8.9159 10.6113 8.98632C10.4395 9.05674 10.2554 9.0921 10.0698 9.0902C9.8842 9.0921 9.70009 9.05674 9.52834 8.98632C9.35659 8.9159 9.20068 8.81182 9.06982 8.68017C8.93951 8.54881 8.83696 8.39261 8.76824 8.22082C8.69953 8.04903 8.66605 7.86516 8.66982 7.68017C8.66619 7.49431 8.70068 7.30968 8.7712 7.13769C8.84172 6.96569 8.94677 6.80998 9.07983 6.68017C9.21118 6.54986 9.36739 6.44731 9.53918 6.37859C9.71097 6.30988 9.89484 6.27644 10.0798 6.28021C10.4432 6.28021 10.7916 6.42453 11.0485 6.68145C11.3055 6.93837 11.4498 7.28685 11.4498 7.6502C11.4667 7.83681 11.4443 8.02485 11.384 8.20226C11.3237 8.37968 11.2269 8.5425 11.0998 8.68017H11.0698ZM15.4298 8.68017C15.2984 8.81048 15.1422 8.91303 14.9705 8.98174C14.7987 9.05046 14.6148 9.08396 14.4298 9.08019C14.0663 9.07762 13.7183 8.93278 13.4604 8.67669C13.2024 8.4206 13.055 8.07365 13.0498 7.7102C13.0461 7.52521 13.0795 7.34134 13.1482 7.16955C13.2169 6.99776 13.3195 6.84155 13.4498 6.7102C13.7158 6.44639 14.0752 6.29833 14.4498 6.29833C14.8244 6.29833 15.1839 6.44639 15.4498 6.7102C15.5825 6.83977 15.6867 6.99568 15.7556 7.1679C15.8245 7.34012 15.8566 7.52484 15.8498 7.7102C15.8506 7.89359 15.8137 8.0752 15.7415 8.24377C15.6692 8.41234 15.5631 8.56427 15.4298 8.69018V8.68017Z" fill="currentColor"/>
</svg>
