<svg width="32" height="32" viewBox="0 0 32 32" fill="none" xmlns="http://www.w3.org/2000/svg">
<path d="M8.07038 23.885V6.27221C8.0572 6.12834 8.07368 5.98329 8.1188 5.84604C8.16392 5.70879 8.23673 5.58226 8.33272 5.47428C8.4287 5.3663 8.54582 5.27917 8.67683 5.21826C8.80784 5.15736 8.94996 5.12399 9.09439 5.12022C9.35242 5.10842 9.60546 5.19396 9.80341 5.3599C10.0014 5.52585 10.1298 5.7601 10.1632 6.01623C10.1727 6.14619 10.1727 6.27667 10.1632 6.40662V23.8786L10.4 23.661L12.5632 21.4978C12.7001 21.3521 12.8773 21.2504 13.0723 21.206C13.2672 21.1615 13.471 21.1762 13.6576 21.2482C13.844 21.305 14.0095 21.4153 14.1336 21.5656C14.2576 21.7158 14.3347 21.8993 14.3552 22.093C14.3821 22.2531 14.3694 22.4173 14.318 22.5713C14.2667 22.7253 14.1784 22.8643 14.0608 22.9762L9.84958 27.1874C9.7537 27.2911 9.63741 27.3739 9.50799 27.4305C9.37857 27.4871 9.23884 27.5164 9.09758 27.5164C8.95632 27.5164 8.8166 27.4871 8.68718 27.4305C8.55776 27.3739 8.44146 27.2911 8.34558 27.1874L4.18558 23.0274C4.08216 22.9293 3.99981 22.8112 3.94353 22.6803C3.88725 22.5494 3.85822 22.4083 3.85822 22.2658C3.85822 22.1233 3.88725 21.9823 3.94353 21.8513C3.99981 21.7204 4.08216 21.6023 4.18558 21.5042C4.28711 21.4044 4.40777 21.3263 4.54029 21.2743C4.67281 21.2224 4.81445 21.1978 4.95673 21.2019C5.09901 21.2061 5.23897 21.239 5.36821 21.2987C5.49744 21.3583 5.61329 21.4435 5.70878 21.549L7.85918 23.6994L8.07038 23.885Z" fill="#5960C7"/>
<path d="M20.6976 9.68277H15.4624C15.3019 9.68896 15.1422 9.658 14.9956 9.59234C14.8491 9.52668 14.7197 9.42808 14.6175 9.30421C14.5153 9.18034 14.4431 9.03455 14.4064 8.8782C14.3698 8.72184 14.3698 8.55913 14.4064 8.40277C14.4472 8.21138 14.5437 8.03634 14.6838 7.89968C14.8239 7.76302 15.0012 7.67085 15.1936 7.63476C15.3303 7.60584 15.4699 7.59296 15.6096 7.59636H26.9888C27.168 7.59156 27.347 7.61311 27.52 7.66034C27.7562 7.74064 27.9558 7.90297 28.0827 8.11784C28.2095 8.33272 28.2551 8.58594 28.2112 8.83156C28.169 9.06876 28.047 9.28444 27.8654 9.44277C27.6838 9.60109 27.4535 9.69252 27.2128 9.70195C26.752 9.70195 26.2912 9.70195 25.824 9.70195L20.6976 9.68277Z" fill="#5960C7"/>
<path d="M20.6848 14.541H15.4752C15.31 14.5496 15.145 14.519 14.9938 14.4517C14.8426 14.3845 14.7095 14.2824 14.6053 14.1538C14.5011 14.0253 14.4287 13.8739 14.3942 13.7121C14.3596 13.5502 14.3638 13.3825 14.4064 13.2226C14.4612 13.0141 14.5792 12.8278 14.7443 12.6891C14.9093 12.5504 15.1132 12.4663 15.328 12.4482H27.0016C27.1566 12.4406 27.3118 12.4557 27.4624 12.493C27.7078 12.5581 27.9203 12.7119 28.0587 12.9248C28.1971 13.1377 28.2514 13.3943 28.2112 13.645C28.1828 13.8928 28.0639 14.1213 27.8772 14.2867C27.6906 14.452 27.4494 14.5426 27.2 14.541C25.8048 14.541 23.2128 14.541 21.824 14.541H20.6848Z" fill="#5960C7"/>
<path d="M19.1296 17.293H22.7904C23.0356 17.2921 23.2732 17.3775 23.4616 17.5343C23.65 17.6912 23.7772 17.9093 23.8208 18.1506C23.8685 18.3956 23.8261 18.6497 23.7015 18.866C23.5768 19.0824 23.3783 19.2465 23.1424 19.3282C23.0019 19.3743 22.8551 19.3981 22.7072 19.3986H15.4944C15.2198 19.4147 14.9495 19.3237 14.7406 19.1446C14.5317 18.9656 14.4005 18.7125 14.3744 18.4386C14.353 18.1819 14.4255 17.9261 14.5786 17.7189C14.7316 17.5117 14.9547 17.3671 15.2064 17.3122C15.3214 17.3024 15.437 17.3024 15.552 17.3122L19.1296 17.293Z" fill="#5960C7"/>
</svg>
