<svg width="32" height="32" viewBox="0 0 32 32" fill="none" xmlns="http://www.w3.org/2000/svg">
<path d="M23.7699 15.5838C23.7699 12.2942 23.7699 9.00465 23.7699 5.71505C23.7727 5.4179 23.7405 5.12144 23.6739 4.83185C23.4948 3.99959 23.0328 3.25513 22.3664 2.72532C21.7001 2.19552 20.8707 1.91314 20.0195 1.92626H5.04986C4.26414 1.91361 3.49473 2.15104 2.85279 2.60431C2.21086 3.05757 1.72965 3.70319 1.47867 4.44786C1.34934 4.80277 1.28222 5.17732 1.28027 5.55505V22.5343V22.6367C1.32838 22.8136 1.41302 22.9785 1.52877 23.1207C1.64452 23.2629 1.78878 23.3792 1.95227 23.4622C2.10372 23.5359 2.27028 23.5732 2.43867 23.5711C2.57676 23.5716 2.71365 23.5455 2.84187 23.4943C3.07491 23.3913 3.29076 23.2531 3.48187 23.0847C4.92827 21.8879 6.38107 20.6782 7.82107 19.4686C7.85223 19.4385 7.8895 19.4155 7.93037 19.4012C7.97124 19.3868 8.01474 19.3814 8.05787 19.3854H19.9427C20.4483 19.405 20.9526 19.3203 21.4241 19.1365C21.8956 18.9528 22.3242 18.6739 22.6833 18.3172C23.0423 17.9606 23.3241 17.5339 23.511 17.0636C23.6979 16.5933 23.7861 16.0896 23.7699 15.5838ZM21.3763 5.86864V15.4686C21.4056 15.6747 21.3869 15.8847 21.3217 16.0823C21.2565 16.2799 21.1465 16.4598 21.0003 16.6079C20.854 16.7559 20.6756 16.8682 20.4788 16.9359C20.282 17.0037 20.0722 17.025 19.8659 16.9983H7.74426C7.30194 16.989 6.87238 17.1467 6.54107 17.4399L4.19227 19.3983L3.67387 19.8334V5.84306C3.64633 5.63512 3.66715 5.42363 3.73471 5.22505C3.80226 5.02647 3.91473 4.84614 4.06336 4.69814C4.21199 4.55013 4.39276 4.43842 4.59162 4.37169C4.79048 4.30497 5.00204 4.28505 5.20986 4.31345H19.8339C20.0446 4.28301 20.2596 4.30237 20.4615 4.36997C20.6634 4.43757 20.8467 4.55152 20.9966 4.70271C21.1466 4.8539 21.259 5.03813 21.3249 5.2406C21.3909 5.44307 21.4084 5.65816 21.3763 5.86864V5.86864Z" fill="white" fill-opacity="0.5"/>
<path d="M30.7139 14.1311C30.7139 13.9967 30.7139 13.8559 30.7139 13.7151C30.6606 12.8013 30.2634 11.9415 29.602 11.3087C28.9407 10.6759 28.0643 10.3169 27.1491 10.3039V10.3039C26.9944 10.2987 26.8402 10.3241 26.6954 10.3786C26.5506 10.4331 26.4179 10.5156 26.305 10.6214C26.192 10.7272 26.1011 10.8543 26.0372 10.9952C25.9734 11.1362 25.938 11.2884 25.9331 11.4431C25.9276 11.7486 26.0404 12.0444 26.2479 12.2686C26.4555 12.4928 26.7417 12.6282 27.0467 12.6463C27.2333 12.6373 27.4197 12.6694 27.5927 12.7401C27.7657 12.8109 27.9211 12.9187 28.048 13.0559C28.1749 13.1931 28.2702 13.3565 28.3271 13.5345C28.3841 13.7125 28.4014 13.9009 28.3779 14.0863V26.9631L28.1347 26.7711C27.5715 26.3231 27.0019 25.8687 26.4451 25.4143C26.0925 25.1048 25.6336 24.9442 25.1651 24.9663H14.1635C13.9753 24.9851 13.7853 24.962 13.6071 24.8986C13.429 24.8353 13.2671 24.7332 13.1331 24.5998C12.999 24.4664 12.8962 24.3049 12.8321 24.1271C12.7679 23.9492 12.7439 23.7593 12.7619 23.5711V23.3407C12.7715 23.1573 12.7715 22.9736 12.7619 22.7903C12.7396 22.4998 12.6099 22.228 12.3981 22.028C12.1863 21.8281 11.9075 21.7142 11.6163 21.7087V21.7087C11.3249 21.6997 11.0414 21.8041 10.8254 21.9998C10.6093 22.1956 10.4776 22.4674 10.4579 22.7583C10.4206 23.3337 10.4507 23.9115 10.5475 24.4799C10.7206 25.2974 11.1744 26.0285 11.8303 26.5464C12.4861 27.0642 13.3025 27.3362 14.1379 27.3151H24.9539C25.0293 27.3189 25.1024 27.3433 25.1651 27.3855C25.8051 27.8847 26.4451 28.3839 27.0467 28.8895L28.5891 30.1183C28.7324 30.2233 28.882 30.3194 29.0371 30.4063C29.3015 30.5549 29.6115 30.6005 29.9075 30.5343C30.1898 30.4347 30.4283 30.2393 30.5815 29.982C30.7347 29.7248 30.7928 29.422 30.7459 29.1263C30.7459 25.2863 30.7459 21.4612 30.7459 17.6511L30.7139 14.1311Z" fill="white" fill-opacity="0.5"/>
<path d="M13.1269 11.5454H8.58926C7.90354 11.5454 7.34766 12.0999 7.34766 12.7838C7.34766 13.4678 7.90354 14.0222 8.58926 14.0222H13.1269C13.8126 14.0222 14.3685 13.4678 14.3685 12.7838C14.3685 12.0999 13.8126 11.5454 13.1269 11.5454Z" fill="white" fill-opacity="0.5"/>
<path d="M16.4677 7.30225H8.58926C7.90354 7.30225 7.34766 7.8567 7.34766 8.54065C7.34766 9.2246 7.90354 9.77905 8.58926 9.77905H16.4677C17.1534 9.77905 17.7093 9.2246 17.7093 8.54065C17.7093 7.8567 17.1534 7.30225 16.4677 7.30225Z" fill="white" fill-opacity="0.5"/>
</svg>
