<svg width="32" height="32" viewBox="0 0 32 32" fill="none" xmlns="http://www.w3.org/2000/svg">
<path d="M31.7244 14.6942C31.5744 14.1516 31.2669 13.6657 30.8409 13.2978C30.4149 12.9299 29.8894 12.6965 29.3308 12.627C27.9292 12.3966 26.5148 12.2046 25.1964 12.0254C25.0104 12.0066 24.8331 11.937 24.6841 11.8241C24.5351 11.7112 24.42 11.5594 24.3516 11.3854C23.9868 10.643 23.622 9.90057 23.2508 9.15817L23.206 9.0622L22.6108 7.85899C22.381 7.32104 21.9956 6.86415 21.504 6.54708C21.0124 6.23001 20.4372 6.06725 19.8524 6.07977C19.2685 6.07173 18.6954 6.23793 18.2063 6.55712C17.7173 6.87631 17.3345 7.33403 17.1068 7.87181C16.7804 8.51181 16.4668 9.15177 16.134 9.83657L15.3276 11.4622C15.2655 11.6115 15.1644 11.7413 15.0349 11.8381C14.9054 11.9349 14.7523 11.9952 14.5916 12.0126L12.9596 12.243L11.0012 12.5246C10.2923 12.5654 9.60826 12.8001 9.02358 13.203C8.68192 13.4611 8.4007 13.7908 8.19952 14.1688C7.99835 14.5468 7.88206 14.9642 7.85878 15.3918C7.8357 15.8264 7.90602 16.2609 8.06499 16.6661C8.22396 17.0713 8.4679 17.4376 8.78038 17.7406C9.78518 18.7326 10.79 19.7054 11.7372 20.6206C11.8561 20.7234 11.9463 20.8552 11.999 21.0033C12.0518 21.1514 12.0652 21.3106 12.038 21.4654C11.9676 21.8942 11.8908 22.3166 11.8204 22.7454V22.8286C11.7564 23.2254 11.686 23.6222 11.6156 24.019L11.3852 25.4334L11.3212 26.2654C11.3248 26.3857 11.3376 26.5055 11.3596 26.6238C11.4427 27.0855 11.6331 27.5212 11.9155 27.8958C12.1979 28.2705 12.5643 28.5735 12.9852 28.7806C13.4246 28.9851 13.9058 29.0841 14.3902 29.0696C14.8747 29.0552 15.3491 28.9277 15.7756 28.6974L16.2428 28.4542C17.2476 27.9358 18.278 27.3982 19.2892 26.8542C19.4573 26.7464 19.6527 26.6891 19.8524 26.6891C20.0521 26.6891 20.2475 26.7464 20.4156 26.8542C21.8684 27.6414 22.9756 28.2238 24.0508 28.7742C24.4813 29.0005 24.9596 29.1212 25.446 29.1262C26.0729 29.1184 26.6808 28.9098 27.1804 28.531C27.6357 28.2242 27.9919 27.7916 28.2055 27.2859C28.4191 26.7802 28.481 26.2232 28.3836 25.683C28.1852 24.3454 27.9612 23.0078 27.7436 21.715V21.5678C27.6987 21.3906 27.7042 21.2044 27.7596 21.0302C27.8151 20.856 27.9181 20.7008 28.0572 20.5822C28.2172 20.4414 28.3708 20.2878 28.5244 20.1406L28.71 19.9614L29.4076 19.3214C29.926 18.8286 30.4636 18.3166 30.982 17.8046C31.3999 17.418 31.6936 16.916 31.8258 16.3622C31.958 15.8084 31.9227 15.2279 31.7244 14.6942V14.6942ZM25.6188 22.2142C25.8044 23.1294 25.958 24.0638 26.1052 24.9726C26.1628 25.3118 26.214 25.6574 26.2716 25.9966C26.2933 26.114 26.2897 26.2347 26.261 26.3506C26.2323 26.4664 26.1792 26.5749 26.1052 26.6686C26.0256 26.7628 25.9279 26.8402 25.8181 26.8962C25.7082 26.9523 25.5882 26.9858 25.4652 26.995L25.3244 26.9502C25.2075 26.9213 25.0938 26.8806 24.9852 26.8286L24.8892 26.7774C23.75 26.1886 22.566 25.5742 21.414 24.9534C20.9379 24.6883 20.4036 24.5454 19.8588 24.5374C19.3226 24.5436 18.7967 24.6845 18.3292 24.947L16.2364 26.035C15.7436 26.2846 15.2572 26.5406 14.7708 26.7966C14.6303 26.8926 14.4641 26.944 14.294 26.944C14.1238 26.944 13.9577 26.8926 13.8172 26.7966C13.6744 26.6955 13.5667 26.5524 13.5093 26.3871C13.452 26.2219 13.4477 26.0428 13.4972 25.875C13.7212 24.595 13.9772 23.1422 14.2012 21.683C14.2749 21.2143 14.2304 20.7347 14.0717 20.2877C13.913 19.8406 13.6451 19.4402 13.2924 19.123C12.3772 18.2398 11.4684 17.3758 10.3868 16.3518C10.2453 16.2485 10.1401 16.1031 10.0861 15.9365C10.0321 15.7699 10.0321 15.5905 10.086 15.4238C10.1368 15.2525 10.2415 15.1022 10.3844 14.995C10.5273 14.8878 10.7009 14.8295 10.8796 14.8286C12.5564 14.5918 13.83 14.3998 15.014 14.1886C15.4896 14.1241 15.9412 13.9408 16.3271 13.6555C16.713 13.3703 17.0208 12.9923 17.222 12.5566C17.5868 11.827 17.9516 11.091 18.31 10.355L19.0588 8.84458C19.1378 8.64421 19.2908 8.48193 19.4863 8.39138C19.6817 8.30082 19.9044 8.28891 20.1084 8.35817C20.226 8.39992 20.3335 8.46596 20.4239 8.55196C20.5143 8.63797 20.5856 8.74203 20.6332 8.85739C20.8252 9.24779 21.0172 9.6382 21.2156 10.0222C21.574 10.739 21.9388 11.475 22.2844 12.2174C22.5184 12.7636 22.8973 13.2353 23.3801 13.5816C23.8629 13.928 24.4312 14.1356 25.0236 14.1822C25.894 14.291 26.7836 14.4254 27.6476 14.5534L28.966 14.7518C29.1283 14.7609 29.2836 14.8207 29.4099 14.923C29.5363 15.0252 29.6273 15.1646 29.67 15.3214C29.7241 15.4743 29.7304 15.6401 29.6881 15.7966C29.6458 15.9532 29.5569 16.0933 29.4332 16.1982C29.1452 16.4734 28.8636 16.755 28.5628 17.0558C27.9548 17.6574 27.3276 18.2782 26.6876 18.8606C26.2127 19.2658 25.8609 19.796 25.6719 20.391C25.483 20.986 25.4646 21.6221 25.6188 22.227V22.2142Z" fill="white" fill-opacity="0.5"/>
<path d="M8.39689 20.0767L7.63528 20.4736L6.28487 21.1776C6.17352 21.2622 6.03754 21.308 5.89769 21.308C5.75784 21.308 5.62183 21.2622 5.51048 21.1776C5.41809 21.1018 5.34874 21.0017 5.31028 20.8886C5.27183 20.7755 5.26581 20.6539 5.29288 20.5376C5.49128 19.4048 5.72168 18.0608 5.93288 16.736C6.00937 16.2942 5.97193 15.8401 5.82411 15.4168C5.67629 14.9935 5.42296 14.6149 5.08808 14.3167C4.21128 13.4655 3.31529 12.6144 2.47689 11.8208C2.36408 11.7423 2.27951 11.6296 2.23571 11.4994C2.19192 11.3691 2.19121 11.2282 2.23368 11.0976C2.29768 10.9056 2.41928 10.7007 2.87368 10.6367C4.36488 10.4255 5.51047 10.2591 6.58567 10.0863C7.03015 10.0256 7.4523 9.85437 7.81345 9.58826C8.1746 9.32215 8.46322 8.96968 8.65288 8.56314L9.61288 6.64314L9.73448 6.39994L10.2977 5.24795C10.3555 5.08844 10.4742 4.95839 10.6278 4.88639C10.7814 4.81438 10.9573 4.80632 11.1169 4.86396C11.2095 4.89716 11.2939 4.94972 11.3645 5.01814C11.4351 5.08657 11.4904 5.16929 11.5265 5.26076L11.9873 6.19514L12.0641 6.33596C12.1857 6.59196 12.3137 6.84796 12.4417 7.09756C12.5098 7.23918 12.6081 7.36414 12.7298 7.46365C12.8514 7.56317 12.9934 7.63485 13.1457 7.67357C13.2982 7.71184 13.4572 7.71678 13.6118 7.68807C13.7664 7.65935 13.913 7.59765 14.0417 7.50717C14.2545 7.36025 14.4072 7.14156 14.4718 6.89119C14.5365 6.64082 14.5087 6.37554 14.3937 6.14396L14.0353 5.41436C13.8433 5.03036 13.6513 4.64636 13.4657 4.26236C13.2251 3.77586 12.8543 3.36567 12.3944 3.07752C11.9345 2.78937 11.4036 2.63459 10.8609 2.63037V2.63037C10.3266 2.63204 9.80461 2.79063 9.35972 3.08646C8.91483 3.3823 8.56665 3.80232 8.35847 4.29436C8.07687 4.86396 7.79527 5.42714 7.52007 5.99674L7.47528 6.07994L6.76487 7.51994C6.7167 7.63992 6.63613 7.74415 6.53216 7.821C6.42819 7.89784 6.30492 7.94428 6.17609 7.95514L4.71048 8.16635H4.61448L2.95689 8.40314C2.3 8.4465 1.66726 8.66773 1.12648 9.04314C0.81102 9.28854 0.551013 9.59789 0.363507 9.95084C0.176002 10.3038 0.0652264 10.6924 0.0384682 11.0912C0.018949 11.4974 0.0858751 11.9031 0.234816 12.2815C0.383757 12.6599 0.611324 13.0024 0.902472 13.2863C1.77927 14.1567 2.69448 15.0335 3.55208 15.8463C3.64651 15.9365 3.71745 16.0483 3.75872 16.1721C3.8 16.296 3.81036 16.428 3.78888 16.5567C3.72488 16.9407 3.66088 17.3248 3.59048 17.7088C3.53288 18.0672 3.46888 18.4192 3.41128 18.7776C3.23848 19.776 3.16169 20.5376 3.13609 20.8128C3.13635 20.9269 3.14922 21.0407 3.17448 21.152C3.2538 21.5834 3.43282 21.9904 3.69728 22.3404C3.96173 22.6904 4.30431 22.9738 4.69769 23.1679C5.07132 23.3464 5.48041 23.4383 5.89448 23.4367C6.39207 23.4334 6.88154 23.3105 7.32167 23.0783C8.02567 22.7135 8.72968 22.3488 9.42728 21.9776C9.56278 21.9065 9.68111 21.8067 9.77398 21.6851C9.86684 21.5634 9.932 21.423 9.96487 21.2736C9.99703 21.1218 9.99596 20.9648 9.96171 20.8134C9.92746 20.6621 9.86086 20.5199 9.76648 20.3967C9.61643 20.1856 9.39444 20.0366 9.14222 19.9777C8.89 19.9187 8.62495 19.954 8.39689 20.0767V20.0767Z" fill="white" fill-opacity="0.5"/>
</svg>
