<svg width="32" height="32" viewBox="0 0 32 32" fill="none" xmlns="http://www.w3.org/2000/svg">
<path d="M32.0162 20.3583C31.8945 21.17 31.8134 21.9818 31.6512 22.7935C31.2483 24.7248 30.4772 26.5602 29.3799 28.1994C29.2229 28.455 28.9765 28.643 28.6887 28.727C28.4009 28.811 28.0921 28.785 27.8224 28.654C26.9464 28.2563 26.0784 27.8423 25.2267 27.4121C25.0815 27.3445 24.9513 27.2483 24.844 27.1293C24.7368 27.0103 24.6546 26.8708 24.6023 26.7193C24.5501 26.5678 24.5289 26.4073 24.54 26.2474C24.5511 26.0875 24.5943 25.9315 24.667 25.7887C24.7349 25.6435 24.8308 25.5131 24.9492 25.4051C25.0676 25.2971 25.2061 25.2136 25.3568 25.1593C25.5076 25.105 25.6675 25.081 25.8276 25.0887C25.9876 25.0964 26.1445 25.1357 26.2893 25.2043C26.5651 25.3179 26.8247 25.4559 27.1005 25.5776L27.9522 25.9835C28.301 25.1718 28.6904 24.36 28.9581 23.5483C29.9502 20.5069 29.7856 17.2061 28.4957 14.2787C28.4036 14.1085 28.3481 13.9209 28.3328 13.728C28.3174 13.5351 28.3425 13.3411 28.4065 13.1585C28.4929 12.9331 28.6451 12.739 28.8433 12.6014C29.0415 12.4639 29.2766 12.3893 29.5178 12.3874C29.7749 12.3738 30.0292 12.4462 30.2407 12.5931C30.4522 12.7401 30.6088 12.9532 30.6859 13.1991C31.0104 14.0919 31.3592 14.993 31.5944 15.9183C31.7652 16.7229 31.8952 17.5357 31.9838 18.3534C31.9838 18.4427 32.0243 18.532 32.0405 18.6131L32.0162 20.3583Z" fill="white" fill-opacity="0.5"/>
<path d="M5.05251 12.639C5.596 12.9069 6.15571 13.1585 6.67486 13.4507C6.84507 13.5238 6.99637 13.6347 7.11722 13.7752C7.23807 13.9156 7.32529 14.0818 7.37223 14.2611C7.41918 14.4404 7.4246 14.628 7.38809 14.8097C7.35158 14.9914 7.27411 15.1624 7.16157 15.3096C6.99095 15.5355 6.74744 15.6953 6.47239 15.7619C6.19734 15.8285 5.90773 15.7977 5.65278 15.6748C5.14986 15.4475 4.65504 15.204 4.16023 14.9686L3.91687 14.855C3.23485 16.6587 2.9541 18.5895 3.0942 20.5129C3.2343 22.4363 3.79186 24.3059 4.72805 25.9916L6.13949 25.3017C6.30855 25.2055 6.49748 25.1496 6.69162 25.1383C6.88576 25.1271 7.07987 25.1607 7.25891 25.2367C7.46734 25.3155 7.64823 25.4535 7.77937 25.6338C7.9105 25.814 7.98617 26.0287 7.99708 26.2514C8.03188 26.4711 7.99748 26.6962 7.89864 26.8955C7.7998 27.0947 7.64142 27.2583 7.44548 27.3634C6.53697 27.8423 5.61222 28.2968 4.67126 28.7189C4.40809 28.8291 4.11326 28.837 3.84462 28.7409C3.57599 28.6448 3.35294 28.4516 3.21926 28.1994C1.84581 26.1348 0.983783 23.7725 0.704616 21.308C0.260549 17.7273 1.10295 14.1053 3.08136 11.0887C4.24875 9.21908 5.80649 7.62431 7.64771 6.41377C9.48893 5.20323 11.57 4.40556 13.7483 4.0755C16.746 3.56361 19.8279 3.95052 22.6063 5.18754C22.8502 5.27754 23.0597 5.44191 23.2053 5.65745C23.3508 5.873 23.4251 6.12883 23.4175 6.38885C23.4158 6.62608 23.343 6.85736 23.2085 7.05272C23.074 7.24809 22.884 7.39857 22.6631 7.48469C22.3195 7.62284 21.9359 7.62284 21.5924 7.48469C20.6676 7.17624 19.7348 6.87589 18.7938 6.60803C18.3601 6.51285 17.9214 6.44238 17.4797 6.39698V8.15842C17.4909 8.32676 17.4672 8.49558 17.4102 8.65434C17.3531 8.8131 17.2639 8.95837 17.1482 9.08105C17.0324 9.20373 16.8926 9.30115 16.7375 9.36726C16.5824 9.43337 16.4153 9.46674 16.2467 9.46525C16.0777 9.46589 15.9103 9.43127 15.7554 9.36359C15.6004 9.29591 15.4613 9.19667 15.3468 9.07218C15.2323 8.9477 15.145 8.80069 15.0905 8.64057C15.0359 8.48044 15.0153 8.3107 15.03 8.14217C15.03 7.59832 15.03 7.0626 15.03 6.51875C15.03 6.51875 15.03 6.47816 15.03 6.46193C12.999 6.63521 11.0373 7.28475 9.30388 8.35792C7.57046 9.4311 6.11401 10.8977 5.05251 12.639V12.639Z" fill="white" fill-opacity="0.5"/>
<path d="M16.4332 23.2075C15.6904 23.2261 14.9591 23.0209 14.3342 22.6185C13.7094 22.2162 13.2198 21.6351 12.9289 20.9509C12.6412 20.2909 12.56 19.5591 12.6961 18.852C12.8322 18.1449 13.1793 17.4956 13.6914 16.9898C14.3638 16.3812 15.0796 15.8223 15.8329 15.3176C19.0776 13.0286 22.3223 10.764 25.6157 8.48308C25.811 8.32217 26.0505 8.22436 26.3025 8.20262C26.5545 8.18087 26.8072 8.23626 27.0272 8.36135C27.2297 8.46262 27.3965 8.62336 27.5052 8.8221C27.6139 9.02083 27.6594 9.24808 27.6355 9.47339C27.6153 9.71677 27.5344 9.95116 27.4003 10.1552L19.5562 21.3567C19.2749 21.815 18.902 22.2102 18.4609 22.5175C18.0198 22.8248 17.5201 23.0376 16.9929 23.1425C16.7658 23.1831 16.5468 23.1912 16.4332 23.2075ZM21.5761 14.2787C20.9515 14.717 20.3917 15.0904 19.8401 15.4962C18.4287 16.5136 17.0227 17.5336 15.622 18.5564C15.4241 18.6858 15.2701 18.8722 15.1803 19.091C15.0905 19.3099 15.0691 19.5508 15.1191 19.782C15.1542 20.013 15.2582 20.228 15.4174 20.3989C15.5766 20.5698 15.7836 20.6886 16.0114 20.7399C16.2497 20.8096 16.5039 20.8015 16.7373 20.7168C16.9707 20.6322 17.171 20.4754 17.3093 20.2691L21.4706 14.4248C21.5103 14.3709 21.5456 14.3139 21.5761 14.2543V14.2787Z" fill="white" fill-opacity="0.5"/>
</svg>
