<svg width="18" height="20" viewBox="0 0 18 20" fill="none" xmlns="http://www.w3.org/2000/svg">
<path fill-rule="evenodd" clip-rule="evenodd" d="M13.4186 0.603004C13.3728 0.262469 13.0831 0 12.7326 0C12.3503 0 12.0403 0.312359 12.0403 0.697674V1.46875H5.96814V0.697674L5.96182 0.603004C5.91598 0.262469 5.62632 0 5.27583 0C4.89348 0 4.58353 0.312359 4.58353 0.697674V1.48607C1.74655 1.68146 0 3.51965 0 6.48552V14.9038C0 18.087 1.95834 19.9997 5.09625 19.9997H12.9036C16.0453 19.9997 17.9999 18.119 17.9999 14.9742V6.48552C18.009 3.51859 16.268 1.68092 13.4249 1.48599V0.697674L13.4186 0.603004ZM12.0403 2.8641V3.75887L12.0466 3.85354C12.0925 4.19407 12.3821 4.45654 12.7326 4.45654C13.115 4.45654 13.4249 4.14418 13.4249 3.75887V2.88472C15.4935 3.05683 16.622 4.30247 16.6153 6.48338V6.88768H1.38461V6.48552C1.38461 4.30599 2.51925 3.05771 4.58353 2.88486V3.75887L4.58985 3.85354C4.63569 4.19407 4.92535 4.45654 5.27583 4.45654C5.65818 4.45654 5.96814 4.14418 5.96814 3.75887V2.8641H12.0403ZM1.38461 8.28303V14.9038C1.38461 17.3064 2.71352 18.6044 5.09625 18.6044H12.9036C15.2946 18.6044 16.6153 17.3336 16.6153 14.9742L16.6153 8.28303H1.38461ZM13.8012 11.2183C13.8012 10.833 13.4912 10.5206 13.1089 10.5206L13.0064 10.527C12.6685 10.5732 12.408 10.8651 12.408 11.2183C12.408 11.6036 12.718 11.916 13.1089 11.916L13.2028 11.9096C13.5407 11.8634 13.8012 11.5715 13.8012 11.2183ZM9.01278 10.5206C9.39513 10.5206 9.70508 10.833 9.70508 11.2183C9.70508 11.5715 9.44463 11.8634 9.10672 11.9096L9.01278 11.916C8.62187 11.916 8.31192 11.6036 8.31192 11.2183C8.31192 10.8651 8.57237 10.5732 8.91028 10.527L9.01278 10.5206ZM5.60043 11.2183C5.60043 10.833 5.29047 10.5206 4.90812 10.5206L4.80563 10.527C4.46772 10.5732 4.20727 10.8651 4.20727 11.2183C4.20727 11.6036 4.51722 11.916 4.89957 11.916L5.00207 11.9096C5.33998 11.8634 5.60043 11.5715 5.60043 11.2183ZM13.1088 14.1357C13.4912 14.1357 13.8011 14.4481 13.8011 14.8334C13.8011 15.1866 13.5407 15.4785 13.2028 15.5247L13.1088 15.5311C12.7179 15.5311 12.408 15.2187 12.408 14.8334C12.408 14.4802 12.6684 14.1883 13.0063 14.1421L13.1088 14.1357ZM9.70505 14.8334C9.70505 14.4481 9.3951 14.1357 9.01275 14.1357L8.91025 14.1421C8.57234 14.1883 8.31189 14.4802 8.31189 14.8334C8.31189 15.2187 8.62185 15.5311 9.01275 15.5311L9.10669 15.5247C9.4446 15.4785 9.70505 15.1866 9.70505 14.8334ZM4.90813 14.1357C5.29048 14.1357 5.60044 14.4481 5.60044 14.8334C5.60044 15.1866 5.33999 15.4785 5.00207 15.5247L4.89958 15.5311C4.51723 15.5311 4.20728 15.2187 4.20728 14.8334C4.20728 14.4802 4.46772 14.1883 4.80564 14.1421L4.90813 14.1357Z" fill="#282828"/>
</svg>
