<svg width="15" height="16" viewBox="0 0 15 16" fill="none" xmlns="http://www.w3.org/2000/svg">
<path d="M12.9722 6.24219C12.9722 6.24219 12.5685 11.2484 12.3344 13.3572C12.2229 14.3643 11.6007 14.9545 10.5817 14.9731C8.64237 15.0081 6.70084 15.0103 4.76228 14.9694C3.78186 14.9493 3.17011 14.3517 3.06085 13.3624C2.82522 11.235 2.42383 6.24219 2.42383 6.24219" stroke="currentColor" stroke-linecap="round" stroke-linejoin="round"/>
<path d="M13.9996 3.84236H1.39453" stroke="currentColor" stroke-linecap="round" stroke-linejoin="round"/>
<path d="M11.5717 3.84244C10.9882 3.84244 10.4858 3.4299 10.3713 2.85829L10.1907 1.95443C10.0792 1.53743 9.70158 1.24902 9.2712 1.24902H6.12477C5.69439 1.24902 5.31679 1.53743 5.20529 1.95443L5.02467 2.85829C4.9102 3.4299 4.40772 3.84244 3.82422 3.84244" stroke="currentColor" stroke-linecap="round" stroke-linejoin="round"/>
</svg>
