<svg width="256" height="223" viewBox="0 0 256 223" fill="none" xmlns="http://www.w3.org/2000/svg">
<g opacity="0.4">
<g opacity="0.3">
<path d="M67.6645 109.099C67.3145 109.1 66.9679 109.025 66.6461 108.878C66.3242 108.731 66.0338 108.515 65.7924 108.244C65.5578 107.982 65.3739 107.673 65.2511 107.335C65.1283 106.997 65.0691 106.636 65.0768 106.273C65.0846 105.911 65.1591 105.553 65.2962 105.222C65.4333 104.89 65.6303 104.59 65.8759 104.34L65.946 104.268C66.4449 103.766 67.1104 103.495 67.7959 103.517C68.4815 103.538 69.1311 103.85 69.6017 104.382C70.0723 104.915 70.3254 105.626 70.3054 106.358C70.2854 107.09 69.9938 107.784 69.4949 108.286L69.4449 108.337C68.9654 108.826 68.3278 109.099 67.6645 109.099Z" fill="#D8EEFF"/>
<path d="M152.138 51.1138C151.573 51.1148 151.013 50.9929 150.493 50.7554C149.973 50.5179 149.504 50.1697 149.114 49.7322C148.735 49.3086 148.438 48.8095 148.24 48.2632C148.041 47.717 147.946 47.1343 147.958 46.5486C147.971 45.9629 148.091 45.3856 148.313 44.8496C148.534 44.3135 148.852 43.8294 149.249 43.4247L149.362 43.3095C150.168 42.4977 151.243 42.0611 152.351 42.0957C153.458 42.1302 154.507 42.6331 155.268 43.4937C156.028 44.3544 156.437 45.5023 156.404 46.6849C156.372 47.8675 155.901 48.988 155.095 49.7999L155.014 49.8819C154.24 50.6723 153.21 51.1135 152.138 51.1138Z" fill="#D8EEFF"/>
<path opacity="0.3" d="M158.575 131.863C158.009 131.864 157.449 131.742 156.93 131.504C156.41 131.267 155.94 130.919 155.551 130.481C155.172 130.058 154.874 129.558 154.676 129.012C154.478 128.466 154.382 127.883 154.395 127.298C154.407 126.712 154.528 126.135 154.749 125.599C154.971 125.063 155.289 124.578 155.685 124.174L155.799 124.059C156.605 123.247 157.68 122.81 158.787 122.845C159.894 122.879 160.944 123.382 161.704 124.243C162.464 125.103 162.873 126.251 162.841 127.434C162.808 128.617 162.337 129.737 161.532 130.549L161.451 130.631C160.676 131.421 159.646 131.862 158.575 131.863Z" fill="#D8EEFF"/>
<path d="M10.1107 61.8517C9.49132 61.8529 8.87822 61.7194 8.30878 61.4592C7.73933 61.1991 7.22544 60.8177 6.7985 60.3386C6.3834 59.8746 6.05796 59.328 5.84072 58.7297C5.62349 58.1314 5.51873 57.4933 5.53244 56.8518C5.54615 56.2103 5.67805 55.578 5.92061 54.9909C6.16317 54.4039 6.51162 53.8736 6.9461 53.4303L7.0701 53.3042C7.95287 52.4151 9.13021 51.9369 10.3431 51.9747C11.5561 52.0126 12.7053 52.5634 13.538 53.506C14.3705 54.4486 14.8184 55.7058 14.7829 57.0011C14.7475 58.2963 14.2317 59.5235 13.349 60.4127L13.2605 60.5025C12.4121 61.3682 11.2841 61.8514 10.1107 61.8517Z" fill="#D8EEFF"/>
<path d="M72.0325 39.5158C70.9284 39.5178 69.8355 39.2798 68.8204 38.8161C67.8053 38.3523 66.8892 37.6726 66.1282 36.8184C65.3882 35.9914 64.8081 35.0169 64.4208 33.9504C64.0336 32.884 63.8468 31.7464 63.8713 30.6028C63.8957 29.4593 64.1308 28.3322 64.5632 27.2857C64.9956 26.2392 65.6168 25.2938 66.3913 24.5037L66.6123 24.2788C68.1859 22.6939 70.2847 21.8415 72.4469 21.909C74.6091 21.9764 76.6577 22.9583 78.142 24.6386C79.6262 26.319 80.4244 28.5601 80.3613 30.869C80.2981 33.1779 79.3787 35.3655 77.8052 36.9506L77.6473 37.1107C76.1351 38.6538 74.1241 39.5152 72.0325 39.5158Z" fill="#D8EEFF"/>
<path d="M166.56 21.9057C165.186 21.9083 163.827 21.6122 162.564 21.0354C161.301 20.4586 160.162 19.613 159.215 18.5505C158.295 17.5218 157.573 16.3096 157.091 14.983C156.61 13.6564 156.378 12.2414 156.408 10.8189C156.438 9.39645 156.731 7.99445 157.269 6.69269C157.806 5.39093 158.579 4.21505 159.543 3.23219L159.818 2.95249C161.775 0.981036 164.386 -0.0792695 167.075 0.00462501C169.765 0.0885196 172.313 1.30984 174.159 3.39994C176.005 5.49021 176.998 8.2779 176.92 11.15C176.841 14.0221 175.698 16.7432 173.74 18.7149L173.544 18.914C171.663 20.8335 169.161 21.905 166.56 21.9057Z" fill="#D8EEFF"/>
<path d="M142.061 104.814C141.226 104.816 140.399 104.636 139.632 104.285C138.864 103.934 138.171 103.42 137.595 102.773C137.036 102.147 136.597 101.41 136.304 100.603C136.011 99.7959 135.87 98.9351 135.888 98.0698C135.907 97.2044 136.085 96.3516 136.412 95.5597C136.739 94.7678 137.209 94.0524 137.794 93.4545L137.961 93.2844C139.152 92.0851 140.739 91.4401 142.374 91.4911C144.01 91.5421 145.559 92.2851 146.682 93.5566C147.804 94.8282 148.408 96.524 148.36 98.2712C148.313 100.018 147.617 101.674 146.427 102.873L146.308 102.994C145.164 104.162 143.643 104.814 142.061 104.814Z" fill="#D8EEFF"/>
<path d="M241.243 168.802C240.543 168.804 239.85 168.653 239.206 168.359C238.562 168.065 237.982 167.634 237.499 167.092C237.03 166.567 236.662 165.949 236.416 165.273C236.171 164.597 236.052 163.875 236.068 163.15C236.083 162.425 236.232 161.71 236.507 161.047C236.781 160.383 237.175 159.784 237.666 159.283L237.806 159.14C238.804 158.135 240.135 157.594 241.506 157.637C242.877 157.68 244.176 158.303 245.117 159.368C246.059 160.434 246.565 161.855 246.525 163.319C246.485 164.783 245.902 166.171 244.904 167.176L244.804 167.277C243.845 168.256 242.57 168.802 241.243 168.802Z" fill="#D8EEFF"/>
<path d="M116.131 222.494C115.592 222.495 115.059 222.379 114.564 222.152C114.069 221.926 113.622 221.595 113.25 221.178C112.889 220.775 112.606 220.299 112.418 219.779C112.229 219.259 112.138 218.704 112.149 218.146C112.161 217.588 112.276 217.038 112.487 216.528C112.698 216.017 113.001 215.556 113.379 215.171L113.487 215.061C114.254 214.288 115.278 213.872 116.333 213.905C117.387 213.938 118.387 214.417 119.111 215.237C119.835 216.056 120.224 217.15 120.193 218.276C120.163 219.402 119.714 220.469 118.947 221.242L118.869 221.321C118.132 222.073 117.151 222.494 116.131 222.494Z" fill="#D8EEFF"/>
<path d="M14.5209 204.894C13.6858 204.896 12.8592 204.716 12.0915 204.365C11.3237 204.014 10.6309 203.5 10.0553 202.853C9.4956 202.227 9.05681 201.49 8.76393 200.683C8.47104 199.876 8.32981 199.015 8.34828 198.15C8.36676 197.285 8.54461 196.432 8.87164 195.64C9.19867 194.848 9.66846 194.133 10.2543 193.535L10.4214 193.364C11.6116 192.165 13.199 191.52 14.8343 191.571C16.4697 191.622 18.0191 192.365 19.1417 193.637C20.2643 194.908 20.868 196.604 20.8203 198.351C20.7725 200.098 20.0771 201.754 18.887 202.953L18.7676 203.074C17.6238 204.242 16.1029 204.894 14.5209 204.894Z" fill="#D8EEFF"/>
<path d="M210.874 85.9044C210.255 85.9056 209.642 85.7721 209.072 85.5119C208.503 85.2518 207.989 84.8705 207.562 84.3913C207.147 83.9274 206.822 83.3807 206.604 82.7824C206.387 82.1842 206.282 81.546 206.296 80.9045C206.31 80.263 206.442 79.6307 206.684 79.0437C206.927 78.4566 207.275 77.9263 207.71 77.483L207.834 77.3569C208.717 76.4678 209.894 75.9896 211.107 76.0275C212.32 76.0653 213.469 76.6161 214.302 77.5587C215.134 78.5014 215.582 79.7586 215.547 81.0538C215.511 82.3491 214.995 83.5763 214.113 84.4654L214.024 84.5552C213.176 85.4209 212.048 85.9041 210.874 85.9044Z" fill="#D8EEFF"/>
</g>
<path d="M204.976 83.5845C204.451 83.584 203.928 83.5203 203.419 83.3947L203.215 83.3447C202.41 83.145 201.652 82.7917 200.986 82.3051C200.32 81.8186 199.759 81.2083 199.334 80.5091C198.908 79.8099 198.628 79.0355 198.508 78.2301C198.389 77.4247 198.432 76.6041 198.636 75.8152C198.841 75.0264 199.201 74.2847 199.698 73.6325C200.195 72.9802 200.818 72.4303 201.532 72.014C202.245 71.5976 203.036 71.3231 203.858 71.206C204.68 71.089 205.517 71.1317 206.323 71.3317L206.514 71.3798C208.141 71.7833 209.537 72.803 210.395 74.2146C211.254 75.6263 211.505 77.3143 211.093 78.9073C210.749 80.2418 209.96 81.4259 208.853 82.2728C207.745 83.1197 206.381 83.5813 204.976 83.5845Z" fill="white"/>
<path d="M224.667 81.5775C223.746 81.5767 222.851 81.2663 222.124 80.6952C221.397 80.1241 220.878 79.3247 220.649 78.4229C220.513 77.8889 220.483 77.3332 220.56 76.7875C220.637 76.2417 220.819 75.7166 221.097 75.2421C221.374 74.7676 221.742 74.353 222.178 74.022C222.614 73.6911 223.11 73.4502 223.638 73.3132L223.752 73.2834C224.817 73.0034 225.949 73.1628 226.898 73.7265C227.848 74.2901 228.537 75.2119 228.814 76.2891C228.951 76.8226 228.983 77.3782 228.908 77.9242C228.833 78.4702 228.652 78.9959 228.376 79.4713C228.1 79.9467 227.734 80.3624 227.299 80.6948C226.864 81.0271 226.369 81.2696 225.841 81.4083L225.707 81.4448C225.367 81.5331 225.017 81.5776 224.667 81.5775Z" fill="white"/>
<path d="M188.251 71.142C187.648 71.143 187.051 71.0128 186.502 70.7604C185.954 70.508 185.467 70.1395 185.076 69.6804L184.979 69.5662C184.625 69.1487 184.357 68.6657 184.19 68.1447C184.023 67.6238 183.961 67.0752 184.007 66.5302C184.052 65.9852 184.205 65.4545 184.456 64.9684C184.707 64.4823 185.052 64.0504 185.47 63.6972C185.888 63.3441 186.372 63.0767 186.894 62.9103C187.416 62.7439 187.966 62.6818 188.512 62.7274C189.058 62.7731 189.589 62.9257 190.076 63.1764C190.563 63.4272 190.996 63.7712 191.349 64.1888L191.423 64.2748C191.779 64.6909 192.049 65.1729 192.218 65.6932C192.387 66.2135 192.452 66.762 192.408 67.3072C192.365 67.8525 192.214 68.3839 191.965 68.8711C191.716 69.3583 191.373 69.7917 190.956 70.1465C190.203 70.7902 189.243 71.1433 188.251 71.142Z" fill="white"/>
<path d="M241.531 71.9448C240.356 71.9445 239.22 71.5266 238.326 70.7661C237.322 69.9152 236.698 68.7012 236.591 67.3909C236.483 66.0807 236.902 64.7815 237.754 63.7792L237.844 63.6721C238.693 62.667 239.907 62.0396 241.22 61.9281C242.532 61.8165 243.836 62.2298 244.843 63.0772C245.342 63.4968 245.753 64.0105 246.053 64.5888C246.353 65.167 246.536 65.7986 246.591 66.4474C246.646 67.0963 246.573 67.7496 246.375 68.3701C246.178 68.9907 245.859 69.5664 245.439 70.0641L245.327 70.1952C244.86 70.7455 244.278 71.1871 243.623 71.4894C242.967 71.7916 242.253 71.947 241.531 71.9448Z" fill="white"/>
<path d="M180.585 55.4879C178.969 55.4862 177.409 54.8826 176.201 53.7912C174.993 52.6998 174.22 51.1963 174.028 49.5649L174.001 49.3222C173.902 48.4456 173.974 47.5578 174.213 46.7097C174.452 45.8615 174.853 45.0695 175.394 44.3788C175.934 43.6882 176.602 43.1123 177.362 42.6843C178.121 42.2563 178.955 41.9845 179.818 41.8843C181.559 41.682 183.309 42.1909 184.681 43.2992C186.053 44.4075 186.936 46.0244 187.136 47.7943L187.157 47.9742C187.365 49.7434 186.872 51.5238 185.788 52.9239C184.704 54.324 183.117 55.2291 181.376 55.4402C181.114 55.4721 180.85 55.488 180.585 55.4879Z" fill="white"/>
<path d="M249.213 55.0865C248.965 55.0866 248.717 55.0717 248.47 55.0417C246.835 54.8431 245.344 53.9912 244.326 52.6734C243.308 51.3556 242.845 49.6799 243.04 48.0148L243.06 47.8455C243.247 46.1797 244.077 44.6578 245.366 43.6147C246.655 42.5716 248.298 42.0927 249.934 42.2831C250.745 42.3774 251.529 42.6333 252.242 43.0361C252.955 43.4389 253.583 43.9809 254.09 44.6309C254.598 45.281 254.975 46.0264 255.199 46.8247C255.424 47.623 255.491 48.4585 255.399 49.2835L255.373 49.5119C255.193 51.0473 254.467 52.4624 253.332 53.4896C252.197 54.5168 250.732 55.0849 249.213 55.0865Z" fill="white"/>
<path d="M182.993 34.4162C182.284 34.4158 181.583 34.2745 180.929 34.0005C179.612 33.4515 178.566 32.4007 178.022 31.0792C177.478 29.7578 177.48 28.2739 178.027 26.9538L178.1 26.7799C178.374 26.1273 178.774 25.5351 179.276 25.0373C179.779 24.5394 180.374 24.1456 181.029 23.8783C181.683 23.6111 182.383 23.4756 183.09 23.4796C183.797 23.4836 184.496 23.627 185.147 23.9017C185.798 24.1763 186.389 24.5767 186.886 25.0802C187.383 25.5836 187.776 26.1802 188.043 26.8359C188.31 27.4915 188.445 28.1934 188.441 28.9015C188.437 29.6095 188.294 30.3098 188.019 30.9624L187.962 31.098C187.554 32.081 186.864 32.9207 185.979 33.5112C185.095 34.1017 184.056 34.4166 182.993 34.4162Z" fill="white"/>
<path d="M246.833 33.0101C246.084 33.0103 245.351 32.7786 244.728 32.3443C244.105 31.91 243.619 31.2926 243.332 30.5701L243.294 30.4757C243.101 29.997 242.999 29.4832 242.996 28.9637C242.993 28.4441 243.088 27.9291 243.275 27.4479C243.463 26.9666 243.74 26.5286 244.089 26.1589C244.439 25.7893 244.855 25.4951 245.314 25.2933C245.772 25.0914 246.265 24.9858 246.762 24.9825C247.26 24.9792 247.753 25.0782 248.215 25.274C248.676 25.4698 249.095 25.7584 249.449 26.1234C249.804 26.4885 250.085 26.9227 250.279 27.4014L250.333 27.5355C250.523 28.0153 250.622 28.5296 250.622 29.0492C250.623 29.5687 250.525 30.0832 250.335 30.5634C250.145 31.0436 249.866 31.4799 249.515 31.8476C249.163 32.2153 248.746 32.5072 248.286 32.7064C247.826 32.907 247.332 33.0103 246.833 33.0101Z" fill="white"/>
<path d="M234.022 18.56C233.163 18.56 232.321 18.3147 231.594 17.8527L231.486 17.7833C230.462 17.1387 229.736 16.1121 229.465 14.9292C229.195 13.7463 229.403 12.5039 230.044 11.4753C230.362 10.9659 230.776 10.5243 231.264 10.1758C231.751 9.82729 232.302 9.57869 232.885 9.44418C233.468 9.30967 234.072 9.29189 234.662 9.39184C235.252 9.49179 235.816 9.70756 236.323 10.0267L236.458 10.1109C237.48 10.7591 238.203 11.7884 238.469 12.9724C238.736 14.1565 238.523 15.3984 237.878 16.4248C237.467 17.0792 236.898 17.6182 236.224 17.9916C235.549 18.3649 234.792 18.5605 234.022 18.56Z" fill="white"/>
<path d="M195.573 18.56C194.772 18.5607 193.984 18.3578 193.281 17.9702C192.579 17.5825 191.986 17.0227 191.556 16.3428C190.881 15.2734 190.656 13.9782 190.931 12.7421C191.206 11.5059 191.958 10.4301 193.022 9.75126L193.163 9.66188C194.23 8.98671 195.519 8.76491 196.749 9.04519C197.978 9.32546 199.046 10.0849 199.718 11.1565C200.39 12.2282 200.611 13.5242 200.332 14.7595C200.053 15.9947 199.297 17.068 198.231 17.7434L198.117 17.8159C197.357 18.3024 196.475 18.5605 195.573 18.56Z" fill="white"/>
<path d="M215.061 16.152H214.736C212.757 16.152 210.858 15.3697 209.459 13.9771C208.059 12.5846 207.272 10.6958 207.272 8.72641C207.272 6.75701 208.059 4.86836 209.459 3.47579C210.858 2.08321 212.757 1.30078 214.736 1.30078H215.083C216.063 1.30361 217.033 1.49857 217.938 1.87436C218.842 2.25015 219.663 2.79946 220.354 3.49099C221.045 4.18253 221.593 5.00272 221.965 5.90472C222.338 6.80672 222.528 7.7729 222.525 8.74805C222.519 10.7137 221.73 12.5968 220.331 13.9847C218.932 15.3727 217.037 16.152 215.061 16.152Z" fill="white"/>
<path d="M160.975 117.697C161.108 117.24 161.295 116.8 161.533 116.388L161.628 116.222C162.005 115.571 162.504 114.999 163.096 114.541C163.688 114.083 164.361 113.747 165.078 113.553C165.795 113.358 166.541 113.309 167.273 113.407C168.005 113.506 168.71 113.751 169.346 114.127C169.982 114.504 170.538 115.006 170.982 115.603C171.425 116.2 171.748 116.882 171.931 117.609C172.114 118.337 172.154 119.095 172.049 119.841C171.944 120.587 171.696 121.307 171.319 121.958L171.228 122.113C170.467 123.43 169.226 124.39 167.779 124.783C166.332 125.176 164.797 124.969 163.512 124.209C162.435 123.572 161.601 122.587 161.142 121.408C160.683 120.229 160.624 118.923 160.975 117.697Z" fill="white"/>
<path d="M157.764 135.371C157.997 134.568 158.493 133.867 159.174 133.376C159.855 132.886 160.683 132.635 161.527 132.663C162.026 132.679 162.519 132.793 162.975 132.997C163.432 133.202 163.843 133.493 164.187 133.855C164.531 134.216 164.8 134.641 164.979 135.104C165.157 135.568 165.242 136.061 165.229 136.556L165.226 136.663C165.202 137.662 164.778 138.609 164.047 139.295C163.316 139.98 162.339 140.349 161.33 140.319C160.83 140.304 160.338 140.192 159.881 139.989C159.424 139.786 159.011 139.496 158.666 139.136C158.321 138.775 158.051 138.351 157.871 137.888C157.69 137.425 157.604 136.932 157.616 136.437L157.618 136.311C157.626 135.993 157.676 135.677 157.764 135.371Z" fill="white"/>
<path d="M176.037 106.251C176.188 105.724 176.452 105.237 176.81 104.822C177.168 104.408 177.612 104.076 178.111 103.85L178.235 103.795C178.688 103.591 179.177 103.48 179.673 103.465C180.169 103.451 180.664 103.535 181.127 103.712C181.591 103.889 182.015 104.156 182.376 104.497C182.736 104.839 183.026 105.248 183.228 105.702C183.431 106.155 183.542 106.645 183.556 107.142C183.569 107.638 183.485 108.133 183.308 108.598C183.13 109.062 182.863 109.487 182.522 109.849C182.181 110.21 181.772 110.5 181.319 110.704L181.225 110.746C180.773 110.952 180.284 111.066 179.788 111.082C179.292 111.098 178.798 111.016 178.333 110.841C177.869 110.666 177.443 110.401 177.081 110.061C176.719 109.721 176.428 109.313 176.223 108.86C175.852 108.041 175.786 107.115 176.037 106.251Z" fill="white"/>
<path d="M161.915 152.5C162.211 151.476 162.861 150.591 163.75 150.003C164.744 149.342 165.96 149.104 167.129 149.341C168.299 149.577 169.326 150.269 169.985 151.265L170.056 151.37C170.718 152.364 170.959 153.581 170.726 154.753C170.493 155.925 169.804 156.957 168.812 157.622C168.32 157.951 167.769 158.18 167.189 158.296C166.609 158.412 166.012 158.412 165.433 158.297C164.853 158.182 164.302 157.953 163.811 157.625C163.319 157.296 162.898 156.874 162.57 156.381L162.484 156.251C162.121 155.705 161.883 155.087 161.785 154.439C161.686 153.791 161.731 153.13 161.915 152.5Z" fill="white"/>
<path d="M191.617 103.511C192.025 102.102 192.945 100.894 194.2 100.116C195.456 99.3373 196.962 99.0422 198.432 99.2864L198.651 99.3234C199.44 99.4583 200.196 99.7449 200.875 100.167C201.555 100.589 202.144 101.138 202.61 101.783C203.076 102.428 203.41 103.156 203.592 103.926C203.774 104.695 203.8 105.492 203.67 106.269C203.408 107.838 202.524 109.235 201.212 110.152C199.9 111.07 198.267 111.432 196.674 111.16L196.512 111.134C194.917 110.869 193.489 109.991 192.541 108.693C191.594 107.395 191.204 105.783 191.459 104.213C191.497 103.976 191.55 103.741 191.617 103.511Z" fill="white"/>
<path d="M174.677 163.446C174.739 163.23 174.815 163.017 174.903 162.81C175.488 161.434 176.606 160.349 178.012 159.793C179.417 159.237 180.995 159.256 182.398 159.845L182.54 159.906C183.945 160.489 185.063 161.595 185.648 162.982C186.232 164.369 186.236 165.922 185.658 167.301C185.371 167.983 184.951 168.602 184.42 169.123C183.889 169.643 183.258 170.054 182.564 170.333C181.869 170.611 181.124 170.752 180.372 170.747C179.619 170.741 178.874 170.59 178.178 170.301L177.985 170.221C176.692 169.677 175.641 168.688 175.031 167.44C174.422 166.191 174.295 164.771 174.677 163.446Z" fill="white"/>
<path d="M209.381 110.919C209.56 110.301 209.86 109.725 210.264 109.224C211.074 108.214 212.254 107.567 213.543 107.425C214.832 107.284 216.126 107.659 217.139 108.469L217.272 108.577C217.772 108.98 218.187 109.478 218.495 110.041C218.802 110.605 218.996 111.223 219.064 111.861C219.132 112.499 219.074 113.144 218.892 113.759C218.711 114.374 218.409 114.947 218.006 115.446C217.602 115.944 217.104 116.359 216.54 116.665C215.976 116.971 215.357 117.164 214.718 117.231C214.079 117.299 213.433 117.24 212.817 117.058C212.201 116.876 211.626 116.575 211.126 116.171L211.022 116.087C210.268 115.483 209.71 114.67 209.418 113.75C209.126 112.83 209.113 111.845 209.381 110.919Z" fill="white"/>
<path d="M194.523 166.933C194.712 166.28 195.099 165.7 195.634 165.266C196.17 164.832 196.831 164.564 197.533 164.495L197.625 164.486C198.091 164.438 198.564 164.479 199.018 164.607C199.472 164.736 199.897 164.948 200.269 165.233C200.642 165.518 200.954 165.869 201.188 166.267C201.422 166.665 201.574 167.102 201.634 167.553C201.695 168.003 201.663 168.459 201.54 168.894C201.418 169.329 201.207 169.734 200.92 170.087C200.634 170.439 200.276 170.732 199.869 170.949C199.461 171.166 199.012 171.302 198.545 171.35L198.415 171.363C197.949 171.409 197.475 171.365 197.022 171.235C196.569 171.104 196.145 170.89 195.774 170.603C195.404 170.316 195.093 169.963 194.861 169.564C194.629 169.165 194.48 168.727 194.422 168.276C194.363 167.825 194.398 167.368 194.523 166.933Z" fill="white"/>
<path d="M210.35 159.403C210.567 158.654 210.993 157.982 211.578 157.465L211.666 157.388C212.486 156.658 213.564 156.283 214.664 156.345C215.763 156.407 216.794 156.902 217.529 157.72C217.893 158.125 218.174 158.598 218.355 159.11C218.536 159.623 218.614 160.166 218.584 160.709C218.555 161.251 218.418 161.782 218.182 162.271C217.947 162.76 217.616 163.198 217.21 163.559L217.103 163.656C216.28 164.383 215.201 164.755 214.101 164.688C213.002 164.622 211.973 164.124 211.24 163.303C210.773 162.78 210.447 162.148 210.291 161.466C210.135 160.784 210.156 160.074 210.35 159.403Z" fill="white"/>
<path d="M220.036 125.882C220.238 125.183 220.613 124.547 221.128 124.032C221.643 123.517 222.281 123.141 222.982 122.938C224.084 122.618 225.27 122.749 226.279 123.3C227.287 123.851 228.035 124.778 228.359 125.876L228.402 126.022C228.722 127.122 228.59 128.302 228.036 129.303C227.482 130.304 226.551 131.044 225.447 131.36C224.343 131.676 223.158 131.542 222.151 130.988C221.145 130.433 220.399 129.504 220.079 128.404L220.044 128.287C219.812 127.502 219.809 126.667 220.036 125.882Z" fill="white"/>
<path d="M217.226 143.48L217.308 143.197C217.807 141.471 218.967 140.013 220.534 139.143C222.101 138.273 223.946 138.064 225.663 138.56C227.38 139.056 228.828 140.217 229.69 141.789C230.551 143.36 230.755 145.212 230.256 146.938L230.169 147.24C229.92 148.094 229.505 148.891 228.95 149.585C228.394 150.279 227.708 150.856 226.931 151.284C226.154 151.713 225.301 151.983 224.421 152.081C223.541 152.178 222.651 152.101 221.801 151.853C220.089 151.352 218.646 150.19 217.788 148.621C216.931 147.051 216.728 145.202 217.226 143.48Z" fill="white"/>
<path d="M89.7565 81.1442H89.6777C88.382 81.1442 87.1392 80.6157 86.223 79.6749C85.3067 78.7341 84.792 77.4582 84.792 76.1277C84.792 74.7973 85.3067 73.5213 86.223 72.5806C87.1392 71.6398 88.382 71.1113 89.6777 71.1113H89.7565C91.0523 71.1113 92.295 71.6398 93.2113 72.5806C94.1275 73.5213 94.6423 74.7973 94.6423 76.1277C94.6423 77.4582 94.1275 78.7341 93.2113 79.6749C92.295 80.6157 91.0523 81.1442 89.7565 81.1442Z" fill="white"/>
<path d="M75.4346 138.13C75.1691 138.13 74.904 138.112 74.641 138.076L74.4533 138.05C72.9252 137.841 71.5428 137.035 70.61 135.809C69.6772 134.582 69.2706 133.037 69.4793 131.511C69.6885 129.986 70.4961 128.606 71.7244 127.674C72.9527 126.743 74.5012 126.337 76.0294 126.546L76.217 126.57C77.7451 126.778 79.1277 127.584 80.0608 128.81C80.9939 130.036 81.4011 131.581 81.1929 133.107C81.0033 134.498 80.3156 135.773 79.257 136.696C78.1983 137.62 76.8405 138.129 75.4346 138.13Z" fill="white"/>
<path d="M94.3224 139.735C92.6031 139.733 90.9417 139.094 89.6407 137.934C88.3397 136.773 87.4855 135.169 87.2337 133.413C87.0956 132.451 87.1425 131.47 87.3717 130.527C87.6008 129.583 88.0078 128.695 88.5694 127.914C89.1309 127.133 89.8361 126.473 90.6445 125.974C91.4529 125.474 92.3488 125.143 93.281 125.001L93.4893 124.97C95.3699 124.677 97.2862 125.166 98.8173 126.331C100.348 127.496 101.369 129.241 101.654 131.182C101.938 133.123 101.464 135.102 100.336 136.682C99.2074 138.263 97.5173 139.316 95.637 139.611L95.3893 139.649C95.0363 139.705 94.6796 139.734 94.3224 139.735Z" fill="white"/>
<path d="M113.111 130.506C112.423 130.506 111.749 130.297 111.176 129.906C110.603 129.515 110.155 128.958 109.888 128.306C109.529 127.429 109.524 126.441 109.874 125.56C110.224 124.679 110.901 123.977 111.755 123.608L111.846 123.568C112.269 123.384 112.722 123.287 113.181 123.282C113.64 123.278 114.095 123.367 114.521 123.543C114.947 123.719 115.334 123.98 115.662 124.311C115.989 124.641 116.25 125.034 116.429 125.468C116.792 126.344 116.8 127.332 116.453 128.214C116.107 129.097 115.433 129.801 114.58 130.174L114.467 130.223C114.038 130.41 113.577 130.506 113.111 130.506Z" fill="white"/>
<path d="M57.2916 133.315C56.2183 133.314 55.1614 133.045 54.2132 132.529L54.0004 132.409C53.2354 131.989 52.5586 131.419 52.0087 130.731C51.4588 130.044 51.0467 129.251 50.7957 128.4C50.5448 127.549 50.4601 126.655 50.5464 125.77C50.6328 124.885 50.8884 124.026 51.2988 123.243C51.7082 122.459 52.2643 121.765 52.9354 121.202C53.6065 120.638 54.3794 120.216 55.2098 119.959C56.0402 119.702 56.9119 119.615 57.7751 119.704C58.6382 119.792 59.4758 120.055 60.24 120.475L60.3933 120.558C61.9409 121.396 63.1003 122.83 63.6165 124.545C64.1327 126.259 63.9635 128.114 63.1459 129.7C62.5848 130.793 61.7426 131.708 60.7106 132.345C59.6786 132.982 58.4962 133.317 57.2916 133.315Z" fill="white"/>
<path d="M128.66 122.294C128.098 122.295 127.54 122.215 127 122.058C125.472 121.614 124.178 120.575 123.397 119.165C122.616 117.756 122.41 116.09 122.825 114.527C123.19 112.952 124.15 111.587 125.495 110.727C126.841 109.867 128.464 109.582 130.014 109.933C130.789 110.108 131.523 110.437 132.173 110.902C132.822 111.366 133.376 111.956 133.802 112.639C134.228 113.321 134.518 114.083 134.655 114.88C134.793 115.676 134.775 116.493 134.602 117.283C134.563 117.465 134.516 117.648 134.468 117.827C134.107 119.114 133.345 120.246 132.298 121.052C131.25 121.858 129.973 122.294 128.66 122.294Z" fill="white"/>
<path d="M42.2995 119.67C41.529 119.672 40.767 119.513 40.0639 119.204C39.3607 118.895 38.7324 118.443 38.2204 117.878L38.0849 117.728C37.611 117.2 37.2478 116.586 37.016 115.92C36.7841 115.255 36.6882 114.551 36.7336 113.85C36.7791 113.148 36.965 112.462 37.2809 111.83C37.5967 111.199 38.0362 110.635 38.5743 110.17C39.6606 109.232 41.0823 108.756 42.5268 108.846C43.9712 108.936 45.32 109.585 46.2765 110.65L46.3734 110.758C46.85 111.283 47.2165 111.895 47.452 112.559C47.6875 113.223 47.7873 113.926 47.7458 114.628C47.7043 115.33 47.5222 116.017 47.21 116.65C46.8978 117.283 46.4615 117.849 45.9262 118.316C44.9282 119.19 43.637 119.672 42.2995 119.67Z" fill="white"/>
<path d="M32.4134 101.611C31.6228 101.611 30.8506 101.37 30.1983 100.919C29.546 100.469 29.0441 99.8292 28.7584 99.0852L28.7053 98.9474C28.3353 97.9679 28.3658 96.8801 28.7901 95.9232C29.2145 94.9664 29.9979 94.2186 30.9683 93.8444C31.9391 93.471 33.017 93.5017 33.9653 93.9299C34.9135 94.3581 35.6545 95.1487 36.0254 96.128L36.0633 96.2275C36.4391 97.2054 36.4146 98.2938 35.9952 99.2534C35.5758 100.213 34.7958 100.965 33.8268 101.345C33.3761 101.521 32.8969 101.611 32.4134 101.611Z" fill="white"/>
<path d="M128.724 102.012C127.314 102.012 125.961 101.451 124.963 100.451C123.966 99.4507 123.405 98.0945 123.405 96.6805V96.5085C123.405 95.0944 123.966 93.7383 124.963 92.7385C125.961 91.7386 127.314 91.1768 128.724 91.1768C130.135 91.1768 131.488 91.7386 132.486 92.7385C133.483 93.7383 134.044 95.0944 134.044 96.5085V96.6805C134.044 98.0945 133.483 99.4507 132.486 100.451C131.488 101.451 130.135 102.012 128.724 102.012Z" fill="white"/>
<path d="M28.1937 84.8096C26.6758 84.8075 25.2143 84.2231 24.0999 83.1726C22.9855 82.1221 22.2999 80.6825 22.1795 79.1402L22.1619 78.9217C22.0405 77.2936 22.5584 75.6829 23.6018 74.4439C24.6452 73.2049 26.1287 72.4391 27.726 72.3148C29.3236 72.1904 30.9043 72.718 32.1202 73.7816C33.3362 74.8452 34.0879 76.3576 34.2098 77.9861L34.2234 78.1629C34.3505 79.7908 33.8379 81.4035 32.7985 82.6462C31.7591 83.889 30.278 84.66 28.6809 84.7897C28.5172 84.8036 28.3554 84.8096 28.1937 84.8096Z" fill="white"/>
<path d="M128.016 83.2669C127.222 83.2682 126.435 83.1094 125.702 82.7995C124.968 82.4896 124.301 82.0348 123.741 81.4612C122.59 80.3606 121.908 78.8451 121.84 77.2385C121.771 75.632 122.322 74.0618 123.374 72.8637C123.904 72.261 124.544 71.7705 125.259 71.4202C125.974 71.0698 126.75 70.8665 127.543 70.8219C128.335 70.7772 129.128 70.8921 129.877 71.16C130.626 71.4279 131.315 71.8434 131.906 72.383C132.072 72.536 132.234 72.6949 132.388 72.8598C132.935 73.4451 133.364 74.1347 133.65 74.8891C133.936 75.6435 134.074 76.4479 134.055 77.2564C134.036 78.0649 133.861 78.8616 133.54 79.6011C133.218 80.3407 132.758 81.0085 132.183 81.5664C131.061 82.6595 129.568 83.2687 128.016 83.2669Z" fill="white"/>
<path d="M108.953 83.953H108.702C106.646 83.953 104.673 83.1285 103.219 81.6609C101.764 80.1934 100.947 78.2029 100.947 76.1274C100.947 74.0519 101.764 72.0614 103.219 70.5938C104.673 69.1262 106.646 68.3018 108.702 68.3018H108.953C111.009 68.3018 112.982 69.1262 114.436 70.5938C115.891 72.0614 116.708 74.0519 116.708 76.1274C116.708 78.2029 115.891 80.1934 114.436 81.6609C112.982 83.1285 111.009 83.953 108.953 83.953Z" fill="white"/>
<path d="M29.0273 68.3022C28.5284 68.3011 28.0305 68.258 27.5385 68.1732C26.3936 67.9736 25.2982 67.544 24.3148 66.909C23.3313 66.2741 22.4792 65.4463 21.807 64.4727C21.1348 63.4991 20.6556 62.399 20.3969 61.235C20.1383 60.071 20.1052 58.866 20.2994 57.6888L20.3508 57.3956C20.5472 56.2188 20.9671 55.0933 21.5865 54.0834C22.206 53.0735 23.0129 52.199 23.9611 51.5097C24.9093 50.8204 25.9803 50.33 27.1129 50.0663C28.2454 49.8026 29.4174 49.7708 30.5619 49.9729C32.8722 50.3815 34.9302 51.7166 36.2834 53.6849C37.6366 55.6531 38.1743 58.0933 37.7781 60.469L37.7353 60.7418C37.3841 62.8556 36.3176 64.7736 34.7241 66.1571C33.1307 67.5406 31.1129 68.3003 29.0273 68.3022Z" fill="white"/>
<path d="M34.9143 44.6248C34.2453 44.6244 33.5867 44.4579 32.9962 44.14C32.034 43.6245 31.3137 42.7438 30.9938 41.6915C30.6738 40.6392 30.7804 39.5015 31.29 38.5286L31.3576 38.3947C31.8702 37.4233 32.7435 36.6975 33.7854 36.377C34.8273 36.0565 35.9524 36.1676 36.9133 36.6858C37.8741 37.2041 38.592 38.087 38.9089 39.1403C39.2259 40.1937 39.1161 41.3312 38.6035 42.3026L38.5466 42.4111C38.1977 43.0793 37.6751 43.6386 37.035 44.0287C36.3949 44.4188 35.6617 44.625 34.9143 44.6248Z" fill="white"/>
<path d="M46.6383 31.1968C45.8205 31.1983 45.011 31.03 44.2592 30.7021C43.5073 30.3743 42.8288 29.8937 42.265 29.2898C41.717 28.7051 41.2872 28.0161 41.0004 27.2621C40.7136 26.5081 40.5753 25.7038 40.5934 24.8953C40.6115 24.0868 40.7856 23.29 41.1059 22.5501C41.4262 21.8102 41.8862 21.1418 42.4599 20.5832L42.6236 20.4242C43.7892 19.3037 45.3437 18.701 46.9453 18.7487C48.5468 18.7964 50.0642 19.4906 51.1636 20.6785C52.2629 21.8666 52.8542 23.4511 52.8074 25.0835C52.7606 26.7159 52.0796 28.2626 50.9141 29.3832L50.7972 29.4964C49.6771 30.5874 48.1876 31.1964 46.6383 31.1968Z" fill="white"/>
<path d="M62.6491 20.144C61.5595 20.1444 60.495 19.8081 59.5936 19.179C58.6922 18.5499 57.9956 17.6569 57.5942 16.6159C57.3312 15.9339 57.2016 15.2054 57.2126 14.4719C57.2236 13.7384 57.3751 13.0144 57.6584 12.3411C57.9417 11.6678 58.3512 11.0585 58.8637 10.5478C59.3761 10.0372 59.9814 9.63523 60.645 9.365L60.8379 9.28758C62.1811 8.75035 63.677 8.78336 64.9965 9.37943C66.316 9.9755 67.3511 11.0859 67.8742 12.4661C68.3969 13.8466 68.3648 15.3838 67.7847 16.7398C67.2047 18.0959 66.1244 19.1596 64.7812 19.6971L64.6497 19.7512C64.0129 20.0105 63.3341 20.1438 62.6491 20.144Z" fill="white"/>
<path d="M100.843 18.1381C100.413 18.1382 99.9834 18.0874 99.5641 17.9866L99.3917 17.9436C98.6721 17.7717 97.9924 17.4554 97.3915 17.0127C96.7905 16.5701 96.28 16.0098 95.8891 15.3638C95.4983 14.7178 95.2347 13.9987 95.1134 13.2477C94.9922 12.4967 95.0156 11.7284 95.1824 10.9868C95.5196 9.48921 96.4201 8.19102 97.6858 7.37773C98.9515 6.56444 100.479 6.30258 101.932 6.64986L102.113 6.69287C102.833 6.86536 103.512 7.1823 104.113 7.62546C104.713 8.06863 105.223 8.62935 105.614 9.27571C106.004 9.92207 106.267 10.6414 106.388 11.3926C106.509 12.1437 106.484 12.912 106.317 13.6535C106.03 14.9281 105.332 16.0649 104.338 16.8791C103.345 17.6933 102.113 18.137 100.843 18.1381Z" fill="white"/>
<path d="M81.5222 18.1377C79.6171 18.1391 77.7857 17.3955 76.4127 16.0633C75.0398 14.7311 74.2322 12.9139 74.1597 10.9936C74.0852 9.02556 74.7887 7.10827 76.1155 5.66341C77.4423 4.21856 79.2838 3.3645 81.2348 3.28906H81.4961H81.7597C83.6683 3.28787 85.5028 4.03442 86.8763 5.3712C88.2499 6.70799 89.0551 8.53051 89.1222 10.4546C89.1908 12.423 88.4815 14.3382 87.1502 15.779C85.8189 17.2199 83.9747 18.0684 82.0233 18.1377H81.8072C81.7122 18.1377 81.6172 18.1377 81.5222 18.1377Z" fill="white"/>
<path d="M118.249 26.4836C116.997 26.4845 115.776 26.0866 114.757 25.3454L114.669 25.2819C113.365 24.3339 112.483 22.8967 112.218 21.2863C111.953 19.6759 112.326 18.0242 113.256 16.6944C114.186 15.3648 115.596 14.4662 117.176 14.1962C118.756 13.9261 120.376 14.3067 121.681 15.2542L121.751 15.3039C122.398 15.772 122.948 16.3656 123.37 17.0505C123.792 17.7355 124.078 18.4985 124.211 19.296C124.343 20.0934 124.32 20.9097 124.144 21.6982C123.967 22.4867 123.639 23.2319 123.18 23.8913C122.621 24.6935 121.881 25.3474 121.024 25.7985C120.166 26.2495 119.214 26.4844 118.249 26.4836Z" fill="white"/>
</g>
</svg>
