<svg width="273" height="223" viewBox="0 0 273 223" fill="none" xmlns="http://www.w3.org/2000/svg">
<g opacity="0.4">
<g opacity="0.3">
<path d="M84.6645 102.193C84.3145 102.193 83.9679 102.123 83.6461 101.985C83.3242 101.847 83.0338 101.645 82.7924 101.392C82.5578 101.146 82.3739 100.857 82.2511 100.54C82.1283 100.223 82.0691 99.8852 82.0768 99.5456C82.0846 99.2059 82.1591 98.8712 82.2962 98.5604C82.4333 98.2496 82.6303 97.9688 82.8759 97.7341L82.946 97.6674C83.4449 97.1966 84.1104 96.9435 84.7959 96.9635C85.4815 96.9835 86.1311 97.2751 86.6017 97.7742C87.0723 98.2733 87.3254 98.9389 87.3054 99.6246C87.2854 100.31 86.9938 100.96 86.4949 101.431L86.4449 101.478C85.9654 101.937 85.3278 102.193 84.6645 102.193Z" fill="#197ECA"/>
<path d="M169.137 47.8772C168.572 47.8782 168.012 47.764 167.492 47.5415C166.972 47.319 166.503 46.9929 166.113 46.5831C165.734 46.1863 165.437 45.7188 165.239 45.2071C165.04 44.6955 164.945 44.1497 164.957 43.601C164.97 43.0524 165.09 42.5117 165.312 42.0096C165.533 41.5075 165.851 41.054 166.248 40.6749L166.361 40.567C167.167 39.8066 168.242 39.3976 169.35 39.43C170.457 39.4624 171.506 39.9334 172.267 40.7396C173.027 41.5458 173.436 42.621 173.403 43.7287C173.371 44.8365 172.9 45.886 172.094 46.6465L172.013 46.7233C171.239 47.4636 170.209 47.8769 169.137 47.8772Z" fill="#197ECA"/>
<path opacity="0.12" d="M4.18122 152.886C3.61572 152.887 3.05593 152.773 2.536 152.551C2.01608 152.328 1.54687 152.002 1.15706 151.592C0.778053 151.196 0.480906 150.728 0.282562 150.216C0.0842176 149.705 -0.0114272 149.159 0.001087 148.61C0.0136012 148.062 0.134038 147.521 0.355505 147.019C0.576972 146.517 0.895121 146.063 1.29182 145.684L1.40504 145.576C2.21104 144.816 3.286 144.407 4.39347 144.439C5.50094 144.472 6.55022 144.943 7.31048 145.749C8.07066 146.555 8.47955 147.63 8.4472 148.738C8.41485 149.846 7.94391 150.895 7.13797 151.656L7.0571 151.733C6.28255 152.473 5.25256 152.886 4.18122 152.886Z" fill="#197ECA"/>
<path opacity="0.3" d="M175.575 123.516C175.009 123.517 174.449 123.403 173.93 123.18C173.41 122.958 172.94 122.632 172.551 122.222C172.172 121.825 171.874 121.357 171.676 120.846C171.478 120.334 171.382 119.788 171.395 119.24C171.407 118.691 171.528 118.15 171.749 117.648C171.971 117.146 172.289 116.693 172.685 116.314L172.799 116.206C173.605 115.445 174.68 115.036 175.787 115.069C176.894 115.101 177.944 115.572 178.704 116.378C179.464 117.184 179.873 118.26 179.841 119.367C179.808 120.475 179.337 121.525 178.532 122.285L178.451 122.362C177.676 123.102 176.646 123.516 175.575 123.516Z" fill="#197ECA"/>
<path d="M27.1107 57.9363C26.4913 57.9373 25.8782 57.8123 25.3088 57.5686C24.7393 57.3249 24.2254 56.9677 23.7985 56.5189C23.3834 56.0843 23.058 55.5723 22.8407 55.0119C22.6235 54.4515 22.5187 53.8537 22.5324 53.2529C22.5461 52.652 22.6781 52.0597 22.9206 51.5098C23.1632 50.9599 23.5116 50.4632 23.9461 50.048L24.0701 49.9298C24.9529 49.097 26.1302 48.6491 27.3431 48.6846C28.5561 48.72 29.7053 49.2359 30.538 50.1189C31.3705 51.0018 31.8184 52.1795 31.7829 53.3927C31.7475 54.606 31.2317 55.7555 30.349 56.5883L30.2605 56.6725C29.4121 57.4833 28.2841 57.936 27.1107 57.9363Z" fill="#197ECA"/>
<path d="M89.0325 37.0147C87.9284 37.0166 86.8355 36.7937 85.8204 36.3593C84.8053 35.9249 83.8892 35.2882 83.1282 34.4881C82.3882 33.7134 81.8081 32.8006 81.4208 31.8017C81.0336 30.8027 80.8468 29.7371 80.8713 28.666C80.8957 27.5948 81.1308 26.5391 81.5632 25.5588C81.9956 24.5786 82.6168 23.6931 83.3913 22.953L83.6123 22.7423C85.1859 21.2578 87.2847 20.4594 89.4469 20.5225C91.6091 20.5857 93.6577 21.5054 95.142 23.0793C96.6262 24.6533 97.4244 26.7525 97.3613 28.9153C97.2981 31.078 96.3787 33.1272 94.8052 34.6118L94.6473 34.7618C93.1351 36.2072 91.1241 37.0141 89.0325 37.0147Z" fill="#197ECA"/>
<path d="M183.56 20.5189C182.186 20.5214 180.827 20.244 179.564 19.7037C178.301 19.1634 177.162 18.3714 176.215 17.3761C175.295 16.4125 174.573 15.2771 174.091 14.0345C173.61 12.7919 173.378 11.4664 173.408 10.134C173.438 8.80159 173.731 7.48834 174.269 6.269C174.806 5.04965 175.579 3.94821 176.543 3.02757L176.818 2.76557C178.775 0.918929 181.386 -0.0742512 184.075 0.00433221C186.765 0.0829156 189.313 1.22692 191.159 3.1847C193.005 5.14264 193.998 7.75385 193.92 10.4441C193.841 13.1344 192.698 15.6833 190.74 17.5301L190.544 17.7166C188.663 19.5146 186.161 20.5183 183.56 20.5189Z" fill="#197ECA"/>
<path d="M159.061 98.1786C158.226 98.1801 157.399 98.0114 156.632 97.6827C155.864 97.354 155.171 96.8722 154.595 96.2668C154.036 95.6805 153.597 94.9898 153.304 94.2339C153.011 93.478 152.87 92.6717 152.888 91.8611C152.907 91.0506 153.085 90.2517 153.412 89.5099C153.739 88.7682 154.209 88.0981 154.794 87.5381L154.961 87.3787C156.152 86.2553 157.739 85.6511 159.374 85.6989C161.01 85.7467 162.559 86.4427 163.682 87.6336C164.804 88.8247 165.408 90.4132 165.36 92.0498C165.313 93.6863 164.617 95.2369 163.427 96.3604L163.308 96.4739C162.164 97.5677 160.643 98.1782 159.061 98.1786Z" fill="#197ECA"/>
<path d="M258.244 158.117C257.544 158.118 256.851 157.977 256.207 157.701C255.563 157.426 254.983 157.022 254.5 156.515C254.031 156.023 253.663 155.445 253.417 154.811C253.172 154.178 253.053 153.502 253.069 152.823C253.084 152.143 253.233 151.474 253.508 150.852C253.782 150.231 254.176 149.669 254.667 149.2L254.807 149.066C255.805 148.125 257.136 147.618 258.507 147.658C259.878 147.699 261.177 148.282 262.118 149.28C263.06 150.278 263.566 151.609 263.526 152.981C263.486 154.352 262.903 155.652 261.905 156.593L261.805 156.688C260.846 157.605 259.571 158.117 258.244 158.117Z" fill="#197ECA"/>
<path d="M133.131 208.408C132.592 208.409 132.059 208.3 131.564 208.088C131.069 207.876 130.622 207.566 130.25 207.176C129.889 206.798 129.606 206.352 129.418 205.865C129.229 205.378 129.138 204.858 129.149 204.335C129.161 203.813 129.276 203.298 129.487 202.82C129.698 202.342 130.001 201.91 130.379 201.549L130.487 201.446C131.254 200.722 132.278 200.332 133.333 200.363C134.387 200.394 135.387 200.842 136.111 201.61C136.835 202.378 137.224 203.402 137.193 204.457C137.163 205.512 136.714 206.512 135.947 207.236L135.869 207.309C135.132 208.014 134.151 208.408 133.131 208.408Z" fill="#197ECA"/>
<path d="M31.5209 191.923C30.6858 191.924 29.8592 191.756 29.0915 191.427C28.3237 191.098 27.6309 190.616 27.0553 190.011C26.4956 189.425 26.0568 188.734 25.7639 187.978C25.471 187.222 25.3298 186.416 25.3483 185.605C25.3668 184.795 25.5446 183.996 25.8716 183.254C26.1987 182.512 26.6685 181.842 27.2543 181.282L27.4214 181.123C28.6116 179.999 30.199 179.395 31.8343 179.443C33.4697 179.491 35.0191 180.187 36.1417 181.378C37.2643 182.569 37.868 184.157 37.8203 185.794C37.7725 187.43 37.0771 188.981 35.887 190.105L35.7676 190.218C34.6238 191.312 33.1029 191.922 31.5209 191.923Z" fill="#197ECA"/>
<path d="M227.874 80.467C227.255 80.4681 226.642 80.343 226.072 80.0994C225.503 79.8557 224.989 79.4985 224.562 79.0497C224.147 78.6151 223.822 78.1031 223.604 77.5427C223.387 76.9823 223.282 76.3845 223.296 75.7836C223.31 75.1827 223.442 74.5905 223.684 74.0406C223.927 73.4907 224.275 72.9939 224.71 72.5788L224.834 72.4606C225.717 71.6278 226.894 71.1799 228.107 71.2153C229.32 71.2508 230.469 71.7667 231.302 72.6496C232.134 73.5326 232.582 74.7102 232.547 75.9235C232.511 77.1367 231.995 78.2862 231.113 79.1191L231.024 79.2032C230.176 80.0141 229.048 80.4667 227.874 80.467Z" fill="#197ECA"/>
</g>
<path d="M221.976 125.352C221.451 125.352 220.928 125.288 220.419 125.162L220.215 125.112C219.41 124.913 218.652 124.559 217.986 124.073C217.32 123.586 216.759 122.976 216.334 122.277C215.908 121.577 215.628 120.803 215.508 119.998C215.389 119.192 215.432 118.372 215.636 117.583C215.841 116.794 216.201 116.052 216.698 115.4C217.195 114.748 217.818 114.198 218.532 113.782C219.245 113.365 220.036 113.091 220.858 112.974C221.68 112.857 222.517 112.899 223.323 113.099L223.514 113.147C225.141 113.551 226.537 114.571 227.395 115.982C228.254 117.394 228.505 119.082 228.093 120.675C227.749 122.009 226.96 123.193 225.853 124.04C224.745 124.887 223.381 125.349 221.976 125.352Z" fill="#5960C7"/>
<path d="M241.667 123.345C240.746 123.344 239.851 123.034 239.124 122.463C238.397 121.892 237.878 121.092 237.649 120.19C237.513 119.657 237.483 119.101 237.56 118.555C237.637 118.009 237.819 117.484 238.097 117.01C238.374 116.535 238.742 116.121 239.178 115.79C239.614 115.459 240.11 115.218 240.638 115.081L240.752 115.051C241.817 114.771 242.949 114.93 243.898 115.494C244.848 116.058 245.537 116.98 245.814 118.057C245.951 118.59 245.983 119.146 245.908 119.692C245.833 120.238 245.652 120.763 245.376 121.239C245.1 121.714 244.734 122.13 244.299 122.462C243.864 122.795 243.369 123.037 242.841 123.176L242.707 123.212C242.367 123.301 242.017 123.345 241.667 123.345Z" fill="#5960C7"/>
<path d="M205.251 112.909C204.648 112.91 204.051 112.78 203.502 112.528C202.954 112.275 202.467 111.907 202.076 111.448L201.979 111.333C201.625 110.916 201.357 110.433 201.19 109.912C201.023 109.391 200.961 108.842 201.007 108.297C201.052 107.752 201.205 107.222 201.456 106.735C201.707 106.249 202.052 105.817 202.47 105.464C202.888 105.111 203.372 104.844 203.894 104.677C204.416 104.511 204.966 104.449 205.512 104.495C206.058 104.54 206.589 104.693 207.076 104.943C207.563 105.194 207.996 105.538 208.349 105.956L208.423 106.042C208.779 106.458 209.049 106.94 209.218 107.46C209.387 107.981 209.452 108.529 209.408 109.074C209.365 109.62 209.214 110.151 208.965 110.638C208.716 111.125 208.373 111.559 207.956 111.914C207.203 112.557 206.243 112.91 205.251 112.909Z" fill="#5960C7"/>
<path d="M258.531 113.712C257.356 113.712 256.22 113.294 255.326 112.533C254.322 111.682 253.698 110.468 253.591 109.158C253.483 107.848 253.902 106.549 254.754 105.546L254.844 105.439C255.693 104.434 256.907 103.807 258.22 103.695C259.532 103.584 260.836 103.997 261.843 104.844C262.342 105.264 262.753 105.778 263.053 106.356C263.353 106.934 263.536 107.566 263.591 108.215C263.646 108.863 263.573 109.517 263.375 110.137C263.178 110.758 262.859 111.333 262.439 111.831L262.327 111.962C261.86 112.513 261.278 112.954 260.623 113.256C259.967 113.559 259.253 113.714 258.531 113.712Z" fill="#5960C7"/>
<path d="M197.585 97.2555C195.969 97.2538 194.409 96.6502 193.201 95.5588C191.993 94.4674 191.22 92.9638 191.028 91.3325L191.001 91.0897C190.902 90.2132 190.974 89.3254 191.213 88.4772C191.452 87.629 191.853 86.8371 192.394 86.1464C192.934 85.4558 193.602 84.8799 194.362 84.4519C195.121 84.0239 195.955 83.7521 196.818 83.6519C198.559 83.4495 200.309 83.9584 201.681 85.0667C203.053 86.175 203.936 87.792 204.136 89.5619L204.157 89.7418C204.365 91.5109 203.872 93.2913 202.788 94.6915C201.704 96.0916 200.117 96.9967 198.376 97.2078C198.114 97.2397 197.85 97.2556 197.585 97.2555Z" fill="#5960C7"/>
<path d="M266.213 96.8541C265.965 96.8542 265.717 96.8393 265.47 96.8093C263.835 96.6106 262.344 95.7587 261.326 94.441C260.308 93.1232 259.845 91.4475 260.04 89.7824L260.06 89.6131C260.247 87.9472 261.077 86.4254 262.366 85.3823C263.655 84.3392 265.298 83.8602 266.934 84.0507C267.745 84.145 268.529 84.4008 269.242 84.8037C269.955 85.2065 270.583 85.7485 271.09 86.3985C271.598 87.0485 271.975 87.794 272.199 88.5923C272.424 89.3906 272.491 90.2261 272.399 91.0511L272.373 91.2795C272.193 92.8149 271.467 94.23 270.332 95.2572C269.197 96.2844 267.732 96.8525 266.213 96.8541Z" fill="#5960C7"/>
<path d="M199.993 76.1838C199.284 76.1833 198.583 76.042 197.929 75.7681C196.612 75.219 195.566 74.1683 195.022 72.8468C194.478 71.5253 194.48 70.0415 195.027 68.7214L195.1 68.5475C195.374 67.8949 195.774 67.3027 196.276 66.8049C196.779 66.307 197.374 65.9132 198.029 65.6459C198.683 65.3787 199.383 65.2431 200.09 65.2472C200.797 65.2512 201.496 65.3946 202.147 65.6693C202.798 65.9439 203.389 66.3443 203.886 66.8477C204.383 67.3512 204.776 67.9478 205.043 68.6035C205.31 69.2591 205.445 69.961 205.441 70.669C205.437 71.3771 205.294 72.0774 205.019 72.73L204.962 72.8656C204.554 73.8485 203.864 74.6883 202.979 75.2788C202.095 75.8693 201.056 76.1842 199.993 76.1838Z" fill="#5960C7"/>
<path d="M263.833 74.7777C263.084 74.7779 262.351 74.5461 261.728 74.1118C261.105 73.6775 260.619 73.0602 260.332 72.3377L260.294 72.2433C260.101 71.7646 259.999 71.2508 259.996 70.7312C259.993 70.2117 260.088 69.6967 260.275 69.2154C260.463 68.7342 260.74 68.2962 261.089 67.9265C261.439 67.5568 261.855 67.2627 262.314 67.0608C262.772 66.859 263.265 66.7534 263.762 66.7501C264.26 66.7468 264.753 66.8458 265.215 67.0416C265.676 67.2373 266.095 67.526 266.449 67.891C266.804 68.256 267.085 68.6903 267.279 69.169L267.333 69.3031C267.523 69.7829 267.622 70.2972 267.622 70.8167C267.623 71.3363 267.525 71.8508 267.335 72.331C267.145 72.8111 266.866 73.2475 266.515 73.6152C266.163 73.9829 265.746 74.2747 265.286 74.474C264.826 74.6746 264.332 74.7778 263.833 74.7777Z" fill="#5960C7"/>
<path d="M251.021 60.328C250.162 60.3281 249.32 60.0828 248.594 59.6208L248.485 59.5513C247.461 58.9068 246.735 57.8802 246.464 56.6973C246.194 55.5144 246.402 54.272 247.043 53.2434C247.361 52.7339 247.775 52.2923 248.263 51.9438C248.75 51.5954 249.301 51.3468 249.884 51.2123C250.467 51.0777 251.071 51.06 251.661 51.1599C252.251 51.2599 252.815 51.4756 253.322 51.7948L253.458 51.879C254.479 52.5271 255.202 53.5564 255.468 54.7405C255.735 55.9246 255.522 57.1665 254.877 58.1929C254.466 58.8472 253.897 59.3862 253.223 59.7596C252.548 60.133 251.791 60.3286 251.021 60.328Z" fill="#5960C7"/>
<path d="M212.573 60.3281C211.772 60.3287 210.984 60.1259 210.281 59.7382C209.579 59.3506 208.986 58.7908 208.556 58.1109C207.881 57.0414 207.656 55.7462 207.931 54.5101C208.206 53.274 208.958 52.1982 210.022 51.5193L210.163 51.4299C211.23 50.7548 212.519 50.533 213.749 50.8133C214.978 51.0935 216.046 51.853 216.718 52.9246C217.39 53.9963 217.611 55.2923 217.332 56.5275C217.053 57.7628 216.297 58.8361 215.231 59.5115L215.117 59.5839C214.357 60.0704 213.475 60.3286 212.573 60.3281Z" fill="#5960C7"/>
<path d="M232.061 57.9196H231.736C229.757 57.9196 227.858 57.1373 226.459 55.7447C225.059 54.3521 224.272 52.4634 224.272 50.494C224.272 48.5246 225.059 46.6359 226.459 45.2434C227.858 43.8508 229.757 43.0684 231.736 43.0684H232.083C233.063 43.0712 234.033 43.2661 234.938 43.6419C235.842 44.0177 236.663 44.567 237.354 45.2586C238.045 45.9501 238.593 46.7703 238.965 47.6723C239.338 48.5743 239.528 49.5405 239.525 50.5156C239.519 52.4813 238.73 54.3644 237.331 55.7523C235.932 57.1402 234.037 57.9196 232.061 57.9196Z" fill="#5960C7"/>
<path d="M177.975 159.465C178.108 159.008 178.295 158.568 178.533 158.156L178.628 157.991C179.005 157.339 179.504 156.767 180.096 156.309C180.688 155.851 181.361 155.515 182.078 155.321C182.795 155.126 183.541 155.077 184.273 155.175C185.005 155.274 185.71 155.519 186.346 155.896C186.982 156.272 187.538 156.774 187.982 157.371C188.425 157.968 188.748 158.65 188.931 159.377C189.114 160.105 189.154 160.863 189.049 161.609C188.944 162.355 188.696 163.075 188.319 163.726L188.228 163.882C187.467 165.198 186.226 166.158 184.779 166.551C183.332 166.944 181.797 166.737 180.512 165.977C179.435 165.341 178.601 164.355 178.142 163.176C177.683 161.997 177.624 160.691 177.975 159.465Z" fill="#5960C7"/>
<path d="M174.764 177.138C174.997 176.336 175.493 175.634 176.174 175.144C176.855 174.654 177.683 174.403 178.527 174.431C179.026 174.447 179.519 174.56 179.975 174.765C180.432 174.969 180.843 175.261 181.187 175.622C181.531 175.984 181.8 176.408 181.979 176.872C182.157 177.335 182.242 177.829 182.229 178.324L182.226 178.431C182.202 179.43 181.778 180.377 181.047 181.062C180.316 181.748 179.339 182.116 178.33 182.087C177.83 182.072 177.338 181.96 176.881 181.757C176.424 181.554 176.011 181.264 175.666 180.903C175.321 180.543 175.051 180.119 174.871 179.656C174.69 179.193 174.604 178.7 174.616 178.205L174.618 178.079C174.626 177.76 174.676 177.444 174.764 177.138Z" fill="#5960C7"/>
<path d="M193.037 148.019C193.188 147.492 193.452 147.005 193.81 146.59C194.168 146.176 194.612 145.844 195.111 145.618L195.235 145.563C195.688 145.36 196.177 145.248 196.673 145.233C197.169 145.219 197.664 145.303 198.127 145.48C198.591 145.657 199.015 145.924 199.376 146.265C199.736 146.607 200.026 147.016 200.228 147.47C200.431 147.923 200.542 148.413 200.556 148.91C200.569 149.407 200.485 149.901 200.308 150.366C200.13 150.83 199.863 151.255 199.522 151.617C199.181 151.978 198.772 152.269 198.319 152.472L198.225 152.515C197.773 152.72 197.284 152.834 196.788 152.85C196.292 152.866 195.798 152.784 195.333 152.609C194.869 152.434 194.443 152.169 194.081 151.829C193.719 151.489 193.428 151.081 193.223 150.628C192.852 149.809 192.786 148.883 193.037 148.019Z" fill="#5960C7"/>
<path d="M178.915 194.269C179.211 193.245 179.861 192.359 180.75 191.772C181.744 191.111 182.96 190.872 184.129 191.109C185.299 191.345 186.326 192.037 186.985 193.033L187.056 193.138C187.718 194.132 187.959 195.349 187.726 196.521C187.493 197.693 186.804 198.725 185.812 199.39C185.32 199.719 184.769 199.948 184.189 200.064C183.609 200.18 183.012 200.18 182.433 200.065C181.853 199.95 181.302 199.722 180.811 199.393C180.319 199.064 179.898 198.642 179.57 198.15L179.484 198.019C179.121 197.473 178.883 196.855 178.785 196.207C178.686 195.559 178.731 194.898 178.915 194.269Z" fill="#5960C7"/>
<path d="M208.617 145.278C209.025 143.87 209.945 142.662 211.2 141.883C212.456 141.105 213.962 140.81 215.432 141.054L215.651 141.091C216.44 141.226 217.196 141.512 217.875 141.935C218.555 142.357 219.144 142.906 219.61 143.551C220.076 144.196 220.41 144.924 220.592 145.693C220.774 146.463 220.8 147.259 220.67 148.036C220.408 149.606 219.524 151.003 218.212 151.92C216.9 152.837 215.267 153.2 213.674 152.928L213.512 152.901C211.917 152.636 210.489 151.758 209.541 150.46C208.594 149.163 208.204 147.551 208.459 145.98C208.497 145.743 208.55 145.509 208.617 145.278Z" fill="#5960C7"/>
<path d="M191.677 205.214C191.739 204.997 191.815 204.785 191.903 204.577C192.488 203.202 193.606 202.117 195.012 201.561C196.417 201.005 197.995 201.024 199.398 201.613L199.54 201.673C200.945 202.256 202.063 203.363 202.648 204.75C203.232 206.136 203.236 207.69 202.658 209.068C202.371 209.751 201.951 210.37 201.42 210.89C200.889 211.41 200.258 211.822 199.564 212.1C198.869 212.379 198.124 212.519 197.372 212.514C196.619 212.509 195.874 212.357 195.178 212.069L194.985 211.989C193.692 211.445 192.641 210.456 192.031 209.207C191.422 207.959 191.295 206.538 191.677 205.214Z" fill="#5960C7"/>
<path d="M226.381 152.687C226.56 152.069 226.86 151.493 227.264 150.992C228.074 149.982 229.254 149.335 230.543 149.193C231.832 149.052 233.126 149.427 234.139 150.237L234.272 150.345C234.772 150.748 235.187 151.246 235.495 151.809C235.802 152.373 235.996 152.991 236.064 153.629C236.132 154.267 236.074 154.912 235.892 155.527C235.711 156.142 235.409 156.715 235.006 157.214C234.602 157.712 234.104 158.127 233.54 158.433C232.976 158.739 232.357 158.932 231.718 158.999C231.079 159.067 230.433 159.008 229.817 158.826C229.201 158.644 228.626 158.343 228.126 157.939L228.022 157.855C227.268 157.251 226.71 156.438 226.418 155.518C226.126 154.598 226.113 153.613 226.381 152.687Z" fill="#5960C7"/>
<path d="M211.523 208.701C211.712 208.047 212.099 207.467 212.634 207.033C213.17 206.599 213.831 206.331 214.533 206.262L214.625 206.253C215.091 206.205 215.564 206.246 216.018 206.374C216.472 206.503 216.897 206.715 217.269 207C217.642 207.285 217.954 207.636 218.188 208.034C218.422 208.432 218.574 208.869 218.634 209.32C218.695 209.77 218.663 210.226 218.54 210.661C218.418 211.096 218.207 211.501 217.92 211.854C217.634 212.206 217.276 212.499 216.869 212.716C216.461 212.933 216.012 213.069 215.545 213.117L215.415 213.131C214.949 213.176 214.475 213.132 214.022 213.002C213.569 212.871 213.145 212.657 212.774 212.37C212.404 212.083 212.093 211.73 211.861 211.331C211.629 210.932 211.48 210.494 211.422 210.043C211.363 209.592 211.398 209.135 211.523 208.701Z" fill="#5960C7"/>
<path d="M227.35 201.171C227.567 200.421 227.993 199.749 228.578 199.232L228.666 199.155C229.486 198.425 230.564 198.05 231.664 198.113C232.763 198.175 233.794 198.669 234.529 199.487C234.893 199.893 235.174 200.365 235.355 200.878C235.536 201.391 235.614 201.934 235.584 202.476C235.555 203.018 235.418 203.549 235.182 204.038C234.947 204.528 234.616 204.965 234.21 205.327L234.103 205.424C233.28 206.151 232.201 206.522 231.101 206.456C230.002 206.39 228.973 205.891 228.24 205.071C227.773 204.548 227.447 203.916 227.291 203.234C227.135 202.552 227.156 201.842 227.35 201.171Z" fill="#5960C7"/>
<path d="M237.036 167.649C237.238 166.95 237.613 166.314 238.128 165.799C238.643 165.285 239.281 164.908 239.982 164.705C241.084 164.386 242.27 164.516 243.279 165.067C244.287 165.618 245.035 166.545 245.359 167.644L245.402 167.79C245.722 168.889 245.59 170.07 245.036 171.071C244.482 172.072 243.551 172.812 242.447 173.128C241.343 173.444 240.158 173.31 239.151 172.755C238.145 172.201 237.399 171.272 237.079 170.172L237.044 170.055C236.812 169.269 236.809 168.435 237.036 167.649Z" fill="#5960C7"/>
<path d="M234.226 185.247L234.308 184.964C234.807 183.238 235.967 181.78 237.534 180.911C239.101 180.041 240.946 179.831 242.663 180.327C244.38 180.824 245.828 181.985 246.69 183.556C247.551 185.127 247.755 186.98 247.256 188.706L247.169 189.008C246.92 189.862 246.505 190.658 245.95 191.352C245.394 192.046 244.708 192.624 243.931 193.052C243.154 193.48 242.301 193.751 241.421 193.848C240.541 193.946 239.651 193.868 238.801 193.62C237.089 193.12 235.646 191.958 234.788 190.388C233.931 188.819 233.728 186.97 234.226 185.247Z" fill="#5960C7"/>
<path d="M106.757 122.912H106.678C105.382 122.912 104.139 122.384 103.223 121.443C102.307 120.502 101.792 119.226 101.792 117.896C101.792 116.565 102.307 115.289 103.223 114.349C104.139 113.408 105.382 112.879 106.678 112.879H106.757C108.052 112.879 109.295 113.408 110.211 114.349C111.128 115.289 111.642 116.565 111.642 117.896C111.642 119.226 111.128 120.502 110.211 121.443C109.295 122.384 108.052 122.912 106.757 122.912Z" fill="#5960C7"/>
<path d="M92.4346 179.899C92.1691 179.898 91.904 179.88 91.641 179.845L91.4533 179.818C89.9252 179.609 88.5428 178.803 87.61 177.577C86.6772 176.351 86.2706 174.805 86.4793 173.28C86.6885 171.754 87.4961 170.374 88.7244 169.443C89.9527 168.512 91.5012 168.106 93.0294 168.314L93.217 168.339C94.7451 168.547 96.1277 169.353 97.0608 170.578C97.9939 171.804 98.4011 173.35 98.1929 174.875C98.0033 176.266 97.3156 177.541 96.257 178.465C95.1983 179.388 93.8405 179.898 92.4346 179.899Z" fill="#5960C7"/>
<path d="M111.322 181.504C109.603 181.502 107.942 180.862 106.641 179.702C105.34 178.542 104.486 176.938 104.234 175.182C104.096 174.22 104.142 173.239 104.372 172.295C104.601 171.352 105.008 170.464 105.569 169.682C106.131 168.901 106.836 168.242 107.645 167.742C108.453 167.242 109.349 166.912 110.281 166.769L110.489 166.738C112.37 166.445 114.286 166.935 115.817 168.1C117.348 169.264 118.369 171.009 118.654 172.95C118.938 174.892 118.464 176.87 117.336 178.451C116.207 180.032 114.517 181.085 112.637 181.38L112.389 181.418C112.036 181.474 111.68 181.503 111.322 181.504Z" fill="#5960C7"/>
<path d="M130.111 172.273C129.423 172.274 128.749 172.065 128.176 171.674C127.603 171.282 127.155 170.726 126.888 170.074C126.529 169.197 126.524 168.209 126.874 167.328C127.224 166.446 127.901 165.744 128.755 165.375L128.846 165.336C129.269 165.151 129.722 165.054 130.181 165.05C130.64 165.046 131.095 165.134 131.521 165.311C131.947 165.487 132.334 165.748 132.662 166.078C132.989 166.408 133.25 166.802 133.429 167.235C133.792 168.111 133.8 169.099 133.453 169.982C133.107 170.864 132.433 171.569 131.58 171.941L131.467 171.991C131.038 172.177 130.577 172.273 130.111 172.273Z" fill="#5960C7"/>
<path d="M74.2916 175.083C73.2183 175.082 72.1614 174.813 71.2132 174.297L71.0004 174.177C70.2354 173.757 69.5586 173.187 69.0087 172.5C68.4588 171.812 68.0467 171.019 67.7957 170.168C67.5448 169.317 67.4601 168.423 67.5464 167.538C67.6328 166.653 67.8884 165.794 68.2988 165.011C68.7082 164.227 69.2643 163.533 69.9354 162.97C70.6065 162.406 71.3794 161.984 72.2098 161.727C73.0402 161.47 73.9119 161.383 74.7751 161.472C75.6382 161.56 76.4758 161.823 77.24 162.243L77.3933 162.326C78.9409 163.164 80.1003 164.598 80.6165 166.313C81.1327 168.027 80.9635 169.882 80.1459 171.469C79.5848 172.561 78.7426 173.476 77.7106 174.113C76.6786 174.75 75.4962 175.085 74.2916 175.083Z" fill="#5960C7"/>
<path d="M145.66 164.062C145.098 164.063 144.54 163.983 144 163.826C142.472 163.382 141.178 162.343 140.397 160.934C139.616 159.524 139.41 157.858 139.825 156.295C140.19 154.72 141.15 153.355 142.495 152.495C143.841 151.635 145.464 151.35 147.014 151.701C147.789 151.876 148.523 152.205 149.173 152.67C149.822 153.134 150.376 153.724 150.802 154.407C151.228 155.089 151.518 155.851 151.655 156.648C151.793 157.444 151.775 158.261 151.602 159.051C151.563 159.233 151.516 159.416 151.468 159.595C151.107 160.882 150.345 162.014 149.298 162.82C148.25 163.626 146.973 164.062 145.66 164.062Z" fill="#5960C7"/>
<path d="M59.2995 161.438C58.529 161.439 57.767 161.28 57.0639 160.971C56.3607 160.662 55.7324 160.21 55.2204 159.645L55.0849 159.495C54.611 158.967 54.2478 158.353 54.016 157.688C53.7841 157.023 53.6882 156.319 53.7336 155.617C53.7791 154.915 53.965 154.229 54.2809 153.598C54.5967 152.967 55.0362 152.403 55.5743 151.938C56.6606 151 58.0823 150.523 59.5268 150.613C60.9712 150.703 62.32 151.353 63.2765 152.418L63.3734 152.525C63.85 153.05 64.2165 153.662 64.452 154.326C64.6875 154.99 64.7873 155.694 64.7458 156.395C64.7043 157.097 64.5222 157.784 64.21 158.417C63.8978 159.05 63.4615 159.617 62.9262 160.084C61.9282 160.958 60.637 161.44 59.2995 161.438Z" fill="#5960C7"/>
<path d="M49.4134 143.379C48.6228 143.379 47.8506 143.138 47.1983 142.687C46.546 142.237 46.0441 141.597 45.7584 140.853L45.7053 140.716C45.3353 139.736 45.3658 138.648 45.7901 137.691C46.2145 136.734 46.9979 135.987 47.9683 135.612C48.9391 135.239 50.017 135.27 50.9653 135.698C51.9135 136.126 52.6545 136.917 53.0254 137.896L53.0633 137.996C53.4391 138.973 53.4146 140.062 52.9952 141.022C52.5758 141.981 51.7958 142.733 50.8268 143.113C50.3761 143.289 49.8969 143.38 49.4134 143.379Z" fill="#5960C7"/>
<path d="M145.724 143.78C144.314 143.78 142.961 143.219 141.963 142.219C140.966 141.219 140.405 139.863 140.405 138.449V138.277C140.405 136.862 140.966 135.506 141.963 134.507C142.961 133.507 144.314 132.945 145.724 132.945C147.135 132.945 148.488 133.507 149.486 134.507C150.483 135.506 151.044 136.862 151.044 138.277V138.449C151.044 139.863 150.483 141.219 149.486 142.219C148.488 143.219 147.135 143.78 145.724 143.78Z" fill="#5960C7"/>
<path d="M45.1937 126.578C43.6758 126.576 42.2143 125.992 41.0999 124.941C39.9855 123.891 39.2999 122.451 39.1795 120.909L39.1619 120.69C39.0405 119.062 39.5584 117.451 40.6018 116.212C41.6452 114.973 43.1287 114.208 44.726 114.083C46.3236 113.959 47.9043 114.487 49.1202 115.55C50.3362 116.614 51.0879 118.126 51.2098 119.755L51.2234 119.931C51.3505 121.559 50.8379 123.172 49.7985 124.415C48.7591 125.658 47.278 126.429 45.6809 126.558C45.5172 126.572 45.3554 126.578 45.1937 126.578Z" fill="#5960C7"/>
<path d="M145.016 125.034C144.222 125.036 143.435 124.877 142.702 124.567C141.968 124.257 141.301 123.802 140.741 123.229C139.59 122.128 138.908 120.613 138.84 119.006C138.771 117.4 139.322 115.829 140.374 114.631C140.904 114.029 141.544 113.538 142.259 113.188C142.974 112.837 143.75 112.634 144.543 112.589C145.335 112.545 146.128 112.66 146.877 112.928C147.626 113.195 148.315 113.611 148.906 114.151C149.072 114.304 149.234 114.462 149.388 114.627C149.935 115.213 150.364 115.902 150.65 116.657C150.936 117.411 151.074 118.215 151.055 119.024C151.036 119.832 150.861 120.629 150.54 121.369C150.218 122.108 149.758 122.776 149.183 123.334C148.061 124.427 146.568 125.036 145.016 125.034Z" fill="#5960C7"/>
<path d="M125.953 125.722H125.702C123.646 125.722 121.673 124.897 120.219 123.429C118.764 121.962 117.947 119.971 117.947 117.896C117.947 115.82 118.764 113.83 120.219 112.362C121.673 110.895 123.646 110.07 125.702 110.07H125.953C128.009 110.07 129.982 110.895 131.436 112.362C132.891 113.83 133.708 115.82 133.708 117.896C133.708 119.971 132.891 121.962 131.436 123.429C129.982 124.897 128.009 125.722 125.953 125.722Z" fill="#5960C7"/>
<path d="M46.0273 110.07C45.5284 110.069 45.0305 110.026 44.5385 109.941C43.3936 109.742 42.2982 109.312 41.3148 108.677C40.3313 108.042 39.4792 107.214 38.807 106.241C38.1348 105.267 37.6556 104.167 37.3969 103.003C37.1383 101.839 37.1052 100.634 37.2994 99.4569L37.3508 99.1636C37.5472 97.9869 37.9671 96.8614 38.5865 95.8515C39.206 94.8416 40.0129 93.9671 40.9611 93.2778C41.9093 92.5885 42.9803 92.098 44.1129 91.8344C45.2454 91.5707 46.4174 91.5389 47.5619 91.741C49.8722 92.1495 51.9302 93.4847 53.2834 95.453C54.6366 97.4212 55.1743 99.8614 54.7781 102.237L54.7353 102.51C54.3841 104.624 53.3176 106.542 51.7241 107.925C50.1307 109.309 48.1129 110.068 46.0273 110.07Z" fill="#5960C7"/>
<path d="M51.9143 86.3924C51.2453 86.392 50.5867 86.2255 49.9962 85.9076C49.034 85.3921 48.3137 84.5114 47.9938 83.4591C47.6738 82.4068 47.7804 81.2691 48.29 80.2962L48.3576 80.1622C48.8702 79.1908 49.7435 78.4651 50.7854 78.1446C51.8273 77.8241 52.9524 77.9352 53.9133 78.4534C54.8741 78.9717 55.592 79.8546 55.9089 80.9079C56.2259 81.9613 56.1161 83.0987 55.6035 84.0702L55.5466 84.1787C55.1977 84.8469 54.6751 85.4062 54.035 85.7963C53.3949 86.1864 52.6617 86.3925 51.9143 86.3924Z" fill="#5960C7"/>
<path d="M63.6383 72.9654C62.8205 72.9668 62.011 72.7986 61.2592 72.4707C60.5073 72.1428 59.8288 71.6622 59.265 71.0583C58.717 70.4736 58.2872 69.7847 58.0004 69.0307C57.7136 68.2766 57.5753 67.4724 57.5934 66.6639C57.6115 65.8554 57.7856 65.0585 58.1059 64.3186C58.4262 63.5787 58.8862 62.9104 59.4599 62.3518L59.6236 62.1928C60.7892 61.0722 62.3437 60.4696 63.9453 60.5173C65.5468 60.565 67.0642 61.2591 68.1636 62.4471C69.2629 63.6352 69.8542 65.2196 69.8074 66.852C69.7606 68.4845 69.0796 70.0311 67.9141 71.1518L67.7972 71.2649C66.6771 72.3559 65.1876 72.965 63.6383 72.9654Z" fill="#5960C7"/>
<path d="M79.6491 61.9126C78.5595 61.9129 77.495 61.5767 76.5936 60.9476C75.6922 60.3184 74.9956 59.4255 74.5942 58.3844C74.3312 57.7025 74.2016 56.9739 74.2126 56.2405C74.2236 55.507 74.3751 54.783 74.6584 54.1097C74.9417 53.4364 75.3512 52.827 75.8637 52.3164C76.3761 51.8058 76.9814 51.4038 77.645 51.1336L77.8379 51.0561C79.1811 50.5189 80.677 50.5519 81.9965 51.148C83.316 51.7441 84.3511 52.8544 84.8742 54.2347C85.3969 55.6151 85.3648 57.1524 84.7847 58.5084C84.2047 59.8644 83.1244 60.9282 81.7812 61.4657L81.6497 61.5197C81.0129 61.779 80.3341 61.9123 79.6491 61.9126Z" fill="#5960C7"/>
<path d="M117.843 59.9057C117.413 59.9058 116.983 59.855 116.564 59.7542L116.392 59.7112C115.672 59.5393 114.992 59.223 114.391 58.7803C113.791 58.3377 113.28 57.7774 112.889 57.1313C112.498 56.4853 112.235 55.7663 112.113 55.0153C111.992 54.2643 112.016 53.496 112.182 52.7543C112.52 51.2568 113.42 49.9586 114.686 49.1453C115.952 48.332 117.479 48.0702 118.932 48.4174L119.113 48.4604C119.833 48.6329 120.512 48.9499 121.113 49.393C121.713 49.8362 122.223 50.3969 122.614 51.0433C123.004 51.6896 123.267 52.409 123.388 53.1601C123.509 53.9113 123.484 54.6795 123.317 55.4211C123.03 56.6957 122.332 57.8325 121.338 58.6467C120.345 59.4609 119.113 59.9046 117.843 59.9057Z" fill="#5960C7"/>
<path d="M98.5222 59.9057C96.6171 59.9071 94.7857 59.1636 93.4127 57.8314C92.0398 56.4992 91.2322 54.6819 91.1597 52.7617C91.0852 50.7936 91.7887 48.8763 93.1155 47.4315C94.4423 45.9866 96.2838 45.1326 98.2348 45.0571H98.4961H98.7597C100.668 45.0559 102.503 45.8025 103.876 47.1393C105.25 48.4761 106.055 50.2986 106.122 52.2226C106.191 54.191 105.481 56.1063 104.15 57.5471C102.819 58.9879 100.975 59.8364 99.0233 59.9057H98.8072C98.7122 59.9057 98.6172 59.9057 98.5222 59.9057Z" fill="#5960C7"/>
<path d="M135.249 68.2512C133.997 68.2521 132.776 67.8541 131.757 67.113L131.669 67.0494C130.365 66.1015 129.483 64.6643 129.218 63.0539C128.953 61.4435 129.326 59.7918 130.256 58.462C131.186 57.1324 132.596 56.2338 134.176 55.9637C135.756 55.6937 137.376 56.0742 138.681 57.0218L138.751 57.0714C139.398 57.5396 139.948 58.1332 140.37 58.8181C140.792 59.5031 141.078 60.2661 141.211 61.0636C141.343 61.861 141.32 62.6773 141.144 63.4658C140.967 64.2542 140.639 64.9995 140.18 65.6589C139.621 66.4611 138.881 67.115 138.024 67.566C137.166 68.0171 136.214 68.252 135.249 68.2512Z" fill="#5960C7"/>
</g>
</svg>
