<svg width="30" height="29" viewBox="0 0 30 29" fill="none" xmlns="http://www.w3.org/2000/svg">
<path fill-rule="evenodd" clip-rule="evenodd" d="M0.92 6.81182C0.92 3.39838 3.61077 0.560059 7.01411 0.560059H13.3846C16.789 0.560059 19.48 3.39815 19.48 6.81182V8.07061C19.48 8.77754 18.9069 9.35061 18.2 9.35061C17.4931 9.35061 16.92 8.77754 16.92 8.07061V6.81182C16.92 4.73429 15.2987 3.12006 13.3846 3.12006H7.01411C5.10155 3.12006 3.48 4.73406 3.48 6.81182V21.8283C3.48 23.9061 5.10155 25.5201 7.01411 25.5201H13.3976C15.3043 25.5201 16.92 23.9121 16.92 21.8431V20.5709C16.92 19.8639 17.4931 19.2909 18.2 19.2909C18.9069 19.2909 19.48 19.8639 19.48 20.5709V21.8431C19.48 25.2492 16.7938 28.0801 13.3976 28.0801H7.01411C3.61077 28.0801 0.92 25.2417 0.92 21.8283V6.81182ZM23.0164 9.93513C23.4941 9.41402 24.3038 9.37882 24.8249 9.8565L28.6649 13.3765C28.9294 13.6189 29.08 13.9613 29.08 14.3201C29.08 14.6789 28.9294 15.0212 28.6649 15.2636L24.8249 18.7836C24.3038 19.2613 23.4941 19.2261 23.0164 18.705C22.5388 18.1839 22.574 17.3742 23.0951 16.8965L24.5094 15.6001H11.8C11.0931 15.6001 10.52 15.027 10.52 14.3201C10.52 13.6131 11.0931 13.0401 11.8 13.0401H24.5094L23.0951 11.7436C22.574 11.2659 22.5388 10.4562 23.0164 9.93513Z" fill="currentColor"/>
</svg>
