<svg width="32" height="32" viewBox="0 0 32 32" fill="none" xmlns="http://www.w3.org/2000/svg">
<g opacity="0.5">
<path d="M15.9023 10.2444C16.1804 10.2444 16.4411 10.172 16.6844 10.0271C16.9364 9.87324 17.1319 9.66958 17.2709 9.41613C17.4187 9.16268 17.4925 8.8866 17.4925 8.58789C17.4925 8.15341 17.3361 7.78681 17.0233 7.4881C16.7104 7.18939 16.3368 7.04004 15.9023 7.04004C15.4852 7.04004 15.1202 7.18939 14.8074 7.4881C14.5032 7.77776 14.3512 8.1353 14.3512 8.56074C14.3512 8.85945 14.4207 9.14005 14.5597 9.40255C14.6988 9.656 14.8856 9.85967 15.1202 10.0135C15.3635 10.1674 15.6242 10.2444 15.9023 10.2444ZM19.0567 23.68L19.2 22.5938L17.1145 22.105V12.0033L16.7886 11.6638L13.1259 11.9761L12.9565 13.008L14.9247 13.7548V22.105L12.9565 22.6074L12.8 23.68H19.0567Z" fill="#4B5768"/>
<path fill-rule="evenodd" clip-rule="evenodd" d="M16 29.4396C23.4227 29.4396 29.44 23.4224 29.44 15.9996C29.44 8.57694 23.4227 2.55965 16 2.55965C8.57731 2.55965 2.56001 8.57694 2.56001 15.9996C2.56001 23.4224 8.57731 29.4396 16 29.4396ZM16 31.3596C24.4831 31.3596 31.36 24.4827 31.36 15.9996C31.36 7.51655 24.4831 0.639648 16 0.639648C7.51692 0.639648 0.640015 7.51655 0.640015 15.9996C0.640015 24.4827 7.51692 31.3596 16 31.3596Z" fill="#4B5768"/>
</g>
</svg>
