<svg width="32" height="32" viewBox="0 0 32 32" fill="none" xmlns="http://www.w3.org/2000/svg">
<path d="M31.1555 21.0239L26.6179 16.4863C27.9739 14.8908 28.718 12.865 28.7171 10.7711C28.7137 8.42465 27.78 6.17528 26.1209 4.51609C24.4617 2.85691 22.2123 1.92331 19.8659 1.91992C18.7027 1.92076 17.551 2.15069 16.4767 2.5966C15.4024 3.04251 14.4264 3.69565 13.6045 4.51875C12.7825 5.34185 12.1308 6.31877 11.6864 7.39375C11.2421 8.46873 11.0138 9.62071 11.0147 10.7839C11.018 13.1304 11.9517 15.3797 13.6108 17.0389C15.27 18.6981 17.5194 19.6317 19.8659 19.6351C21.6221 19.6386 23.3389 19.1147 24.7939 18.1311L29.4275 22.7647C29.5407 22.8785 29.6753 22.9688 29.8236 23.0303C29.9719 23.0918 30.1309 23.1234 30.2914 23.1231C30.452 23.1234 30.611 23.0918 30.7593 23.0303C30.9076 22.9688 31.0422 22.8785 31.1555 22.7647C31.27 22.6505 31.3609 22.5149 31.4229 22.3655C31.4849 22.2162 31.5169 22.056 31.5169 21.8943C31.5169 21.7326 31.4849 21.5724 31.4229 21.4231C31.3609 21.2737 31.27 21.1381 31.1555 21.0239V21.0239ZM19.8659 4.38391C21.5632 4.38391 23.1911 5.0582 24.3913 6.25844C25.5916 7.45867 26.2659 9.08652 26.2659 10.7839C26.2659 12.4813 25.5916 14.1091 24.3913 15.3094C23.1911 16.5096 21.5632 17.1839 19.8659 17.1839C18.1685 17.1839 16.5406 16.5096 15.3404 15.3094C14.1401 14.1091 13.4658 12.4813 13.4658 10.7839C13.4658 9.08652 14.1401 7.45867 15.3404 6.25844C16.5406 5.0582 18.1685 4.38391 19.8659 4.38391V4.38391Z" fill="white" fill-opacity="0.5"/>
<path d="M1.86205 16.6655H7.66045C7.98413 16.6638 8.29407 16.5345 8.52295 16.3056C8.75183 16.0767 8.88117 15.7668 8.88285 15.4431C8.88117 15.1194 8.75183 14.8095 8.52295 14.5806C8.29407 14.3517 7.98413 14.2224 7.66045 14.2207H1.86205C1.70152 14.2207 1.54257 14.2523 1.39426 14.3137C1.24595 14.3752 1.11119 14.4652 0.997676 14.5787C0.884165 14.6923 0.794127 14.827 0.732695 14.9753C0.671264 15.1236 0.639648 15.2826 0.639648 15.4431C0.639648 15.6037 0.671264 15.7626 0.732695 15.9109C0.794127 16.0592 0.884165 16.194 0.997676 16.3075C1.11119 16.421 1.24595 16.511 1.39426 16.5725C1.54257 16.6339 1.70152 16.6655 1.86205 16.6655V16.6655Z" fill="white" fill-opacity="0.5"/>
<path d="M1.86205 21.0239H11.558C11.8822 21.0239 12.1932 20.8951 12.4224 20.6659C12.6516 20.4366 12.7804 20.1257 12.7804 19.8015C12.7804 19.4773 12.6516 19.1664 12.4224 18.9371C12.1932 18.7079 11.8822 18.5791 11.558 18.5791H1.86205C1.70152 18.5791 1.54257 18.6107 1.39426 18.6721C1.24595 18.7336 1.11119 18.8236 0.997676 18.9371C0.884165 19.0507 0.794127 19.1854 0.732695 19.3337C0.671264 19.482 0.639648 19.641 0.639648 19.8015C0.639648 19.9621 0.671264 20.121 0.732695 20.2693C0.794127 20.4176 0.884165 20.5523 0.997676 20.6659C1.11119 20.7794 1.24595 20.8694 1.39426 20.9309C1.54257 20.9923 1.70152 21.0239 1.86205 21.0239Z" fill="white" fill-opacity="0.5"/>
<path d="M1.86207 25.3696H21.2605C21.5847 25.3696 21.8956 25.2408 22.1248 25.0116C22.3541 24.7823 22.4829 24.4714 22.4829 24.1472C22.4812 23.8241 22.3516 23.5148 22.1226 23.287C21.8935 23.0591 21.5836 22.9312 21.2605 22.9312H1.86207C1.70184 22.9303 1.54301 22.9612 1.39474 23.0219C1.24647 23.0826 1.11168 23.1721 0.998083 23.2851C0.884489 23.3981 0.794339 23.5324 0.732829 23.6803C0.67132 23.8283 0.639663 23.987 0.639665 24.1472C0.638817 24.308 0.669843 24.4673 0.730974 24.616C0.792105 24.7647 0.882119 24.8998 0.995798 25.0134C1.10948 25.1271 1.24457 25.2171 1.39326 25.2783C1.54195 25.3394 1.7013 25.3704 1.86207 25.3696V25.3696Z" fill="white" fill-opacity="0.5"/>
<path d="M21.7021 27.2832H1.86207C1.7013 27.2824 1.54195 27.3134 1.39326 27.3745C1.24457 27.4356 1.10948 27.5257 0.995798 27.6394C0.882119 27.753 0.792105 27.8881 0.730974 28.0368C0.669843 28.1855 0.638817 28.3448 0.639665 28.5056C0.639663 28.6658 0.67132 28.8245 0.732829 28.9724C0.794339 29.1204 0.884489 29.2547 0.998083 29.3677C1.11168 29.4807 1.24647 29.5701 1.39474 29.6309C1.54301 29.6916 1.70184 29.7225 1.86207 29.7216H21.7021C21.8623 29.7225 22.0211 29.6916 22.1694 29.6309C22.3176 29.5701 22.4524 29.4807 22.566 29.3677C22.6796 29.2547 22.7698 29.1204 22.8313 28.9724C22.8928 28.8245 22.9245 28.6658 22.9245 28.5056C22.9253 28.3448 22.8943 28.1855 22.8331 28.0368C22.772 27.8881 22.682 27.753 22.5683 27.6394C22.4546 27.5257 22.3195 27.4356 22.1709 27.3745C22.0222 27.3134 21.8628 27.2824 21.7021 27.2832V27.2832Z" fill="white" fill-opacity="0.5"/>
</svg>
