<svg width="32" height="32" viewBox="0 0 32 32" fill="none" xmlns="http://www.w3.org/2000/svg">
<path d="M18.6173 2.30389C18.2269 2.18459 17.8293 2.09053 17.4268 2.02229L16.9468 1.92627H15.75H15.6668L15.11 2.03506C14.6749 2.10434 14.2466 2.21141 13.83 2.35506C12.5085 2.79139 11.3442 3.6063 10.4818 4.69857C9.61936 5.79084 9.09675 7.11238 8.97885 8.49908C8.8195 9.72581 8.98442 10.9729 9.45717 12.116C9.92992 13.2591 10.694 14.2584 11.6732 15.0143L11.5005 15.0783C11.1869 15.2063 10.8605 15.3215 10.5789 15.4687C8.5788 16.3692 6.82108 17.7316 5.45032 19.444C4.07955 21.1563 3.1349 23.1696 2.69405 25.3183C2.58034 25.7651 2.55685 26.2302 2.62499 26.6862C2.69312 27.1423 2.8515 27.5802 3.09085 27.9743C3.36269 28.3914 3.72813 28.7394 4.15811 28.9905C4.58809 29.2416 5.07073 29.3889 5.56764 29.4207H16.7932C16.9627 29.4045 17.1269 29.3527 17.2749 29.2687C17.423 29.1848 17.5517 29.0705 17.6526 28.9333C17.7535 28.7962 17.8243 28.6394 17.8604 28.473C17.8965 28.3066 17.8971 28.1345 17.8621 27.9679C17.8004 27.6607 17.6282 27.3869 17.3782 27.1981C17.1281 27.0094 16.8175 26.919 16.5052 26.9439H6.06045C5.91172 26.949 5.76373 26.9206 5.62747 26.8608C5.4912 26.801 5.37013 26.7112 5.27325 26.5983C5.18765 26.4895 5.12766 26.3628 5.09774 26.2276C5.06782 26.0924 5.06876 25.9522 5.10045 25.8175C5.66032 23.2557 7.07187 20.9593 9.10479 19.3029C11.1377 17.6466 13.672 16.7282 16.294 16.6975C16.6949 16.6968 17.095 16.6646 17.4908 16.6015C19.1455 16.3387 20.6607 15.5183 21.7851 14.2763C22.9096 13.0343 23.5758 11.4452 23.6732 9.77268C23.7783 8.14328 23.3386 6.52517 22.4233 5.17307C21.508 3.82096 20.1691 2.81163 18.6173 2.30389ZM21.1773 9.31189C21.1758 10.6051 20.6627 11.8452 19.75 12.7615C19.3149 13.2186 18.7918 13.583 18.2122 13.8326C17.6325 14.0823 17.0084 14.2121 16.3773 14.2143C15.7249 14.2271 15.0765 14.1095 14.4702 13.8684C13.8639 13.6274 13.3118 13.2677 12.8462 12.8105C12.3807 12.3533 12.0111 11.8078 11.7591 11.206C11.5072 10.6041 11.3779 9.95798 11.3789 9.30549C11.3805 8.00581 11.8976 6.75985 12.8166 5.84084C13.7356 4.92183 14.9816 4.40476 16.2813 4.40307C16.9275 4.40054 17.5679 4.52563 18.1657 4.77119C18.7635 5.01675 19.3069 5.37797 19.7647 5.83404C20.2226 6.29012 20.5859 6.83211 20.8338 7.42893C21.0816 8.02574 21.2092 8.66564 21.2092 9.31189H21.1773Z" fill="white" fill-opacity='0.5'/>
<path d="M28.7362 26.9375H20.8578C20.1721 26.9375 19.6162 27.492 19.6162 28.1759C19.6162 28.8599 20.1721 29.4143 20.8578 29.4143H28.7362C29.4219 29.4143 29.9778 28.8599 29.9778 28.1759C29.9778 27.492 29.4219 26.9375 28.7362 26.9375Z" fill="white" fill-opacity='0.5'/>
<path d="M28.7362 22.7007H20.8578C20.1721 22.7007 19.6162 23.2551 19.6162 23.9391C19.6162 24.623 20.1721 25.1775 20.8578 25.1775H28.7362C29.4219 25.1775 29.9778 24.623 29.9778 23.9391C29.9778 23.2551 29.4219 22.7007 28.7362 22.7007Z" fill="white" fill-opacity='0.5'/>
<path d="M28.7362 18.4575H20.8578C20.1721 18.4575 19.6162 19.012 19.6162 19.6959C19.6162 20.3799 20.1721 20.9343 20.8578 20.9343H28.7362C29.4219 20.9343 29.9778 20.3799 29.9778 19.6959C29.9778 19.012 29.4219 18.4575 28.7362 18.4575Z" fill="white" fill-opacity='0.5'/>
</svg>
