<svg width="30" height="30" viewBox="0 0 30 30" fill="none" xmlns="http://www.w3.org/2000/svg">
<path d="M14.9999 0C23.2837 0 30 6.71625 30 15.0001C30 23.2839 23.2838 30 15.0001 30C6.71635 30 0 23.2838 0 15.0001C0 6.71635 6.71532 0 14.9999 0Z" fill="#31A9FF"/>
<path d="M22.9166 5H15.4167C15.1866 5 15 5.18656 15 5.41668V14.5833C15 14.8134 15.1866 15 15.4167 15H24.5833C24.8134 15 25 14.8134 25 14.5833V7.08335C25 5.93273 24.0673 5 22.9166 5Z" fill="white"/>
<path d="M14.5833 15H5.41668C5.18656 15 5 15.1865 5 15.4166V22.9167C5 24.0673 5.93273 25 7.08332 25H14.5833C14.8134 25 15 24.8134 15 24.5833V15.4166C15 15.1865 14.8134 15 14.5833 15Z" fill="white"/>
</svg>
