<svg width="32" height="32" viewBox="0 0 32 32" fill="none" xmlns="http://www.w3.org/2000/svg">
<path d="M31.5 16.0001C31.5 7.4401 24.5598 0.5 15.9999 0.5C7.43915 0.5 0.5 7.44023 0.5 16.0001C0.5 24.5599 7.44021 31.5 16.0001 31.5C24.5599 31.5 31.5 24.56 31.5 16.0001Z" fill="#F4B459" stroke="white"/>
<path d="M23.4591 14.7296L23.3316 14.4689L23.1207 14.3039C22.8441 14.0883 21.4454 14.319 21.0685 13.9768C20.8013 13.7321 20.7591 13.2905 20.6785 12.6943C20.5285 11.5355 20.4329 11.4755 20.252 11.0846C19.5929 9.69055 17.806 8.64335 16.5779 8.49805H13.2517C10.6352 8.49805 8.4967 10.6327 8.4967 13.24V18.7694C8.4967 21.3709 10.6352 23.5019 13.2517 23.5019H18.7164C21.334 23.5019 23.4593 21.3719 23.4733 18.7694L23.5023 14.9387C23.5021 14.9386 23.4591 14.7296 23.4591 14.7296ZM13.2112 12.2555H15.9787C16.5056 12.2555 16.935 12.6765 16.935 13.1892C16.935 13.7002 16.5066 14.1249 15.9787 14.1249H13.2112C12.6835 14.1249 12.255 13.7002 12.255 13.1892C12.255 12.6765 12.6835 12.2555 13.2112 12.2555ZM18.8062 19.7489H13.2075C12.6816 19.7489 12.2551 19.3196 12.2551 18.8095C12.2551 18.2921 12.6816 17.8711 13.2075 17.8711H18.8062C19.3294 17.8711 19.7531 18.2921 19.7531 18.8095C19.7531 19.3196 19.3294 19.7489 18.8062 19.7489Z" fill="white"/>
</svg>
