<svg width="32" height="32" viewBox="0 0 32 32" fill="none" xmlns="http://www.w3.org/2000/svg">
<g opacity="0.5">
<path d="M19.9681 28.8252H11.3921C9.05018 28.8235 6.80471 27.8924 5.14876 26.2364C3.49281 24.5805 2.56175 22.335 2.56006 19.9932V11.3916C2.56175 9.04969 3.49281 6.80424 5.14876 5.14828C6.80471 3.49233 9.05018 2.56127 11.3921 2.55957H22.3553C22.6603 2.56125 22.9523 2.68315 23.168 2.89883C23.3837 3.11451 23.5056 3.40655 23.5073 3.71156C23.5073 4.01709 23.3859 4.31009 23.1698 4.52613C22.9538 4.74217 22.6608 4.86355 22.3553 4.86355H11.3921C9.66176 4.86694 8.0033 5.55579 6.7798 6.7793C5.55629 8.0028 4.86744 9.66127 4.86406 11.3916V19.9932C4.86744 21.7235 5.55629 23.3819 6.7798 24.6054C8.0033 25.8289 9.66176 26.5178 11.3921 26.5212H19.9681C21.6984 26.5178 23.3568 25.8289 24.5803 24.6054C25.8038 23.3819 26.4927 21.7235 26.4961 19.9932V14.7516C26.4961 14.6006 26.5259 14.4511 26.5839 14.3117C26.6418 14.1723 26.7268 14.0457 26.8339 13.9392C26.9409 13.8328 27.068 13.7485 27.2077 13.6913C27.3474 13.6341 27.4971 13.6051 27.6481 13.606C27.9525 13.606 28.2445 13.7264 28.4604 13.9411C28.6762 14.1558 28.7984 14.4471 28.8001 14.7516V19.9932C28.7984 22.335 27.8673 24.5805 26.2114 26.2364C24.5554 27.8924 22.3099 28.8235 19.9681 28.8252Z" fill="#1D1D1B"/>
<path d="M17.0623 21.1005C16.7572 21.0996 16.4649 20.9776 16.2495 20.7613L9.04314 13.5485C8.93517 13.4425 8.8494 13.316 8.79085 13.1765C8.73231 13.0369 8.70215 12.8871 8.70215 12.7357C8.70215 12.5844 8.73231 12.4346 8.79085 12.295C8.8494 12.1555 8.93517 12.029 9.04314 11.9229C9.25904 11.708 9.55129 11.5873 9.85594 11.5873C10.1606 11.5873 10.4529 11.708 10.6687 11.9229L16.9471 18.1949L27.0911 4.83174C27.2754 4.5883 27.5488 4.42796 27.8512 4.38595C28.1536 4.34395 28.4603 4.42375 28.7039 4.60775C28.9478 4.79318 29.1083 5.06762 29.1503 5.37107C29.1922 5.67453 29.1123 5.98227 28.9279 6.22693L17.9839 20.6397C17.8843 20.772 17.7572 20.8812 17.6114 20.9596C17.4656 21.0381 17.3044 21.0839 17.1391 21.0941L17.0623 21.1005Z" fill="#1D1D1B"/>
</g>
</svg>
