<svg width="30" height="30" viewBox="0 0 30 30" fill="none" xmlns="http://www.w3.org/2000/svg">
<path d="M14.9999 0C23.2847 0 30 6.71625 30 15.0001C30 23.2848 23.2847 30 14.9999 30C6.71522 30 0 23.2847 0 15.0001C0 6.71625 6.71532 0 14.9999 0Z" fill="#26A6D1"/>
<path d="M24.378 10.1056C23.7227 10.3886 23.0176 10.579 22.278 10.6653C23.0337 10.2255 23.613 9.53083 23.8858 8.70122C23.179 9.10902 22.397 9.40437 21.5636 9.56275C20.897 8.87371 19.9474 8.44336 18.8955 8.44336C16.878 8.44336 15.2412 10.0306 15.2412 11.9899C15.2412 12.2683 15.2731 12.5393 15.3358 12.799C12.2983 12.6509 9.60395 11.238 7.80211 9.09213C7.4871 9.6162 7.30709 10.2246 7.30709 10.8752C7.30709 12.1052 7.95205 13.1927 8.93273 13.8275C8.33277 13.8087 7.77019 13.6502 7.27619 13.3831V13.4281C7.27619 15.1475 8.53615 16.5809 10.2086 16.9072C9.90208 16.9878 9.57954 17.0319 9.24579 17.0319C9.01048 17.0319 8.78176 17.0104 8.5586 16.9681C9.02356 18.3781 10.3736 19.4037 11.9739 19.4319C10.7224 20.3844 9.14641 20.9507 7.43365 20.9507C7.1383 20.9507 6.84769 20.9338 6.56079 20.901C8.17984 21.9079 10.0999 22.4957 12.1652 22.4957C18.8889 22.4957 22.5658 17.0882 22.5658 12.4007L22.5555 11.9413C23.2679 11.4424 23.8877 10.8181 24.378 10.1056Z" fill="white"/>
</svg>
