<svg width="13" height="19" viewBox="0 0 13 19" fill="none" xmlns="http://www.w3.org/2000/svg">
<path d="M10.5942 0.5C11.6988 0.5 12.5942 1.39543 12.5942 2.5V16.5C12.5942 17.6046 11.6988 18.5 10.5942 18.5H2.5942C1.48963 18.5 0.5942 17.6046 0.5942 16.5V2.5C0.5942 1.39543 1.48963 0.5 2.5942 0.5H10.5942ZM10.5942 2.5H2.5942V16.5H10.5942V2.5ZM6.5942 13.5C7.14648 13.5 7.5942 13.9477 7.5942 14.5C7.5942 15.0523 7.14648 15.5 6.5942 15.5C6.04192 15.5 5.5942 15.0523 5.5942 14.5C5.5942 13.9477 6.04192 13.5 6.5942 13.5Z" fill="white"/>
</svg>
